Space-Mono-Bold-Italic_QUADRATIC.ufo
<glyph name="quotedbl" format="1">
  <advance width="612"/>
  <unicode hex="0022"/>
  <outline>
    <contour>
      <point x="190" y="542" type="line"/>
      <point x="172" y="556"/>
      <point x="150" y="597"/>
      <point x="150" y="620" type="qcurve"/>
      <point x="150" y="639"/>
      <point x="165" y="674"/>
      <point x="191" y="699"/>
      <point x="225" y="714"/>
      <point x="245" y="714" type="qcurve"/>
      <point x="264" y="714"/>
      <point x="299" y="699"/>
      <point x="324" y="674"/>
      <point x="339" y="639"/>
      <point x="339" y="620" type="qcurve"/>
      <point x="339" y="588"/>
      <point x="300" y="535"/>
      <point x="265" y="526" type="qcurve"/>
      <point x="239" y="405" type="line"/>
      <point x="163" y="420" type="line"/>
    </contour>
    <contour>
      <point x="415" y="542" type="line"/>
      <point x="397" y="556"/>
      <point x="375" y="597"/>
      <point x="375" y="620" type="qcurve"/>
      <point x="375" y="639"/>
      <point x="390" y="674"/>
      <point x="416" y="699"/>
      <point x="450" y="714"/>
      <point x="470" y="714" type="qcurve"/>
      <point x="509" y="714"/>
      <point x="564" y="659"/>
      <point x="564" y="620" type="qcurve"/>
      <point x="564" y="588"/>
      <point x="525" y="535"/>
      <point x="490" y="526" type="qcurve"/>
      <point x="464" y="405" type="line"/>
      <point x="388" y="420" type="line"/>
    </contour>
  </outline>
</glyph>
<glyph name="dollar" format="1">
  <advance width="612"/>
  <unicode hex="0024"/>
  <outline>
    <contour>
      <point x="399" y="606" type="line"/>
      <point x="456" y="593"/>
      <point x="518" y="522"/>
      <point x="518" y="475" type="qcurve"/>
      <point x="518" y="464"/>
      <point x="515" y="446" type="qcurve"/>
      <point x="513" y="436" type="line"/>
      <point x="399" y="436" type="line"/>
      <point x="401" y="446" type="line"/>
      <point x="403" y="460"/>
      <point x="391" y="485"/>
      <point x="375" y="493" type="qcurve"/>
      <point x="355" y="398" type="line"/>
      <point x="415" y="387"/>
      <point x="483" y="327"/>
      <point x="483" y="273" type="qcurve"/>
      <point x="483" y="228"/>
      <point x="452" y="163"/>
      <point x="399" y="118"/>
      <point x="329" y="93"/>
      <point x="289" y="89" type="qcurve"/>
      <point x="276" y="28" type="line"/>
      <point x="180" y="28" type="line"/>
      <point x="194" y="93" type="line"/>
      <point x="131" y="107"/>
      <point x="65" y="184"/>
      <point x="65" y="235" type="qcurve"/>
      <point x="65" y="250"/>
      <point x="68" y="267" type="qcurve"/>
      <point x="72" y="287" type="line"/>
      <point x="186" y="287" type="line"/>
      <point x="183" y="273" type="line"/>
      <point x="181" y="263"/>
      <point x="181" y="255" type="qcurve"/>
      <point x="181" y="240"/>
      <point x="199" y="213"/>
      <point x="217" y="205" type="qcurve"/>
      <point x="241" y="318" type="line"/>
      <point x="218" y="322"/>
      <point x="174" y="341"/>
      <point x="140" y="371"/>
      <point x="119" y="415"/>
      <point x="119" y="446" type="qcurve"/>
      <point x="119" y="476"/>
      <point x="144" y="532"/>
      <point x="192" y="576"/>
      <point x="260" y="605"/>
      <point x="304" y="610" type="qcurve"/>
      <point x="317" y="672" type="line"/>
      <point x="413" y="672" type="line"/>
    </contour>
    <contour>
      <point x="365" y="255" type="qcurve"/>
      <point x="365" y="269"/>
      <point x="352" y="292"/>
      <point x="334" y="300" type="qcurve"/>
      <point x="312" y="199" type="line"/>
      <point x="365" y="210"/>
    </contour>
    <contour>
      <point x="237" y="457" type="qcurve"/>
      <point x="237" y="444"/>
      <point x="248" y="425"/>
      <point x="263" y="418" type="qcurve"/>
      <point x="280" y="500" type="line"/>
      <point x="261" y="496"/>
      <point x="237" y="475"/>
    </contour>
  </outline>
</glyph>
<glyph name="percent" format="1">
  <advance width="612"/>
  <unicode hex="0025"/>
  <outline>
    <contour>
      <point x="362" y="583" type="qcurve"/>
      <point x="362" y="545"/>
      <point x="332" y="482"/>
      <point x="283" y="437"/>
      <point x="221" y="412"/>
      <point x="190" y="412" type="qcurve"/>
      <point x="161" y="412"/>
      <point x="109" y="428"/>
      <point x="70" y="459"/>
      <point x="48" y="506"/>
      <point x="48" y="537" type="qcurve"/>
      <point x="48" y="572"/>
      <point x="72" y="635"/>
      <point x="119" y="683"/>
      <point x="187" y="712"/>
      <point x="231" y="712" type="qcurve"/>
      <point x="256" y="712"/>
      <point x="303" y="696"/>
      <point x="340" y="664"/>
      <point x="362" y="616"/>
    </contour>
    <contour>
      <point x="196" y="496" type="qcurve"/>
      <point x="226" y="496"/>
      <point x="270" y="540"/>
      <point x="270" y="574" type="qcurve"/>
      <point x="270" y="601"/>
      <point x="240" y="628"/>
      <point x="214" y="628" type="qcurve"/>
      <point x="182" y="628"/>
      <point x="140" y="579"/>
      <point x="140" y="548" type="qcurve"/>
      <point x="140" y="522"/>
      <point x="171" y="496"/>
    </contour>
    <contour>
      <point x="561" y="159" type="qcurve"/>
      <point x="561" y="121"/>
      <point x="531" y="58"/>
      <point x="482" y="13"/>
      <point x="420" y="-12"/>
      <point x="389" y="-12" type="qcurve"/>
      <point x="360" y="-12"/>
      <point x="308" y="4"/>
      <point x="269" y="35"/>
      <point x="247" y="82"/>
      <point x="247" y="113" type="qcurve"/>
      <point x="247" y="148"/>
      <point x="271" y="211"/>
      <point x="318" y="259"/>
      <point x="386" y="288"/>
      <point x="430" y="288" type="qcurve"/>
      <point x="455" y="288"/>
      <point x="502" y="272"/>
      <point x="539" y="240"/>
      <point x="561" y="192"/>
    </contour>
    <contour>
      <point x="395" y="72" type="qcurve"/>
      <point x="425" y="72"/>
      <point x="469" y="116"/>
      <point x="469" y="150" type="qcurve"/>
      <point x="469" y="177"/>
      <point x="439" y="204"/>
      <point x="413" y="204" type="qcurve"/>
      <point x="381" y="204"/>
      <point x="339" y="155"/>
      <point x="339" y="124" type="qcurve"/>
      <point x="339" y="98"/>
      <point x="370" y="72"/>
    </contour>
    <component base="fraction" xOffset="5"/>
  </outline>
</glyph>
<glyph name="ampersand" format="1">
  <advance width="612"/>
  <unicode hex="0026"/>
  <outline>
    <contour>
      <point x="355" y="294" type="line"/>
      <point x="250" y="294" type="line"/>
      <point x="227" y="294"/>
      <point x="185" y="279"/>
      <point x="153" y="252"/>
      <point x="134" y="213"/>
      <point x="134" y="188" type="qcurve"/>
      <point x="134" y="153"/>
      <point x="179" y="120"/>
      <point x="214" y="120" type="qcurve"/>
      <point x="318" y="120" type="line"/>
    </contour>
    <contour>
      <point x="524" y="496" type="line"/>
      <point x="506" y="414" type="line"/>
      <point x="586" y="414" type="line"/>
      <point x="586" y="288" type="line"/>
      <point x="479" y="288" type="line"/>
      <point x="418" y="0" type="line"/>
      <point x="176" y="0" type="line"/>
      <point x="96" y="0"/>
      <point x="2" y="81"/>
      <point x="2" y="150" type="qcurve"/>
      <point x="2" y="224"/>
      <point x="87" y="327"/>
      <point x="162" y="342" type="qcurve"/>
      <point x="162" y="360" type="line"/>
      <point x="126" y="375"/>
      <point x="71" y="434"/>
      <point x="71" y="488" type="qcurve"/>
      <point x="71" y="534"/>
      <point x="104" y="611"/>
      <point x="166" y="668"/>
      <point x="256" y="700"/>
      <point x="314" y="700" type="qcurve"/>
      <point x="418" y="700" type="line"/>
      <point x="418" y="580" type="line"/>
      <point x="310" y="580" type="line"/>
      <point x="287" y="580"/>
      <point x="246" y="568"/>
      <point x="214" y="543"/>
      <point x="196" y="504"/>
      <point x="196" y="478" type="qcurve"/>
      <point x="196" y="445"/>
      <point x="243" y="414"/>
      <point x="278" y="414" type="qcurve"/>
      <point x="380" y="414" type="line"/>
      <point x="398" y="496" type="line"/>
    </contour>
  </outline>
</glyph>
<glyph name="quotesingle" format="1">
  <advance width="612"/>
  <unicode hex="0027"/>
  <outline>
    <contour>
      <point x="300" y="542" type="line"/>
      <point x="282" y="556"/>
      <point x="260" y="597"/>
      <point x="260" y="620" type="qcurve"/>
      <point x="260" y="639"/>
      <point x="275" y="674"/>
      <point x="301" y="699"/>
      <point x="335" y="714"/>
      <point x="355" y="714" type="qcurve"/>
      <point x="374" y="714"/>
      <point x="409" y="699"/>
      <point x="434" y="674"/>
      <point x="449" y="639"/>
      <point x="449" y="620" type="qcurve"/>
      <point x="449" y="588"/>
      <point x="410" y="535"/>
      <point x="375" y="526" type="qcurve"/>
      <point x="349" y="405" type="line"/>
      <point x="273" y="420" type="line"/>
    </contour>
  </outline>
</glyph>
<glyph name="parenleft" format="1">
  <advance width="612"/>
  <unicode hex="0028"/>
  <outline>
    <contour>
      <point x="436" y="-30" type="line"/>
      <point x="436" y="-156" type="line"/>
      <point x="355" y="-156" type="line"/>
      <point x="295" y="-156"/>
      <point x="192" y="-117"/>
      <point x="115" y="-44"/>
      <point x="72" y="64"/>
      <point x="72" y="133" type="qcurve"/>
      <point x="72" y="180"/>
      <point x="84" y="236" type="qcurve"/>
      <point x="139" y="494" type="line"/>
      <point x="160" y="593"/>
      <point x="237" y="731"/>
      <point x="346" y="817"/>
      <point x="485" y="856"/>
      <point x="568" y="856" type="qcurve"/>
      <point x="612" y="856" type="line"/>
      <point x="612" y="730" type="line"/>
      <point x="554" y="730" type="line"/>
      <point x="432" y="730"/>
      <point x="292" y="606"/>
      <point x="264" y="472" type="qcurve"/>
      <point x="213" y="228" type="line"/>
      <point x="204" y="184"/>
      <point x="204" y="149" type="qcurve"/>
      <point x="204" y="95"/>
      <point x="239" y="26"/>
      <point x="293" y="-14"/>
      <point x="358" y="-30"/>
      <point x="388" y="-30" type="qcurve"/>
    </contour>
  </outline>
</glyph>
<glyph name="two" format="1">
  <advance width="612"/>
  <unicode hex="0032"/>
  <outline>
    <contour>
      <point x="498" y="126" type="line"/>
      <point x="498" y="0" type="line"/>
      <point x="-8" y="0" type="line"/>
      <point x="21" y="138" type="line"/>
      <point x="33" y="197"/>
      <point x="82" y="278"/>
      <point x="153" y="331"/>
      <point x="247" y="362"/>
      <point x="305" y="372" type="qcurve"/>
      <point x="335" y="377"/>
      <point x="392" y="396"/>
      <point x="437" y="426"/>
      <point x="464" y="472"/>
      <point x="464" y="504" type="qcurve"/>
      <point x="464" y="542"/>
      <point x="414" y="588"/>
      <point x="366" y="588" type="qcurve"/>
      <point x="307" y="588"/>
      <point x="228" y="519"/>
      <point x="215" y="458" type="qcurve"/>
      <point x="206" y="414" type="line"/>
      <point x="74" y="414" type="line"/>
      <point x="86" y="470" type="line"/>
      <point x="111" y="586"/>
      <point x="262" y="714"/>
      <point x="384" y="714" type="qcurve"/>
      <point x="434" y="714"/>
      <point x="514" y="683"/>
      <point x="569" y="630"/>
      <point x="599" y="560"/>
      <point x="599" y="522" type="qcurve"/>
      <point x="599" y="413"/>
      <point x="464" y="284"/>
      <point x="342" y="258" type="qcurve"/>
      <point x="288" y="247"/>
      <point x="220" y="223"/>
      <point x="180" y="195"/>
      <point x="161" y="160"/>
      <point x="155" y="138" type="qcurve"/>
      <point x="152" y="126" type="line"/>
    </contour>
  </outline>
</glyph>
<glyph name="three" format="1">
  <advance width="612"/>
  <unicode hex="0033"/>
  <outline>
    <contour>
      <point x="244" y="300" type="line"/>
      <point x="244" y="508" type="line"/>
      <point x="453" y="556" type="line"/>
      <point x="453" y="574" type="line"/>
      <point x="133" y="574" type="line"/>
      <point x="133" y="700" type="line"/>
      <point x="561" y="700" type="line"/>
      <point x="561" y="480" type="line"/>
      <point x="342" y="426" type="line"/>
      <point x="342" y="408" type="line"/>
      <point x="365" y="408" type="line"/>
      <point x="398" y="408"/>
      <point x="459" y="386"/>
      <point x="507" y="342"/>
      <point x="536" y="276"/>
      <point x="536" y="232" type="qcurve"/>
      <point x="536" y="177"/>
      <point x="496" y="87"/>
      <point x="423" y="22"/>
      <point x="318" y="-14"/>
      <point x="254" y="-14" type="qcurve"/>
      <point x="202" y="-14"/>
      <point x="117" y="16"/>
      <point x="57" y="70"/>
      <point x="24" y="144"/>
      <point x="24" y="188" type="qcurve"/>
      <point x="24" y="214"/>
      <point x="30" y="241" type="qcurve"/>
      <point x="35" y="266" type="line"/>
      <point x="167" y="266" type="line"/>
      <point x="163" y="245" type="line"/>
      <point x="161" y="233"/>
      <point x="159" y="218"/>
      <point x="159" y="210" type="qcurve"/>
      <point x="159" y="165"/>
      <point x="214" y="112"/>
      <point x="268" y="112" type="qcurve"/>
      <point x="325" y="112"/>
      <point x="399" y="167"/>
      <point x="399" y="218" type="qcurve"/>
      <point x="399" y="256"/>
      <point x="348" y="300"/>
      <point x="304" y="300" type="qcurve"/>
    </contour>
  </outline>
</glyph>
<glyph name="five" format="1">
  <advance width="612"/>
  <unicode hex="0035"/>
  <outline>
    <contour>
      <point x="49" y="312" type="line"/>
      <point x="131" y="700" type="line"/>
      <point x="579" y="700" type="line"/>
      <point x="579" y="574" type="line"/>
      <point x="237" y="574" type="line"/>
      <point x="196" y="384" type="line"/>
      <point x="214" y="384" type="line"/>
      <point x="236" y="428"/>
      <point x="314" y="480"/>
      <point x="379" y="480" type="qcurve"/>
      <point x="419" y="480"/>
      <point x="485" y="452"/>
      <point x="533" y="401"/>
      <point x="559" y="327"/>
      <point x="559" y="281" type="qcurve"/>
      <point x="559" y="221"/>
      <point x="518" y="113"/>
      <point x="440" y="33"/>
      <point x="325" y="-14"/>
      <point x="251" y="-14" type="qcurve"/>
      <point x="197" y="-14"/>
      <point x="109" y="14"/>
      <point x="47" y="64"/>
      <point x="13" y="135"/>
      <point x="13" y="177" type="qcurve"/>
      <point x="13" y="197"/>
      <point x="18" y="222" type="qcurve"/>
      <point x="23" y="246" type="line"/>
      <point x="155" y="246" type="line"/>
      <point x="152" y="232" type="line"/>
      <point x="150" y="222"/>
      <point x="148" y="211"/>
      <point x="148" y="203" type="qcurve"/>
      <point x="148" y="163"/>
      <point x="208" y="112"/>
      <point x="271" y="112" type="qcurve"/>
      <point x="304" y="112"/>
      <point x="360" y="134"/>
      <point x="400" y="173"/>
      <point x="422" y="225"/>
      <point x="422" y="256" type="qcurve"/>
      <point x="422" y="309"/>
      <point x="374" y="354"/>
      <point x="338" y="354" type="qcurve"/>
      <point x="309" y="354"/>
      <point x="274" y="329"/>
      <point x="265" y="312" type="qcurve"/>
    </contour>
  </outline>
</glyph>
<glyph name="nine" format="1">
  <advance width="612"/>
  <unicode hex="0039"/>
  <outline>
    <contour>
      <point x="166" y="198" type="line"/>
      <point x="164" y="190"/>
      <point x="164" y="181" type="qcurve"/>
      <point x="164" y="153"/>
      <point x="205" y="112"/>
      <point x="253" y="112" type="qcurve"/>
      <point x="313" y="112"/>
      <point x="383" y="175"/>
      <point x="394" y="226" type="qcurve"/>
      <point x="413" y="316" type="line"/>
      <point x="395" y="316" type="line"/>
      <point x="359" y="238"/>
      <point x="253" y="238" type="qcurve"/>
      <point x="219" y="238"/>
      <point x="154" y="263"/>
      <point x="103" y="311"/>
      <point x="72" y="384"/>
      <point x="72" y="432" type="qcurve"/>
      <point x="72" y="493"/>
      <point x="111" y="596"/>
      <point x="185" y="671"/>
      <point x="293" y="714"/>
      <point x="361" y="714" type="qcurve"/>
      <point x="408" y="714"/>
      <point x="489" y="685"/>
      <point x="548" y="632"/>
      <point x="581" y="557"/>
      <point x="581" y="512" type="qcurve"/>
      <point x="581" y="499"/>
      <point x="578" y="475"/>
      <point x="575" y="459" type="qcurve"/>
      <point x="523" y="209" type="line"/>
      <point x="512" y="158"/>
      <point x="465" y="75"/>
      <point x="394" y="17"/>
      <point x="301" y="-14"/>
      <point x="246" y="-14" type="qcurve"/>
      <point x="193" y="-14"/>
      <point x="113" y="13"/>
      <point x="59" y="61"/>
      <point x="31" y="125"/>
      <point x="31" y="162" type="qcurve"/>
      <point x="31" y="180"/>
      <point x="34" y="198" type="qcurve"/>
    </contour>
    <contour>
      <point x="345" y="588" type="qcurve"/>
      <point x="319" y="588"/>
      <point x="271" y="572"/>
      <point x="233" y="539"/>
      <point x="210" y="491"/>
      <point x="210" y="458" type="qcurve"/>
      <point x="210" y="418"/>
      <point x="263" y="364"/>
      <point x="313" y="364" type="qcurve"/>
      <point x="341" y="364"/>
      <point x="391" y="383"/>
      <point x="428" y="418"/>
      <point x="450" y="466"/>
      <point x="450" y="495" type="qcurve"/>
      <point x="450" y="541"/>
      <point x="390" y="588"/>
    </contour>
  </outline>
</glyph>
<glyph name="C" format="1">
  <advance width="612"/>
  <unicode hex="0043"/>
  <outline>
    <contour>
      <point x="255" y="106" type="qcurve"/>
      <point x="292" y="106"/>
      <point x="345" y="130"/>
      <point x="381" y="169"/>
      <point x="402" y="220"/>
      <point x="408" y="246" type="qcurve"/>
      <point x="412" y="264" type="line"/>
      <point x="544" y="264" type="line"/>
      <point x="540" y="246" type="line"/>
      <point x="526" y="181"/>
      <point x="478" y="84"/>
      <point x="404" y="19"/>
      <point x="302" y="-14"/>
      <point x="233" y="-14" type="qcurve"/>
      <point x="186" y="-14"/>
      <point x="108" y="14"/>
      <point x="52" y="68"/>
      <point x="21" y="145"/>
      <point x="21" y="195" type="qcurve"/>
      <point x="21" y="213"/>
      <point x="25" y="249"/>
      <point x="30" y="272" type="qcurve"/>
      <point x="63" y="428" type="line"/>
      <point x="94" y="573"/>
      <point x="252" y="714"/>
      <point x="379" y="714" type="qcurve"/>
      <point x="429" y="714"/>
      <point x="508" y="682"/>
      <point x="563" y="627"/>
      <point x="592" y="553"/>
      <point x="592" y="511" type="qcurve"/>
      <point x="592" y="497"/>
      <point x="588" y="469"/>
      <point x="585" y="454" type="qcurve"/>
      <point x="581" y="436" type="line"/>
      <point x="449" y="436" type="line"/>
      <point x="453" y="454" type="line"/>
      <point x="459" y="478"/>
      <point x="459" y="500" type="qcurve"/>
      <point x="459" y="539"/>
      <point x="414" y="594"/>
      <point x="358" y="594" type="qcurve"/>
      <point x="325" y="594"/>
      <point x="271" y="569"/>
      <point x="231" y="526"/>
      <point x="204" y="469"/>
      <point x="197" y="438" type="qcurve"/>
      <point x="160" y="262" type="line"/>
      <point x="157" y="247"/>
      <point x="153" y="218"/>
      <point x="153" y="205" type="qcurve"/>
      <point x="153" y="160"/>
      <point x="200" y="106"/>
    </contour>
  </outline>
</glyph>
<glyph name="F" format="1">
  <advance width="612"/>
  <unicode hex="0046"/>
  <outline>
    <contour>
      <point x="165" y="700" type="line"/>
      <point x="586" y="700" type="line"/>
      <point x="586" y="574" type="line"/>
      <point x="270" y="574" type="line"/>
      <point x="236" y="414" type="line"/>
      <point x="519" y="414" type="line"/>
      <point x="519" y="288" type="line"/>
      <point x="209" y="288" type="line"/>
      <point x="148" y="0" type="line"/>
      <point x="16" y="0" type="line"/>
    </contour>
  </outline>
</glyph>
<glyph name="I" format="1">
  <advance width="612"/>
  <unicode hex="0049"/>
  <outline>
    <contour>
      <point x="125" y="700" type="line"/>
      <point x="581" y="700" type="line"/>
      <point x="581" y="574" type="line"/>
      <point x="419" y="574" type="line"/>
      <point x="324" y="126" type="line"/>
      <point x="486" y="126" type="line"/>
      <point x="486" y="0" type="line"/>
      <point x="30" y="0" type="line"/>
      <point x="30" y="126" type="line"/>
      <point x="192" y="126" type="line"/>
      <point x="287" y="574" type="line"/>
      <point x="125" y="574" type="line"/>
    </contour>
  </outline>
</glyph>
<glyph name="K" format="1">
  <advance width="612"/>
  <unicode hex="004B"/>
  <outline>
    <contour>
      <point x="128" y="0" type="line"/>
      <point x="-4" y="0" type="line"/>
      <point x="145" y="700" type="line"/>
      <point x="277" y="700" type="line"/>
      <point x="216" y="413" type="line"/>
      <point x="240" y="413" type="line"/>
      <point x="466" y="700" type="line"/>
      <point x="620" y="700" type="line"/>
      <point x="620" y="688" type="line"/>
      <point x="354" y="356" type="line"/>
      <point x="354" y="338" type="line"/>
      <point x="522" y="6" type="line"/>
      <point x="522" y="0" type="line"/>
      <point x="376" y="0" type="line"/>
      <point x="230" y="287" type="line"/>
      <point x="188" y="287" type="line"/>
    </contour>
  </outline>
</glyph>
<glyph name="L" format="1">
  <advance width="612"/>
  <unicode hex="004C"/>
  <outline>
    <contour>
      <point x="15" y="12" type="line"/>
      <point x="161" y="700" type="line"/>
      <point x="293" y="700" type="line"/>
      <point x="171" y="126" type="line"/>
      <point x="475" y="126" type="line"/>
      <point x="475" y="0" type="line"/>
      <point x="15" y="0" type="line"/>
    </contour>
  </outline>
</glyph>
<glyph name="M" format="1">
  <advance width="612"/>
  <unicode hex="004D"/>
  <outline>
    <contour>
      <point x="114" y="700" type="line"/>
      <point x="328" y="700" type="line"/>
      <point x="260" y="198" type="line"/>
      <point x="236" y="84" type="line"/>
      <point x="260" y="84" type="line"/>
      <point x="286" y="204" type="line"/>
      <point x="426" y="700" type="line"/>
      <point x="646" y="700" type="line"/>
      <point x="497" y="0" type="line"/>
      <point x="383" y="0" type="line"/>
      <point x="481" y="460" type="line"/>
      <point x="526" y="616" type="line"/>
      <point x="502" y="616" type="line"/>
      <point x="323" y="0" type="line"/>
      <point x="144" y="0" type="line"/>
      <point x="223" y="616" type="line"/>
      <point x="199" y="616" type="line"/>
      <point x="179" y="466" type="line"/>
      <point x="79" y="0" type="line"/>
      <point x="-34" y="0" type="line"/>
    </contour>
  </outline>
</glyph>
<glyph name="P" format="1">
  <advance width="612"/>
  <unicode hex="0050"/>
  <outline>
    <contour>
      <point x="187" y="264" type="line"/>
      <point x="131" y="0" type="line"/>
      <point x="0" y="0" type="line"/>
      <point x="148" y="700" type="line"/>
      <point x="398" y="700" type="line"/>
      <point x="442" y="700"/>
      <point x="513" y="672"/>
      <point x="563" y="622"/>
      <point x="590" y="554"/>
      <point x="590" y="514" type="qcurve"/>
      <point x="590" y="458"/>
      <point x="552" y="366"/>
      <point x="482" y="300"/>
      <point x="384" y="264"/>
      <point x="324" y="264" type="qcurve"/>
    </contour>
    <contour>
      <point x="214" y="390" type="line"/>
      <point x="336" y="390" type="line"/>
      <point x="387" y="390"/>
      <point x="455" y="450"/>
      <point x="455" y="498" type="qcurve"/>
      <point x="455" y="535"/>
      <point x="408" y="574"/>
      <point x="370" y="574" type="qcurve"/>
      <point x="253" y="574" type="line"/>
    </contour>
  </outline>
</glyph>
<glyph name="Q" format="1">
  <advance width="612"/>
  <unicode hex="0051"/>
  <outline>
    <contour>
      <point x="65" y="428" type="line"/>
      <point x="96" y="576"/>
      <point x="241" y="714"/>
      <point x="368" y="714" type="qcurve"/>
      <point x="421" y="714"/>
      <point x="503" y="681"/>
      <point x="559" y="622"/>
      <point x="588" y="542"/>
      <point x="588" y="496" type="qcurve"/>
      <point x="588" y="479"/>
      <point x="585" y="445"/>
      <point x="581" y="428" type="qcurve"/>
      <point x="548" y="272" type="line"/>
      <point x="519" y="133"/>
      <point x="387" y="-5"/>
      <point x="275" y="-13" type="qcurve"/>
      <point x="272" y="-26" type="line"/>
      <point x="271" y="-31"/>
      <point x="271" y="-35" type="qcurve"/>
      <point x="271" y="-54"/>
      <point x="293" y="-54" type="qcurve"/>
      <point x="349" y="-54" type="line"/>
      <point x="349" y="-174" type="line"/>
      <point x="230" y="-174" type="line"/>
      <point x="188" y="-174"/>
      <point x="136" y="-127"/>
      <point x="136" y="-90" type="qcurve"/>
      <point x="136" y="-82"/>
      <point x="138" y="-68"/>
      <point x="140" y="-60" type="qcurve"/>
      <point x="154" y="1" type="line"/>
      <point x="91" y="24"/>
      <point x="25" y="132"/>
      <point x="25" y="204" type="qcurve"/>
      <point x="25" y="221"/>
      <point x="28" y="255"/>
      <point x="32" y="272" type="qcurve"/>
    </contour>
    <contour>
      <point x="257" y="106" type="qcurve"/>
      <point x="291" y="106"/>
      <point x="343" y="131"/>
      <point x="382" y="173"/>
      <point x="407" y="231"/>
      <point x="414" y="264" type="qcurve"/>
      <point x="451" y="436" type="line"/>
      <point x="454" y="452"/>
      <point x="457" y="475"/>
      <point x="457" y="486" type="qcurve"/>
      <point x="457" y="537"/>
      <point x="404" y="594"/>
      <point x="356" y="594" type="qcurve"/>
      <point x="322" y="594"/>
      <point x="270" y="569"/>
      <point x="231" y="527"/>
      <point x="206" y="469"/>
      <point x="199" y="436" type="qcurve"/>
      <point x="162" y="264" type="line"/>
      <point x="156" y="237"/>
      <point x="156" y="214" type="qcurve"/>
      <point x="156" y="163"/>
      <point x="209" y="106"/>
    </contour>
  </outline>
</glyph>
<glyph name="V" format="1">
  <advance width="612"/>
  <unicode hex="0056"/>
  <outline>
    <contour>
      <point x="60" y="700" type="line"/>
      <point x="194" y="700" type="line"/>
      <point x="217" y="66" type="line"/>
      <point x="235" y="66" type="line"/>
      <point x="504" y="700" type="line"/>
      <point x="642" y="700" type="line"/>
      <point x="642" y="688" type="line"/>
      <point x="340" y="0" type="line"/>
      <point x="94" y="0" type="line"/>
    </contour>
  </outline>
</glyph>
<glyph name="Y" format="1">
  <advance width="612"/>
  <unicode hex="0059"/>
  <outline>
    <contour>
      <point x="664" y="688" type="line"/>
      <point x="374" y="246" type="line"/>
      <point x="344" y="246" type="line"/>
      <point x="292" y="0" type="line"/>
      <point x="160" y="0" type="line"/>
      <point x="212" y="246" type="line"/>
      <point x="182" y="246" type="line"/>
      <point x="72" y="700" type="line"/>
      <point x="212" y="700" type="line"/>
      <point x="288" y="366" type="line"/>
      <point x="306" y="366" type="line"/>
      <point x="520" y="700" type="line"/>
      <point x="664" y="700" type="line"/>
    </contour>
  </outline>
</glyph>
<glyph name="bracketright" format="1">
  <advance width="612"/>
  <unicode hex="005D"/>
  <outline>
    <contour>
      <point x="293" y="-54" type="line"/>
      <point x="283" y="-99"/>
      <point x="214" y="-156"/>
      <point x="169" y="-156" type="qcurve"/>
      <point x="50" y="-156" type="line"/>
      <point x="50" y="-36" type="line"/>
      <point x="143" y="-36" type="line"/>
      <point x="171" y="-36"/>
      <point x="177" y="-6" type="qcurve"/>
      <point x="328" y="706" type="line"/>
      <point x="328" y="708"/>
      <point x="329" y="711"/>
      <point x="329" y="713" type="qcurve"/>
      <point x="329" y="716" type="line"/>
      <point x="329" y="736"/>
      <point x="306" y="736" type="qcurve"/>
      <point x="234" y="736" type="line"/>
      <point x="234" y="856" type="line"/>
      <point x="367" y="856" type="line"/>
      <point x="412" y="856"/>
      <point x="465" y="812"/>
      <point x="465" y="770" type="qcurve"/>
      <point x="465" y="762"/>
      <point x="463" y="746"/>
      <point x="461" y="739" type="qcurve"/>
    </contour>
  </outline>
</glyph>
<glyph name="c" format="1">
  <advance width="612"/>
  <unicode hex="0063"/>
  <outline>
    <contour>
      <point x="534" y="182" type="line"/>
      <point x="506" y="93"/>
      <point x="363" y="-14"/>
      <point x="243" y="-14" type="qcurve"/>
      <point x="199" y="-14"/>
      <point x="121" y="14"/>
      <point x="63" y="70"/>
      <point x="30" y="153"/>
      <point x="30" y="208" type="qcurve"/>
      <point x="30" y="270"/>
      <point x="73" y="380"/>
      <point x="155" y="462"/>
      <point x="271" y="510"/>
      <point x="345" y="510" type="qcurve"/>
      <point x="399" y="510"/>
      <point x="481" y="478"/>
      <point x="535" y="423"/>
      <point x="563" y="349"/>
      <point x="563" y="308" type="qcurve"/>
      <point x="435" y="283" type="line"/>
      <point x="435" y="334"/>
      <point x="384" y="390"/>
      <point x="327" y="390" type="qcurve"/>
      <point x="291" y="390"/>
      <point x="230" y="363"/>
      <point x="185" y="316"/>
      <point x="160" y="253"/>
      <point x="160" y="217" type="qcurve"/>
      <point x="160" y="160"/>
      <point x="220" y="106"/>
      <point x="266" y="106" type="qcurve"/>
      <point x="329" y="106"/>
      <point x="399" y="162"/>
      <point x="417" y="213" type="qcurve"/>
    </contour>
  </outline>
</glyph>
<glyph name="g" format="1">
  <advance width="612"/>
  <unicode hex="0067"/>
  <outline>
    <contour>
      <point x="384" y="72" type="line"/>
      <point x="366" y="72" type="line"/>
      <point x="355" y="55"/>
      <point x="327" y="24"/>
      <point x="287" y="0"/>
      <point x="231" y="-14"/>
      <point x="194" y="-14" type="qcurve"/>
      <point x="158" y="-14"/>
      <point x="95" y="10"/>
      <point x="49" y="58"/>
      <point x="22" y="131"/>
      <point x="22" y="180" type="qcurve"/>
      <point x="22" y="242"/>
      <point x="59" y="361"/>
      <point x="131" y="454"/>
      <point x="238" y="510"/>
      <point x="309" y="510" type="qcurve"/>
      <point x="370" y="510"/>
      <point x="433" y="463"/>
      <point x="441" y="424" type="qcurve"/>
      <point x="459" y="424" type="line"/>
      <point x="474" y="496" type="line"/>
      <point x="600" y="496" type="line"/>
      <point x="469" y="-122" type="line"/>
      <point x="461" y="-156"/>
      <point x="409" y="-200"/>
      <point x="375" y="-200" type="qcurve"/>
      <point x="67" y="-200" type="line"/>
      <point x="67" y="-80" type="line"/>
      <point x="325" y="-80" type="line"/>
      <point x="352" y="-80"/>
      <point x="358" y="-50" type="qcurve"/>
    </contour>
    <contour>
      <point x="259" y="106" type="qcurve"/>
      <point x="295" y="106"/>
      <point x="356" y="136"/>
      <point x="401" y="186"/>
      <point x="426" y="252"/>
      <point x="426" y="288" type="qcurve"/>
      <point x="426" y="336"/>
      <point x="370" y="390"/>
      <point x="319" y="390" type="qcurve"/>
      <point x="281" y="390"/>
      <point x="219" y="360"/>
      <point x="176" y="311"/>
      <point x="152" y="246"/>
      <point x="152" y="212" type="qcurve"/>
      <point x="152" y="159"/>
      <point x="211" y="106"/>
    </contour>
  </outline>
</glyph>
<glyph name="j" format="1">
  <advance width="612"/>
  <unicode hex="006A"/>
  <outline>
    <contour>
      <point x="549" y="643" type="qcurve"/>
      <point x="549" y="623"/>
      <point x="534" y="588"/>
      <point x="508" y="563"/>
      <point x="473" y="548"/>
      <point x="454" y="548" type="qcurve"/>
      <point x="434" y="548"/>
      <point x="400" y="563"/>
      <point x="374" y="588"/>
      <point x="359" y="623"/>
      <point x="359" y="643" type="qcurve"/>
      <point x="359" y="663"/>
      <point x="374" y="698"/>
      <point x="400" y="723"/>
      <point x="434" y="738"/>
      <point x="454" y="738" type="qcurve"/>
      <point x="473" y="738"/>
      <point x="508" y="723"/>
      <point x="534" y="698"/>
      <point x="549" y="663"/>
    </contour>
    <contour>
      <point x="357" y="-98" type="line"/>
      <point x="346" y="-150"/>
      <point x="280" y="-200"/>
      <point x="235" y="-200" type="qcurve"/>
      <point x="0" y="-200" type="line"/>
      <point x="0" y="-80" type="line"/>
      <point x="205" y="-80" type="line"/>
      <point x="234" y="-80"/>
      <point x="242" y="-47" type="qcurve"/>
      <point x="336" y="377" type="line"/>
      <point x="326" y="384" type="line"/>
      <point x="192" y="292" type="line"/>
      <point x="129" y="386" type="line"/>
      <point x="274" y="484" type="line"/>
      <point x="313" y="510"/>
      <point x="356" y="510" type="qcurve"/>
      <point x="378" y="510"/>
      <point x="417" y="495"/>
      <point x="447" y="468"/>
      <point x="464" y="427"/>
      <point x="464" y="402" type="qcurve"/>
      <point x="464" y="385"/>
      <point x="461" y="370" type="qcurve"/>
    </contour>
  </outline>
</glyph>
<glyph name="m" format="1">
  <advance width="612"/>
  <unicode hex="006D"/>
  <outline>
    <contour>
      <point x="431" y="348" type="line"/>
      <point x="433" y="356"/>
      <point x="433" y="362" type="qcurve"/>
      <point x="433" y="390"/>
      <point x="406" y="390" type="qcurve"/>
      <point x="390" y="390"/>
      <point x="374" y="369"/>
      <point x="371" y="354" type="qcurve"/>
      <point x="295" y="0" type="line"/>
      <point x="169" y="0" type="line"/>
      <point x="243" y="348" type="line"/>
      <point x="245" y="358"/>
      <point x="245" y="362" type="qcurve"/>
      <point x="245" y="390"/>
      <point x="219" y="390" type="qcurve"/>
      <point x="190" y="390"/>
      <point x="183" y="354" type="qcurve"/>
      <point x="107" y="0" type="line"/>
      <point x="-18" y="0" type="line"/>
      <point x="87" y="496" type="line"/>
      <point x="213" y="496" type="line"/>
      <point x="203" y="448" type="line"/>
      <point x="221" y="448" type="line"/>
      <point x="229" y="479"/>
      <point x="273" y="510"/>
      <point x="301" y="510" type="qcurve"/>
      <point x="334" y="510"/>
      <point x="368" y="474"/>
      <point x="373" y="448" type="qcurve"/>
      <point x="391" y="448" type="line"/>
      <point x="402" y="475"/>
      <point x="447" y="510"/>
      <point x="483" y="510" type="qcurve"/>
      <point x="525" y="510"/>
      <point x="570" y="456"/>
      <point x="570" y="418" type="qcurve"/>
      <point x="570" y="411"/>
      <point x="569" y="400"/>
      <point x="567" y="392" type="qcurve"/>
      <point x="508" y="119" type="line"/>
      <point x="518" y="112" type="line"/>
      <point x="552" y="136" type="line"/>
      <point x="615" y="42" type="line"/>
      <point x="570" y="12" type="line"/>
      <point x="550" y="-2"/>
      <point x="509" y="-14"/>
      <point x="489" y="-14" type="qcurve"/>
      <point x="467" y="-14"/>
      <point x="428" y="1"/>
      <point x="398" y="29"/>
      <point x="381" y="70"/>
      <point x="381" y="96" type="qcurve"/>
      <point x="381" y="110"/>
      <point x="385" y="130" type="qcurve"/>
    </contour>
  </outline>
</glyph>
<glyph name="n" format="1">
  <advance width="612"/>
  <unicode hex="006E"/>
  <outline>
    <contour>
      <point x="379" y="288" type="line"/>
      <point x="383" y="307"/>
      <point x="383" y="320" type="qcurve"/>
      <point x="383" y="356"/>
      <point x="341" y="396"/>
      <point x="305" y="396" type="qcurve"/>
      <point x="260" y="396"/>
      <point x="196" y="332"/>
      <point x="185" y="278" type="qcurve"/>
      <point x="126" y="0" type="line"/>
      <point x="0" y="0" type="line"/>
      <point x="105" y="496" type="line"/>
      <point x="226" y="496" type="line"/>
      <point x="209" y="416" type="line"/>
      <point x="227" y="416" type="line"/>
      <point x="251" y="466"/>
      <point x="330" y="510"/>
      <point x="378" y="510" type="qcurve"/>
      <point x="441" y="510"/>
      <point x="516" y="434"/>
      <point x="516" y="365" type="qcurve"/>
      <point x="516" y="349"/>
      <point x="512" y="322"/>
      <point x="509" y="306" type="qcurve"/>
      <point x="469" y="119" type="line"/>
      <point x="479" y="112" type="line"/>
      <point x="522" y="142" type="line"/>
      <point x="585" y="48" type="line"/>
      <point x="531" y="12" type="line"/>
      <point x="493" y="-14"/>
      <point x="450" y="-14" type="qcurve"/>
      <point x="428" y="-14"/>
      <point x="388" y="1"/>
      <point x="358" y="28"/>
      <point x="340" y="67"/>
      <point x="340" y="92" type="qcurve"/>
      <point x="340" y="105"/>
      <point x="343" y="122" type="qcurve"/>
    </contour>
  </outline>
</glyph>
<glyph name="o" format="1">
  <advance width="612"/>
  <unicode hex="006F"/>
  <outline>
    <contour>
      <point x="558" y="310" type="qcurve"/>
      <point x="558" y="240"/>
      <point x="518" y="121"/>
      <point x="440" y="35"/>
      <point x="323" y="-14"/>
      <point x="246" y="-14" type="qcurve"/>
      <point x="202" y="-14"/>
      <point x="125" y="12"/>
      <point x="67" y="63"/>
      <point x="33" y="137"/>
      <point x="33" y="184" type="qcurve"/>
      <point x="33" y="261"/>
      <point x="81" y="382"/>
      <point x="164" y="466"/>
      <point x="277" y="510"/>
      <point x="342" y="510" type="qcurve"/>
      <point x="389" y="510"/>
      <point x="469" y="481"/>
      <point x="526" y="429"/>
      <point x="558" y="355"/>
    </contour>
    <contour>
      <point x="265" y="104" type="qcurve"/>
      <point x="301" y="105"/>
      <point x="362" y="135"/>
      <point x="405" y="184"/>
      <point x="429" y="250"/>
      <point x="429" y="287" type="qcurve"/>
      <point x="429" y="339"/>
      <point x="373" y="392"/>
      <point x="326" y="392" type="qcurve"/>
      <point x="290" y="392"/>
      <point x="230" y="361"/>
      <point x="186" y="310"/>
      <point x="162" y="244"/>
      <point x="162" y="208" type="qcurve"/>
      <point x="162" y="157"/>
      <point x="218" y="104"/>
    </contour>
  </outline>
</glyph>
<glyph name="q" format="1">
  <advance width="612"/>
  <unicode hex="0071"/>
  <outline>
    <contour>
      <point x="256" y="106" type="qcurve"/>
      <point x="292" y="106"/>
      <point x="352" y="136"/>
      <point x="396" y="187"/>
      <point x="420" y="253"/>
      <point x="420" y="289" type="qcurve"/>
      <point x="420" y="337"/>
      <point x="365" y="390"/>
      <point x="316" y="390" type="qcurve"/>
      <point x="280" y="390"/>
      <point x="219" y="359"/>
      <point x="176" y="308"/>
      <point x="152" y="242"/>
      <point x="152" y="206" type="qcurve"/>
      <point x="152" y="157"/>
      <point x="207" y="106"/>
    </contour>
    <contour>
      <point x="378" y="72" type="line"/>
      <point x="360" y="72" type="line"/>
      <point x="349" y="55"/>
      <point x="321" y="24"/>
      <point x="282" y="0"/>
      <point x="228" y="-14"/>
      <point x="192" y="-14" type="qcurve"/>
      <point x="157" y="-14"/>
      <point x="96" y="12"/>
      <point x="49" y="60"/>
      <point x="22" y="128"/>
      <point x="22" y="170" type="qcurve"/>
      <point x="22" y="237"/>
      <point x="59" y="360"/>
      <point x="131" y="454"/>
      <point x="235" y="510"/>
      <point x="302" y="510" type="qcurve"/>
      <point x="363" y="510"/>
      <point x="424" y="460"/>
      <point x="435" y="424" type="qcurve"/>
      <point x="453" y="424" type="line"/>
      <point x="468" y="496" type="line"/>
      <point x="594" y="496" type="line"/>
      <point x="471" y="-79" type="line"/>
      <point x="481" y="-86" type="line"/>
      <point x="537" y="-48" type="line"/>
      <point x="600" y="-142" type="line"/>
      <point x="533" y="-186" type="line"/>
      <point x="513" y="-200"/>
      <point x="470" y="-212"/>
      <point x="450" y="-212" type="qcurve"/>
      <point x="405" y="-212"/>
      <point x="342" y="-155"/>
      <point x="342" y="-105" type="qcurve"/>
      <point x="342" y="-91"/>
      <point x="346" y="-72" type="qcurve"/>
    </contour>
  </outline>
</glyph>
<glyph name="r" format="1">
  <advance width="612"/>
  <unicode hex="0072"/>
  <outline>
    <contour>
      <point x="178" y="378" type="line"/>
      <point x="168" y="384" type="line"/>
      <point x="89" y="326" type="line"/>
      <point x="22" y="416" type="line"/>
      <point x="102" y="476" type="line"/>
      <point x="125" y="493"/>
      <point x="176" y="510"/>
      <point x="199" y="510" type="qcurve"/>
      <point x="239" y="510"/>
      <point x="299" y="466"/>
      <point x="305" y="426" type="qcurve"/>
      <point x="323" y="426" type="line"/>
      <point x="343" y="468"/>
      <point x="415" y="510"/>
      <point x="460" y="510" type="qcurve"/>
      <point x="517" y="510"/>
      <point x="588" y="439"/>
      <point x="588" y="376" type="qcurve"/>
      <point x="588" y="363"/>
      <point x="585" y="338"/>
      <point x="581" y="320" type="qcurve"/>
      <point x="576" y="298" type="line"/>
      <point x="442" y="288" type="line"/>
      <point x="445" y="302" type="line"/>
      <point x="448" y="317"/>
      <point x="448" y="329" type="qcurve"/>
      <point x="448" y="358"/>
      <point x="416" y="392"/>
      <point x="384" y="392" type="qcurve"/>
      <point x="344" y="392"/>
      <point x="297" y="338"/>
      <point x="286" y="288" type="qcurve"/>
      <point x="250" y="120" type="line"/>
      <point x="370" y="120" type="line"/>
      <point x="370" y="0" type="line"/>
      <point x="28" y="0" type="line"/>
      <point x="28" y="120" type="line"/>
      <point x="124" y="120" type="line"/>
    </contour>
  </outline>
</glyph>
<glyph name="u" format="1">
  <advance width="612"/>
  <unicode hex="0075"/>
  <outline>
    <contour>
      <point x="223" y="496" type="line"/>
      <point x="161" y="208" type="line"/>
      <point x="157" y="191"/>
      <point x="157" y="175" type="qcurve"/>
      <point x="157" y="137"/>
      <point x="199" y="100"/>
      <point x="234" y="100" type="qcurve"/>
      <point x="287" y="100"/>
      <point x="344" y="169"/>
      <point x="358" y="232" type="qcurve"/>
      <point x="414" y="496" type="line"/>
      <point x="540" y="496" type="line"/>
      <point x="458" y="118" type="line"/>
      <point x="469" y="112" type="line"/>
      <point x="505" y="138" type="line"/>
      <point x="568" y="46" type="line"/>
      <point x="521" y="12" type="line"/>
      <point x="502" y="-2"/>
      <point x="461" y="-14"/>
      <point x="441" y="-14" type="qcurve"/>
      <point x="400" y="-14"/>
      <point x="338" y="33"/>
      <point x="334" y="78" type="qcurve"/>
      <point x="316" y="78" type="line"/>
      <point x="294" y="27"/>
      <point x="219" y="-14"/>
      <point x="172" y="-14" type="qcurve"/>
      <point x="107" y="-14"/>
      <point x="25" y="65"/>
      <point x="25" y="136" type="qcurve"/>
      <point x="25" y="161"/>
      <point x="31" y="190" type="qcurve"/>
      <point x="97" y="496" type="line"/>
    </contour>
  </outline>
</glyph>
<glyph name="exclamdown" format="1">
  <advance width="612"/>
  <unicode hex="00A1"/>
  <outline>
    <contour>
      <point x="134" y="-200" type="line"/>
      <point x="238" y="282" type="line"/>
      <point x="370" y="282" type="line"/>
      <point x="266" y="-200" type="line"/>
    </contour>
    <contour>
      <point x="232" y="419" type="qcurve"/>
      <point x="232" y="439"/>
      <point x="247" y="474"/>
      <point x="273" y="499"/>
      <point x="307" y="514"/>
      <point x="327" y="514" type="qcurve"/>
      <point x="346" y="514"/>
      <point x="381" y="499"/>
      <point x="407" y="474"/>
      <point x="422" y="439"/>
      <point x="422" y="419" type="qcurve"/>
      <point x="422" y="399"/>
      <point x="407" y="364"/>
      <point x="381" y="339"/>
      <point x="346" y="324"/>
      <point x="327" y="324" type="qcurve"/>
      <point x="307" y="324"/>
      <point x="273" y="339"/>
      <point x="247" y="364"/>
      <point x="232" y="399"/>
    </contour>
  </outline>
</glyph>
<glyph name="sterling" format="1">
  <advance width="612"/>
  <unicode hex="00A3"/>
  <outline>
    <contour>
      <point x="148" y="282" type="line"/>
      <point x="98" y="282" type="line"/>
      <point x="98" y="378" type="line"/>
      <point x="169" y="378" type="line"/>
      <point x="182" y="438" type="line"/>
      <point x="202" y="533"/>
      <point x="303" y="612"/>
      <point x="384" y="612" type="qcurve"/>
      <point x="417" y="612"/>
      <point x="470" y="591"/>
      <point x="508" y="553"/>
      <point x="528" y="503"/>
      <point x="528" y="475" type="qcurve"/>
      <point x="528" y="460"/>
      <point x="524" y="440" type="qcurve"/>
      <point x="520" y="422" type="line"/>
      <point x="408" y="422" type="line"/>
      <point x="413" y="442" type="line"/>
      <point x="415" y="450"/>
      <point x="415" y="457" type="qcurve"/>
      <point x="415" y="475"/>
      <point x="392" y="504"/>
      <point x="366" y="504" type="qcurve"/>
      <point x="336" y="504"/>
      <point x="303" y="469"/>
      <point x="297" y="442" type="qcurve"/>
      <point x="283" y="378" type="line"/>
      <point x="344" y="378" type="line"/>
      <point x="344" y="282" type="line"/>
      <point x="262" y="282" type="line"/>
      <point x="247" y="210" type="line"/>
      <point x="452" y="210" type="line"/>
      <point x="452" y="102" type="line"/>
      <point x="60" y="102" type="line"/>
      <point x="60" y="210" type="line"/>
      <point x="133" y="210" type="line"/>
    </contour>
  </outline>
</glyph>
<glyph name="currency" format="1">
  <advance width="612"/>
  <unicode hex="00A4"/>
  <outline>
    <contour>
      <point x="49" y="297" type="qcurve"/>
      <point x="49" y="354"/>
      <point x="84" y="453"/>
      <point x="115" y="492" type="qcurve"/>
      <point x="74" y="545" type="line"/>
      <point x="167" y="622" type="line"/>
      <point x="210" y="567" type="line"/>
      <point x="241" y="583"/>
      <point x="309" y="600"/>
      <point x="347" y="600" type="qcurve"/>
      <point x="385" y="600"/>
      <point x="453" y="579"/>
      <point x="481" y="559" type="qcurve"/>
      <point x="557" y="622" type="line"/>
      <point x="622" y="540" type="line"/>
      <point x="545" y="476" type="line"/>
      <point x="553" y="456"/>
      <point x="561" y="411"/>
      <point x="561" y="385" type="qcurve"/>
      <point x="561" y="336"/>
      <point x="526" y="244"/>
      <point x="494" y="206" type="qcurve"/>
      <point x="535" y="155" type="line"/>
      <point x="442" y="78" type="line"/>
      <point x="399" y="131" type="line"/>
      <point x="337" y="100"/>
      <point x="259" y="100" type="qcurve"/>
      <point x="181" y="100"/>
      <point x="127" y="140" type="qcurve"/>
      <point x="52" y="78" type="line"/>
      <point x="-13" y="160" type="line"/>
      <point x="62" y="223" type="line"/>
      <point x="49" y="255"/>
    </contour>
    <contour>
      <point x="329" y="492" type="qcurve"/>
      <point x="291" y="492"/>
      <point x="228" y="464"/>
      <point x="183" y="418"/>
      <point x="159" y="356"/>
      <point x="159" y="323" type="qcurve"/>
      <point x="159" y="271"/>
      <point x="223" y="208"/>
      <point x="279" y="208" type="qcurve"/>
      <point x="310" y="208"/>
      <point x="371" y="231"/>
      <point x="420" y="273"/>
      <point x="450" y="332"/>
      <point x="450" y="367" type="qcurve"/>
      <point x="450" y="423"/>
      <point x="386" y="492"/>
    </contour>
  </outline>
</glyph>
<glyph name="yen" format="1">
  <advance width="612"/>
  <unicode hex="00A5"/>
  <outline>
    <contour>
      <point x="561" y="586" type="line"/>
      <point x="430" y="390" type="line"/>
      <point x="485" y="390" type="line"/>
      <point x="485" y="294" type="line"/>
      <point x="347" y="294" type="line"/>
      <point x="340" y="264" type="line"/>
      <point x="458" y="264" type="line"/>
      <point x="458" y="168" type="line"/>
      <point x="320" y="168" type="line"/>
      <point x="306" y="102" type="line"/>
      <point x="180" y="102" type="line"/>
      <point x="194" y="168" type="line"/>
      <point x="76" y="168" type="line"/>
      <point x="76" y="264" type="line"/>
      <point x="214" y="264" type="line"/>
      <point x="221" y="294" type="line"/>
      <point x="103" y="294" type="line"/>
      <point x="103" y="390" type="line"/>
      <point x="178" y="390" type="line"/>
      <point x="117" y="598" type="line"/>
      <point x="251" y="598" type="line"/>
      <point x="295" y="390" type="line"/>
      <point x="307" y="390" type="line"/>
      <point x="435" y="598" type="line"/>
      <point x="561" y="598" type="line"/>
    </contour>
  </outline>
</glyph>
<glyph name="ordfeminine" format="1">
  <advance width="612"/>
  <unicode hex="00AA"/>
  <outline>
    <contour>
      <point x="372" y="446" type="line"/>
      <point x="361" y="428"/>
      <point x="322" y="406"/>
      <point x="292" y="406" type="qcurve"/>
      <point x="245" y="406"/>
      <point x="181" y="470"/>
      <point x="181" y="530" type="qcurve"/>
      <point x="181" y="564"/>
      <point x="202" y="628"/>
      <point x="243" y="677"/>
      <point x="304" y="706"/>
      <point x="343" y="706" type="qcurve"/>
      <point x="374" y="706"/>
      <point x="407" y="687"/>
      <point x="415" y="672" type="qcurve"/>
      <point x="424" y="672" type="line"/>
      <point x="430" y="700" type="line"/>
      <point x="514" y="700" type="line"/>
      <point x="473" y="507" type="line"/>
      <point x="470" y="490"/>
      <point x="485" y="490" type="qcurve"/>
      <point x="501" y="490" type="line"/>
      <point x="501" y="412" type="line"/>
      <point x="414" y="412" type="line"/>
      <point x="399" y="412"/>
      <point x="381" y="429"/>
      <point x="381" y="446" type="qcurve"/>
    </contour>
    <contour>
      <point x="322" y="484" type="qcurve"/>
      <point x="361" y="484"/>
      <point x="403" y="538"/>
      <point x="403" y="576" type="qcurve"/>
      <point x="403" y="599"/>
      <point x="375" y="628"/>
      <point x="347" y="628" type="qcurve"/>
      <point x="313" y="628"/>
      <point x="267" y="580"/>
      <point x="267" y="542" type="qcurve"/>
      <point x="267" y="510"/>
      <point x="299" y="484"/>
    </contour>
  </outline>
</glyph>
<glyph name="logicalnot" format="1">
  <advance width="612"/>
  <unicode hex="00AC"/>
  <outline>
    <contour>
      <point x="102" y="407" type="line"/>
      <point x="530" y="407" type="line"/>
      <point x="530" y="395" type="line"/>
      <point x="480" y="162" type="line"/>
      <point x="364" y="162" type="line"/>
      <point x="392" y="293" type="line"/>
      <point x="102" y="293" type="line"/>
    </contour>
  </outline>
</glyph>
<glyph name="degree" format="1">
  <advance width="612"/>
  <unicode hex="00B0"/>
  <outline>
    <contour>
      <point x="198" y="569" type="qcurve"/>
      <point x="198" y="602"/>
      <point x="223" y="659"/>
      <point x="265" y="701"/>
      <point x="322" y="726"/>
      <point x="355" y="726" type="qcurve"/>
      <point x="388" y="726"/>
      <point x="445" y="701"/>
      <point x="487" y="659"/>
      <point x="512" y="602"/>
      <point x="512" y="569" type="qcurve"/>
      <point x="512" y="536"/>
      <point x="487" y="479"/>
      <point x="445" y="437"/>
      <point x="388" y="412"/>
      <point x="355" y="412" type="qcurve"/>
      <point x="322" y="412"/>
      <point x="265" y="437"/>
      <point x="223" y="479"/>
      <point x="198" y="536"/>
    </contour>
    <contour>
      <point x="306" y="569" type="qcurve"/>
      <point x="306" y="549"/>
      <point x="335" y="520"/>
      <point x="355" y="520" type="qcurve"/>
      <point x="375" y="520"/>
      <point x="404" y="549"/>
      <point x="404" y="569" type="qcurve"/>
      <point x="404" y="589"/>
      <point x="375" y="618"/>
      <point x="355" y="618" type="qcurve"/>
      <point x="335" y="618"/>
      <point x="306" y="589"/>
    </contour>
  </outline>
</glyph>
<glyph name="cedilla" format="1">
  <advance width="612"/>
  <unicode hex="00B8"/>
  <outline>
    <contour>
      <point x="314" y="0" type="line"/>
      <point x="294" y="-46" type="line"/>
      <point x="306" y="-46" type="line"/>
      <point x="314" y="-37"/>
      <point x="338" y="-24"/>
      <point x="357" y="-24" type="qcurve"/>
      <point x="386" y="-24"/>
      <point x="424" y="-64"/>
      <point x="424" y="-102" type="qcurve"/>
      <point x="424" y="-153"/>
      <point x="361" y="-212"/>
      <point x="303" y="-212" type="qcurve"/>
      <point x="269" y="-212"/>
      <point x="225" y="-201"/>
      <point x="210" y="-192" type="qcurve"/>
      <point x="247" y="-123" type="line"/>
      <point x="257" y="-130"/>
      <point x="282" y="-138"/>
      <point x="298" y="-138" type="qcurve"/>
      <point x="315" y="-138"/>
      <point x="338" y="-123"/>
      <point x="338" y="-109" type="qcurve"/>
      <point x="338" y="-90"/>
      <point x="320" y="-90" type="qcurve"/>
      <point x="306" y="-90"/>
      <point x="299" y="-104" type="qcurve"/>
      <point x="202" y="-104" type="line"/>
      <point x="202" y="-92" type="line"/>
      <point x="235" y="0" type="line"/>
    </contour>
  </outline>
</glyph>
<glyph name="onequarter" format="1">
  <advance width="612"/>
  <unicode hex="00BC"/>
  <outline>
    <contour>
      <point x="521" y="510" type="line"/>
      <point x="562" y="432" type="line"/>
      <point x="90" y="190" type="line"/>
      <point x="49" y="268" type="line"/>
    </contour>
    <component base="onesuperior" xOffset="-179"/>
    <component base="uni2074" xOffset="97" yOffset="-412"/>
  </outline>
</glyph>
<glyph name="AE" format="1">
  <advance width="612"/>
  <unicode hex="00C6"/>
  <outline>
    <contour>
      <point x="214" y="12" type="line"/>
      <point x="243" y="150" type="line"/>
      <point x="129" y="150" type="line"/>
      <point x="63" y="0" type="line"/>
      <point x="-68" y="0" type="line"/>
      <point x="-68" y="12" type="line"/>
      <point x="241" y="700" type="line"/>
      <point x="628" y="700" type="line"/>
      <point x="628" y="574" type="line"/>
      <point x="465" y="574" type="line"/>
      <point x="431" y="414" type="line"/>
      <point x="567" y="414" type="line"/>
      <point x="567" y="288" type="line"/>
      <point x="404" y="288" type="line"/>
      <point x="370" y="126" type="line"/>
      <point x="518" y="126" type="line"/>
      <point x="518" y="0" type="line"/>
      <point x="214" y="0" type="line"/>
    </contour>
    <contour>
      <point x="184" y="276" type="line"/>
      <point x="270" y="276" type="line"/>
      <point x="333" y="574" type="line"/>
      <point x="315" y="574" type="line"/>
    </contour>
  </outline>
</glyph>
<glyph name="Ccedilla" format="1">
  <advance width="612"/>
  <unicode hex="00C7"/>
  <outline>
    <contour>
      <point x="255" y="106" type="qcurve"/>
      <point x="292" y="106"/>
      <point x="345" y="130"/>
      <point x="381" y="169"/>
      <point x="402" y="220"/>
      <point x="408" y="246" type="qcurve"/>
      <point x="412" y="264" type="line"/>
      <point x="544" y="264" type="line"/>
      <point x="540" y="246" type="line"/>
      <point x="526" y="184"/>
      <point x="482" y="90"/>
      <point x="415" y="26"/>
      <point x="323" y="-10"/>
      <point x="261" y="-13" type="qcurve"/>
      <point x="247" y="-46" type="line"/>
      <point x="259" y="-46" type="line"/>
      <point x="267" y="-37"/>
      <point x="291" y="-24"/>
      <point x="310" y="-24" type="qcurve"/>
      <point x="339" y="-24"/>
      <point x="377" y="-64"/>
      <point x="377" y="-102" type="qcurve"/>
      <point x="377" y="-153"/>
      <point x="314" y="-212"/>
      <point x="256" y="-212" type="qcurve"/>
      <point x="222" y="-212"/>
      <point x="178" y="-201"/>
      <point x="163" y="-192" type="qcurve"/>
      <point x="200" y="-123" type="line"/>
      <point x="210" y="-130"/>
      <point x="235" y="-138"/>
      <point x="251" y="-138" type="qcurve"/>
      <point x="268" y="-138"/>
      <point x="291" y="-123"/>
      <point x="291" y="-109" type="qcurve"/>
      <point x="291" y="-90"/>
      <point x="273" y="-90" type="qcurve"/>
      <point x="259" y="-90"/>
      <point x="252" y="-104" type="qcurve"/>
      <point x="155" y="-104" type="line"/>
      <point x="155" y="-92" type="line"/>
      <point x="184" y="-10" type="line"/>
      <point x="109" y="3"/>
      <point x="21" y="108"/>
      <point x="21" y="195" type="qcurve"/>
      <point x="21" y="213"/>
      <point x="25" y="249"/>
      <point x="30" y="272" type="qcurve"/>
      <point x="63" y="428" type="line"/>
      <point x="94" y="573"/>
      <point x="252" y="714"/>
      <point x="379" y="714" type="qcurve"/>
      <point x="429" y="714"/>
      <point x="508" y="682"/>
      <point x="563" y="627"/>
      <point x="592" y="553"/>
      <point x="592" y="511" type="qcurve"/>
      <point x="592" y="497"/>
      <point x="588" y="469"/>
      <point x="585" y="454" type="qcurve"/>
      <point x="581" y="436" type="line"/>
      <point x="449" y="436" type="line"/>
      <point x="453" y="454" type="line"/>
      <point x="459" y="478"/>
      <point x="459" y="500" type="qcurve"/>
      <point x="459" y="539"/>
      <point x="414" y="594"/>
      <point x="358" y="594" type="qcurve"/>
      <point x="325" y="594"/>
      <point x="271" y="569"/>
      <point x="231" y="526"/>
      <point x="204" y="469"/>
      <point x="197" y="438" type="qcurve"/>
      <point x="160" y="262" type="line"/>
      <point x="157" y="247"/>
      <point x="153" y="218"/>
      <point x="153" y="205" type="qcurve"/>
      <point x="153" y="160"/>
      <point x="200" y="106"/>
    </contour>
  </outline>
</glyph>
<glyph name="Oslash" format="1">
  <advance width="612"/>
  <unicode hex="00D8"/>
  <outline>
    <contour>
      <point x="65" y="428" type="line"/>
      <point x="96" y="576"/>
      <point x="241" y="714"/>
      <point x="368" y="714" type="qcurve"/>
      <point x="388" y="714"/>
      <point x="423" y="709"/>
      <point x="440" y="704" type="qcurve"/>
      <point x="482" y="781" type="line"/>
      <point x="574" y="728" type="line"/>
      <point x="532" y="650" type="line"/>
      <point x="559" y="621"/>
      <point x="588" y="542"/>
      <point x="588" y="496" type="qcurve"/>
      <point x="588" y="479"/>
      <point x="585" y="445"/>
      <point x="581" y="428" type="qcurve"/>
      <point x="548" y="272" type="line"/>
      <point x="517" y="124"/>
      <point x="372" y="-14"/>
      <point x="245" y="-14" type="qcurve"/>
      <point x="210" y="-14"/>
      <point x="178" y="-6" type="qcurve"/>
      <point x="131" y="-93" type="line"/>
      <point x="40" y="-37" type="line"/>
      <point x="85" y="46" type="line"/>
      <point x="25" y="106"/>
      <point x="25" y="204" type="qcurve"/>
      <point x="25" y="221"/>
      <point x="28" y="255"/>
      <point x="32" y="272" type="qcurve"/>
    </contour>
    <contour>
      <point x="156" y="214" type="qcurve"/>
      <point x="156" y="196"/>
      <point x="159" y="183" type="qcurve"/>
      <point x="380" y="592" type="line"/>
      <point x="374" y="593"/>
      <point x="362" y="594"/>
      <point x="356" y="594" type="qcurve"/>
      <point x="322" y="594"/>
      <point x="270" y="569"/>
      <point x="231" y="527"/>
      <point x="206" y="469"/>
      <point x="199" y="436" type="qcurve"/>
      <point x="162" y="264" type="line"/>
      <point x="156" y="237"/>
    </contour>
    <contour>
      <point x="257" y="106" type="qcurve"/>
      <point x="291" y="106"/>
      <point x="343" y="131"/>
      <point x="382" y="173"/>
      <point x="407" y="231"/>
      <point x="414" y="264" type="qcurve"/>
      <point x="451" y="436" type="line"/>
      <point x="454" y="452"/>
      <point x="457" y="475"/>
      <point x="457" y="486" type="qcurve"/>
      <point x="457" y="492"/>
      <point x="456" y="503"/>
      <point x="455" y="508" type="qcurve"/>
      <point x="239" y="107" type="line"/>
      <point x="243" y="106"/>
      <point x="252" y="106"/>
    </contour>
  </outline>
</glyph>
<glyph name="ccedilla" format="1">
  <advance width="612"/>
  <unicode hex="00E7"/>
  <outline>
    <contour>
      <point x="534" y="182" type="line"/>
      <point x="507" y="96"/>
      <point x="373" y="-9"/>
      <point x="261" y="-13" type="qcurve"/>
      <point x="247" y="-46" type="line"/>
      <point x="259" y="-46" type="line"/>
      <point x="267" y="-37"/>
      <point x="291" y="-24"/>
      <point x="310" y="-24" type="qcurve"/>
      <point x="339" y="-24"/>
      <point x="377" y="-64"/>
      <point x="377" y="-102" type="qcurve"/>
      <point x="377" y="-153"/>
      <point x="314" y="-212"/>
      <point x="256" y="-212" type="qcurve"/>
      <point x="222" y="-212"/>
      <point x="178" y="-201"/>
      <point x="163" y="-192" type="qcurve"/>
      <point x="200" y="-123" type="line"/>
      <point x="210" y="-130"/>
      <point x="235" y="-138"/>
      <point x="251" y="-138" type="qcurve"/>
      <point x="268" y="-138"/>
      <point x="291" y="-123"/>
      <point x="291" y="-109" type="qcurve"/>
      <point x="291" y="-90"/>
      <point x="273" y="-90" type="qcurve"/>
      <point x="259" y="-90"/>
      <point x="252" y="-104" type="qcurve"/>
      <point x="155" y="-104" type="line"/>
      <point x="155" y="-92" type="line"/>
      <point x="185" y="-7" type="line"/>
      <point x="117" y="8"/>
      <point x="30" y="116"/>
      <point x="30" y="208" type="qcurve"/>
      <point x="30" y="270"/>
      <point x="73" y="380"/>
      <point x="155" y="462"/>
      <point x="271" y="510"/>
      <point x="345" y="510" type="qcurve"/>
      <point x="399" y="510"/>
      <point x="481" y="478"/>
      <point x="535" y="423"/>
      <point x="563" y="349"/>
      <point x="563" y="308" type="qcurve"/>
      <point x="435" y="283" type="line"/>
      <point x="435" y="334"/>
      <point x="384" y="390"/>
      <point x="327" y="390" type="qcurve"/>
      <point x="291" y="390"/>
      <point x="230" y="363"/>
      <point x="185" y="316"/>
      <point x="160" y="253"/>
      <point x="160" y="217" type="qcurve"/>
      <point x="160" y="160"/>
      <point x="220" y="106"/>
      <point x="266" y="106" type="qcurve"/>
      <point x="329" y="106"/>
      <point x="399" y="162"/>
      <point x="417" y="213" type="qcurve"/>
    </contour>
  </outline>
</glyph>
<glyph name="oslash" format="1">
  <advance width="612"/>
  <unicode hex="00F8"/>
  <outline>
    <contour>
      <point x="558" y="310" type="qcurve"/>
      <point x="558" y="240"/>
      <point x="518" y="121"/>
      <point x="440" y="35"/>
      <point x="323" y="-14"/>
      <point x="246" y="-14" type="qcurve"/>
      <point x="238" y="-14"/>
      <point x="224" y="-13"/>
      <point x="216" y="-12" type="qcurve"/>
      <point x="184" y="-73" type="line"/>
      <point x="93" y="-18" type="line"/>
      <point x="115" y="23" type="line"/>
      <point x="77" y="48"/>
      <point x="33" y="129"/>
      <point x="33" y="184" type="qcurve"/>
      <point x="33" y="261"/>
      <point x="81" y="382"/>
      <point x="164" y="466"/>
      <point x="277" y="510"/>
      <point x="342" y="510" type="qcurve"/>
      <point x="359" y="510"/>
      <point x="377" y="507" type="qcurve"/>
      <point x="408" y="565" type="line"/>
      <point x="502" y="515" type="line"/>
      <point x="478" y="470" type="line"/>
      <point x="516" y="444"/>
      <point x="558" y="362"/>
    </contour>
    <contour>
      <point x="162" y="208" type="qcurve"/>
      <point x="162" y="168"/>
      <point x="179" y="142" type="qcurve"/>
      <point x="314" y="391" type="line"/>
      <point x="280" y="388"/>
      <point x="224" y="356"/>
      <point x="184" y="306"/>
      <point x="162" y="242"/>
    </contour>
    <contour>
      <point x="429" y="287" type="qcurve"/>
      <point x="429" y="324"/>
      <point x="413" y="350" type="qcurve"/>
      <point x="280" y="105" type="line"/>
      <point x="313" y="108"/>
      <point x="368" y="140"/>
      <point x="407" y="189"/>
      <point x="429" y="252"/>
    </contour>
  </outline>
</glyph>
<glyph name="thorn" format="1">
  <advance width="612"/>
  <unicode hex="00FE"/>
  <outline>
    <contour>
      <point x="82" y="-200" type="line"/>
      <point x="-44" y="-200" type="line"/>
      <point x="150" y="714" type="line"/>
      <point x="276" y="714" type="line"/>
      <point x="212" y="424" type="line"/>
      <point x="230" y="424" type="line"/>
      <point x="254" y="466"/>
      <point x="328" y="510"/>
      <point x="384" y="510" type="qcurve"/>
      <point x="418" y="510"/>
      <point x="480" y="484"/>
      <point x="527" y="434"/>
      <point x="554" y="361"/>
      <point x="554" y="314" type="qcurve"/>
      <point x="554" y="255"/>
      <point x="525" y="137"/>
      <point x="463" y="44"/>
      <point x="366" y="-14"/>
      <point x="298" y="-14" type="qcurve"/>
      <point x="266" y="-14"/>
      <point x="218" y="1"/>
      <point x="184" y="25"/>
      <point x="162" y="56"/>
      <point x="158" y="72" type="qcurve"/>
      <point x="140" y="72" type="line"/>
    </contour>
    <contour>
      <point x="274" y="106" type="qcurve"/>
      <point x="311" y="106"/>
      <point x="367" y="133"/>
      <point x="404" y="178"/>
      <point x="422" y="239"/>
      <point x="422" y="273" type="qcurve"/>
      <point x="422" y="325"/>
      <point x="368" y="390"/>
      <point x="320" y="390" type="qcurve"/>
      <point x="286" y="390"/>
      <point x="232" y="363"/>
      <point x="194" y="315"/>
      <point x="173" y="249"/>
      <point x="173" y="210" type="qcurve"/>
      <point x="173" y="163"/>
      <point x="227" y="106"/>
    </contour>
  </outline>
</glyph>
<glyph name="aogonek" format="1">
  <advance width="612"/>
  <unicode hex="0105"/>
  <outline>
    <contour>
      <point x="479" y="119" type="line"/>
      <point x="489" y="112" type="line"/>
      <point x="537" y="146" type="line"/>
      <point x="600" y="52" type="line"/>
      <point x="442" y="-58" type="line"/>
      <point x="434" y="-64"/>
      <point x="434" y="-72" type="qcurve"/>
      <point x="434" y="-77"/>
      <point x="443" y="-86"/>
      <point x="451" y="-86" type="qcurve"/>
      <point x="514" y="-86" type="line"/>
      <point x="514" y="-170" type="line"/>
      <point x="390" y="-170" type="line"/>
      <point x="354" y="-170"/>
      <point x="311" y="-125"/>
      <point x="311" y="-95" type="qcurve"/>
      <point x="311" y="-76"/>
      <point x="331" y="-39"/>
      <point x="352" y="-23" type="qcurve"/>
      <point x="392" y="6" type="line"/>
      <point x="360" y="28"/>
      <point x="353" y="66" type="qcurve"/>
      <point x="335" y="66" type="line"/>
      <point x="326" y="49"/>
      <point x="302" y="20"/>
      <point x="267" y="-1"/>
      <point x="220" y="-14"/>
      <point x="188" y="-14" type="qcurve"/>
      <point x="149" y="-14"/>
      <point x="83" y="17"/>
      <point x="34" y="72"/>
      <point x="6" y="146"/>
      <point x="6" y="190" type="qcurve"/>
      <point x="6" y="257"/>
      <point x="42" y="373"/>
      <point x="110" y="460"/>
      <point x="209" y="510"/>
      <point x="271" y="510" type="qcurve"/>
      <point x="326" y="510"/>
      <point x="390" y="466"/>
      <point x="401" y="430" type="qcurve"/>
      <point x="419" y="430" type="line"/>
      <point x="433" y="496" type="line"/>
      <point x="559" y="496" type="line"/>
    </contour>
    <contour>
      <point x="237" y="106" type="qcurve"/>
      <point x="273" y="106"/>
      <point x="329" y="135"/>
      <point x="366" y="183"/>
      <point x="386" y="248"/>
      <point x="386" y="284" type="qcurve"/>
      <point x="386" y="331"/>
      <point x="332" y="390"/>
      <point x="287" y="390" type="qcurve"/>
      <point x="251" y="390"/>
      <point x="195" y="361"/>
      <point x="157" y="313"/>
      <point x="137" y="248"/>
      <point x="137" y="212" type="qcurve"/>
      <point x="137" y="170"/>
      <point x="186" y="106"/>
    </contour>
  </outline>
</glyph>
<glyph name="dcroat" format="1">
  <advance width="612"/>
  <unicode hex="0111"/>
  <outline>
    <contour>
      <point x="479" y="119" type="line"/>
      <point x="489" y="112" type="line"/>
      <point x="543" y="150" type="line"/>
      <point x="606" y="56" type="line"/>
      <point x="541" y="12" type="line"/>
      <point x="521" y="-2"/>
      <point x="479" y="-14"/>
      <point x="459" y="-14" type="qcurve"/>
      <point x="421" y="-14"/>
      <point x="361" y="28"/>
      <point x="353" y="66" type="qcurve"/>
      <point x="335" y="66" type="line"/>
      <point x="326" y="49"/>
      <point x="302" y="20"/>
      <point x="267" y="-1"/>
      <point x="220" y="-14"/>
      <point x="188" y="-14" type="qcurve"/>
      <point x="149" y="-14"/>
      <point x="83" y="17"/>
      <point x="34" y="72"/>
      <point x="6" y="146"/>
      <point x="6" y="190" type="qcurve"/>
      <point x="6" y="257"/>
      <point x="42" y="373"/>
      <point x="110" y="460"/>
      <point x="209" y="510"/>
      <point x="271" y="510" type="qcurve"/>
      <point x="324" y="510"/>
      <point x="390" y="462"/>
      <point x="400" y="424" type="qcurve"/>
      <point x="418" y="424" type="line"/>
      <point x="442" y="538" type="line"/>
      <point x="271" y="538" type="line"/>
      <point x="271" y="652" type="line"/>
      <point x="466" y="652" type="line"/>
      <point x="479" y="714" type="line"/>
      <point x="606" y="714" type="line"/>
      <point x="593" y="652" type="line"/>
      <point x="640" y="652" type="line"/>
      <point x="640" y="538" type="line"/>
      <point x="568" y="538" type="line"/>
      <point x="544" y="424" type="line"/>
    </contour>
    <contour>
      <point x="237" y="106" type="qcurve"/>
      <point x="273" y="106"/>
      <point x="329" y="135"/>
      <point x="366" y="183"/>
      <point x="386" y="248"/>
      <point x="386" y="284" type="qcurve"/>
      <point x="386" y="331"/>
      <point x="332" y="390"/>
      <point x="287" y="390" type="qcurve"/>
      <point x="251" y="390"/>
      <point x="195" y="361"/>
      <point x="157" y="313"/>
      <point x="137" y="248"/>
      <point x="137" y="212" type="qcurve"/>
      <point x="137" y="170"/>
      <point x="186" y="106"/>
    </contour>
  </outline>
</glyph>
<glyph name="Eogonek" format="1">
  <advance width="612"/>
  <unicode hex="0118"/>
  <outline>
    <contour>
      <point x="18" y="12" type="line"/>
      <point x="164" y="700" type="line"/>
      <point x="579" y="700" type="line"/>
      <point x="579" y="574" type="line"/>
      <point x="269" y="574" type="line"/>
      <point x="235" y="414" type="line"/>
      <point x="506" y="414" type="line"/>
      <point x="506" y="288" type="line"/>
      <point x="208" y="288" type="line"/>
      <point x="174" y="126" type="line"/>
      <point x="469" y="126" type="line"/>
      <point x="469" y="0" type="line"/>
      <point x="443" y="-56" type="line"/>
      <point x="441" y="-60"/>
      <point x="440" y="-65"/>
      <point x="440" y="-70" type="qcurve"/>
      <point x="440" y="-86"/>
      <point x="459" y="-86" type="qcurve"/>
      <point x="496" y="-86" type="line"/>
      <point x="496" y="-170" type="line"/>
      <point x="414" y="-170" type="line"/>
      <point x="382" y="-170"/>
      <point x="344" y="-138"/>
      <point x="344" y="-109" type="qcurve"/>
      <point x="344" y="-89"/>
      <point x="354" y="-66" type="qcurve"/>
      <point x="383" y="0" type="line"/>
      <point x="18" y="0" type="line"/>
    </contour>
  </outline>
</glyph>
<glyph name="uni0122" format="1">
  <advance width="612"/>
  <unicode hex="0122"/>
  <outline>
    <contour>
      <point x="105" y="-134" type="qcurve"/>
      <point x="105" y="-115"/>
      <point x="119" y="-82"/>
      <point x="144" y="-58"/>
      <point x="177" y="-44"/>
      <point x="196" y="-44" type="qcurve"/>
      <point x="214" y="-44"/>
      <point x="247" y="-58"/>
      <point x="272" y="-83"/>
      <point x="287" y="-116"/>
      <point x="287" y="-135" type="qcurve"/>
      <point x="287" y="-140"/>
      <point x="286" y="-150"/>
      <point x="285" y="-155" type="qcurve"/>
      <point x="261" y="-269" type="line"/>
      <point x="253" y="-304"/>
      <point x="199" y="-338"/>
      <point x="160" y="-338" type="qcurve"/>
      <point x="112" y="-338" type="line"/>
      <point x="112" y="-260" type="line"/>
      <point x="154" y="-260" type="line"/>
      <point x="171" y="-260"/>
      <point x="188" y="-251"/>
      <point x="190" y="-237" type="qcurve"/>
      <point x="193" y="-218" type="line"/>
      <point x="177" y="-218"/>
      <point x="145" y="-208"/>
      <point x="120" y="-187"/>
      <point x="105" y="-156"/>
    </contour>
    <component base="G"/>
  </outline>
</glyph>
<glyph name="uni0123" format="1">
  <advance width="612"/>
  <unicode hex="0123"/>
  <outline>
    <contour>
      <point x="435" y="664" type="qcurve"/>
      <point x="435" y="625"/>
      <point x="382" y="574"/>
      <point x="345" y="574" type="qcurve"/>
      <point x="326" y="574"/>
      <point x="293" y="588"/>
      <point x="268" y="613"/>
      <point x="254" y="646"/>
      <point x="254" y="665" type="qcurve"/>
      <point x="254" y="670"/>
      <point x="255" y="679"/>
      <point x="256" y="684" type="qcurve"/>
      <point x="279" y="798" type="line"/>
      <point x="287" y="834"/>
      <point x="341" y="868"/>
      <point x="380" y="868" type="qcurve"/>
      <point x="453" y="868" type="line"/>
      <point x="453" y="790" type="line"/>
      <point x="386" y="790" type="line"/>
      <point x="370" y="790"/>
      <point x="353" y="780"/>
      <point x="350" y="766" type="qcurve"/>
      <point x="347" y="748" type="line"/>
      <point x="363" y="748"/>
      <point x="395" y="739"/>
      <point x="420" y="718"/>
      <point x="435" y="686"/>
    </contour>
    <component base="g"/>
  </outline>
</glyph>
<glyph name="iogonek" format="1">
  <advance width="612"/>
  <unicode hex="012F"/>
  <outline>
    <contour>
      <point x="228" y="-170" type="line"/>
      <point x="192" y="-170"/>
      <point x="149" y="-125"/>
      <point x="149" y="-95" type="qcurve"/>
      <point x="149" y="-76"/>
      <point x="169" y="-39"/>
      <point x="190" y="-23" type="qcurve"/>
      <point x="230" y="6" type="line"/>
      <point x="211" y="20"/>
      <point x="189" y="62"/>
      <point x="189" y="91" type="qcurve"/>
      <point x="189" y="110"/>
      <point x="193" y="126" type="qcurve"/>
      <point x="253" y="377" type="line"/>
      <point x="243" y="384" type="line"/>
      <point x="109" y="292" type="line"/>
      <point x="46" y="386" type="line"/>
      <point x="191" y="484" type="line"/>
      <point x="211" y="498"/>
      <point x="253" y="510"/>
      <point x="273" y="510" type="qcurve"/>
      <point x="295" y="510"/>
      <point x="335" y="495"/>
      <point x="365" y="468"/>
      <point x="382" y="429"/>
      <point x="382" y="405" type="qcurve"/>
      <point x="382" y="386"/>
      <point x="378" y="370" type="qcurve"/>
      <point x="318" y="119" type="line"/>
      <point x="328" y="112" type="line"/>
      <point x="462" y="204" type="line"/>
      <point x="525" y="110" type="line"/>
      <point x="280" y="-58" type="line"/>
      <point x="272" y="-63"/>
      <point x="272" y="-72" type="qcurve"/>
      <point x="272" y="-86"/>
      <point x="289" y="-86" type="qcurve"/>
      <point x="352" y="-86" type="line"/>
      <point x="352" y="-170" type="line"/>
    </contour>
    <contour>
      <point x="467" y="643" type="qcurve"/>
      <point x="467" y="623"/>
      <point x="452" y="588"/>
      <point x="426" y="563"/>
      <point x="391" y="548"/>
      <point x="372" y="548" type="qcurve"/>
      <point x="352" y="548"/>
      <point x="318" y="563"/>
      <point x="292" y="588"/>
      <point x="277" y="623"/>
      <point x="277" y="643" type="qcurve"/>
      <point x="277" y="663"/>
      <point x="292" y="698"/>
      <point x="318" y="723"/>
      <point x="352" y="738"/>
      <point x="372" y="738" type="qcurve"/>
      <point x="391" y="738"/>
      <point x="426" y="723"/>
      <point x="452" y="698"/>
      <point x="467" y="663"/>
    </contour>
  </outline>
</glyph>
<glyph name="uni0136" format="1">
  <advance width="612"/>
  <unicode hex="0136"/>
  <outline>
    <contour>
      <point x="146" y="-134" type="qcurve"/>
      <point x="146" y="-115"/>
      <point x="160" y="-82"/>
      <point x="185" y="-58"/>
      <point x="218" y="-44"/>
      <point x="237" y="-44" type="qcurve"/>
      <point x="255" y="-44"/>
      <point x="288" y="-58"/>
      <point x="313" y="-83"/>
      <point x="328" y="-116"/>
      <point x="328" y="-135" type="qcurve"/>
      <point x="328" y="-140"/>
      <point x="327" y="-150"/>
      <point x="326" y="-155" type="qcurve"/>
      <point x="302" y="-269" type="line"/>
      <point x="294" y="-304"/>
      <point x="240" y="-338"/>
      <point x="201" y="-338" type="qcurve"/>
      <point x="146" y="-338" type="line"/>
      <point x="146" y="-260" type="line"/>
      <point x="195" y="-260" type="line"/>
      <point x="212" y="-260"/>
      <point x="229" y="-251"/>
      <point x="231" y="-237" type="qcurve"/>
      <point x="234" y="-218" type="line"/>
      <point x="218" y="-218"/>
      <point x="186" y="-208"/>
      <point x="161" y="-187"/>
      <point x="146" y="-156"/>
    </contour>
    <component base="K"/>
  </outline>
</glyph>
<glyph name="uni0137" format="1">
  <advance width="612"/>
  <unicode hex="0137"/>
  <outline>
    <contour>
      <point x="165" y="-134" type="qcurve"/>
      <point x="165" y="-115"/>
      <point x="179" y="-82"/>
      <point x="204" y="-58"/>
      <point x="237" y="-44"/>
      <point x="256" y="-44" type="qcurve"/>
      <point x="274" y="-44"/>
      <point x="307" y="-58"/>
      <point x="332" y="-83"/>
      <point x="347" y="-116"/>
      <point x="347" y="-135" type="qcurve"/>
      <point x="347" y="-140"/>
      <point x="346" y="-150"/>
      <point x="345" y="-155" type="qcurve"/>
      <point x="321" y="-269" type="line"/>
      <point x="313" y="-304"/>
      <point x="259" y="-338"/>
      <point x="220" y="-338" type="qcurve"/>
      <point x="172" y="-338" type="line"/>
      <point x="172" y="-260" type="line"/>
      <point x="214" y="-260" type="line"/>
      <point x="231" y="-260"/>
      <point x="248" y="-251"/>
      <point x="250" y="-237" type="qcurve"/>
      <point x="253" y="-218" type="line"/>
      <point x="237" y="-218"/>
      <point x="205" y="-208"/>
      <point x="180" y="-187"/>
      <point x="165" y="-156"/>
    </contour>
    <component base="k" xOffset="6"/>
  </outline>
</glyph>
<glyph name="uni013C" format="1">
  <advance width="612"/>
  <unicode hex="013C"/>
  <outline>
    <contour>
      <point x="142" y="-134" type="qcurve"/>
      <point x="142" y="-115"/>
      <point x="156" y="-82"/>
      <point x="181" y="-58"/>
      <point x="214" y="-44"/>
      <point x="233" y="-44" type="qcurve"/>
      <point x="251" y="-44"/>
      <point x="284" y="-58"/>
      <point x="309" y="-83"/>
      <point x="324" y="-116"/>
      <point x="324" y="-135" type="qcurve"/>
      <point x="324" y="-140"/>
      <point x="323" y="-150"/>
      <point x="322" y="-155" type="qcurve"/>
      <point x="298" y="-269" type="line"/>
      <point x="290" y="-304"/>
      <point x="236" y="-338"/>
      <point x="197" y="-338" type="qcurve"/>
      <point x="149" y="-338" type="line"/>
      <point x="149" y="-260" type="line"/>
      <point x="191" y="-260" type="line"/>
      <point x="208" y="-260"/>
      <point x="225" y="-251"/>
      <point x="227" y="-237" type="qcurve"/>
      <point x="230" y="-218" type="line"/>
      <point x="214" y="-218"/>
      <point x="182" y="-208"/>
      <point x="157" y="-187"/>
      <point x="142" y="-156"/>
    </contour>
    <component base="l"/>
  </outline>
</glyph>
<glyph name="lslash" format="1">
  <advance width="612"/>
  <unicode hex="0142"/>
  <outline>
    <contour>
      <point x="115" y="354" type="line"/>
      <point x="248" y="388" type="line"/>
      <point x="295" y="581" type="line"/>
      <point x="285" y="588" type="line"/>
      <point x="151" y="496" type="line"/>
      <point x="88" y="590" type="line"/>
      <point x="233" y="688" type="line"/>
      <point x="253" y="702"/>
      <point x="295" y="714"/>
      <point x="315" y="714" type="qcurve"/>
      <point x="337" y="714"/>
      <point x="377" y="699"/>
      <point x="407" y="672"/>
      <point x="424" y="633"/>
      <point x="424" y="609" type="qcurve"/>
      <point x="424" y="593"/>
      <point x="420" y="574" type="qcurve"/>
      <point x="383" y="422" type="line"/>
      <point x="462" y="442" type="line"/>
      <point x="491" y="331" type="line"/>
      <point x="353" y="296" type="line"/>
      <point x="311" y="119" type="line"/>
      <point x="321" y="112" type="line"/>
      <point x="455" y="204" type="line"/>
      <point x="518" y="110" type="line"/>
      <point x="373" y="12" type="line"/>
      <point x="353" y="-2"/>
      <point x="311" y="-14"/>
      <point x="291" y="-14" type="qcurve"/>
      <point x="269" y="-14"/>
      <point x="229" y="1"/>
      <point x="199" y="28"/>
      <point x="182" y="67"/>
      <point x="182" y="91" type="qcurve"/>
      <point x="182" y="109"/>
      <point x="186" y="126" type="qcurve"/>
      <point x="218" y="262" type="line"/>
      <point x="144" y="243" type="line"/>
    </contour>
  </outline>
</glyph>
<glyph name="napostrophe" format="1">
  <advance width="612"/>
  <unicode hex="0149"/>
  <outline>
    <contour>
      <point x="104" y="736" type="qcurve"/>
      <point x="104" y="775"/>
      <point x="157" y="826"/>
      <point x="195" y="826" type="qcurve"/>
      <point x="213" y="826"/>
      <point x="246" y="812"/>
      <point x="271" y="787"/>
      <point x="286" y="754"/>
      <point x="286" y="735" type="qcurve"/>
      <point x="286" y="730"/>
      <point x="285" y="721"/>
      <point x="284" y="715" type="qcurve"/>
      <point x="261" y="607" type="line"/>
      <point x="253" y="572"/>
      <point x="199" y="538"/>
      <point x="160" y="538" type="qcurve"/>
      <point x="105" y="538" type="line"/>
      <point x="105" y="616" type="line"/>
      <point x="154" y="616" type="line"/>
      <point x="171" y="616"/>
      <point x="188" y="625"/>
      <point x="190" y="639" type="qcurve"/>
      <point x="192" y="652" type="line"/>
      <point x="176" y="652"/>
      <point x="144" y="662"/>
      <point x="119" y="683"/>
      <point x="104" y="714"/>
    </contour>
    <component base="n"/>
  </outline>
</glyph>
<glyph name="OE" format="1">
  <advance width="612"/>
  <unicode hex="0152"/>
  <outline>
    <contour>
      <point x="624" y="700" type="line"/>
      <point x="624" y="574" type="line"/>
      <point x="461" y="574" type="line"/>
      <point x="427" y="414" type="line"/>
      <point x="563" y="414" type="line"/>
      <point x="563" y="288" type="line"/>
      <point x="400" y="288" type="line"/>
      <point x="366" y="126" type="line"/>
      <point x="514" y="126" type="line"/>
      <point x="514" y="0" type="line"/>
      <point x="211" y="0" type="line"/>
      <point x="164" y="0"/>
      <point x="87" y="27"/>
      <point x="32" y="80"/>
      <point x="1" y="156"/>
      <point x="1" y="205" type="qcurve"/>
      <point x="1" y="242"/>
      <point x="10" y="286" type="qcurve"/>
      <point x="37" y="414" type="line"/>
      <point x="69" y="566"/>
      <point x="225" y="700"/>
      <point x="356" y="700" type="qcurve"/>
    </contour>
    <contour>
      <point x="329" y="574" type="line"/>
      <point x="295" y="574"/>
      <point x="243" y="549"/>
      <point x="204" y="507"/>
      <point x="177" y="450"/>
      <point x="170" y="416" type="qcurve"/>
      <point x="141" y="284" type="line"/>
      <point x="138" y="269"/>
      <point x="134" y="241"/>
      <point x="134" y="228" type="qcurve"/>
      <point x="134" y="182"/>
      <point x="180" y="126"/>
      <point x="234" y="126" type="qcurve"/>
    </contour>
  </outline>
</glyph>
<glyph name="oe" format="1">
  <advance width="612"/>
  <unicode hex="0153"/>
  <outline>
    <contour>
      <point x="33" y="204" type="qcurve"/>
      <point x="33" y="271"/>
      <point x="84" y="384"/>
      <point x="171" y="465"/>
      <point x="286" y="510"/>
      <point x="350" y="510" type="qcurve"/>
      <point x="402" y="510"/>
      <point x="484" y="478"/>
      <point x="541" y="423"/>
      <point x="570" y="347"/>
      <point x="570" y="302" type="qcurve"/>
      <point x="570" y="287"/>
      <point x="566" y="254"/>
      <point x="563" y="240" type="qcurve"/>
      <point x="552" y="188" type="line"/>
      <point x="360" y="188" type="line"/>
      <point x="343" y="110" type="line"/>
      <point x="389" y="110"/>
      <point x="424" y="152" type="qcurve"/>
      <point x="512" y="88" type="line"/>
      <point x="465" y="35"/>
      <point x="348" y="-14"/>
      <point x="263" y="-14" type="qcurve"/>
      <point x="218" y="-14"/>
      <point x="135" y="14"/>
      <point x="71" y="69"/>
      <point x="33" y="151"/>
    </contour>
    <contour>
      <point x="275" y="382" type="line"/>
      <point x="215" y="359"/>
      <point x="162" y="265"/>
      <point x="162" y="208" type="qcurve"/>
      <point x="162" y="174"/>
      <point x="192" y="128"/>
      <point x="218" y="116" type="qcurve"/>
    </contour>
    <contour>
      <point x="451" y="308" type="line"/>
      <point x="453" y="314"/>
      <point x="453" y="325" type="qcurve"/>
      <point x="453" y="349"/>
      <point x="425" y="384"/>
      <point x="402" y="386" type="qcurve"/>
      <point x="385" y="308" type="line"/>
    </contour>
  </outline>
</glyph>
<glyph name="uni0156" format="1">
  <advance width="612"/>
  <unicode hex="0156"/>
  <outline>
    <contour>
      <point x="121" y="-134" type="qcurve"/>
      <point x="121" y="-115"/>
      <point x="135" y="-82"/>
      <point x="160" y="-58"/>
      <point x="193" y="-44"/>
      <point x="212" y="-44" type="qcurve"/>
      <point x="230" y="-44"/>
      <point x="263" y="-58"/>
      <point x="288" y="-83"/>
      <point x="303" y="-116"/>
      <point x="303" y="-135" type="qcurve"/>
      <point x="303" y="-140"/>
      <point x="302" y="-150"/>
      <point x="301" y="-155" type="qcurve"/>
      <point x="277" y="-269" type="line"/>
      <point x="269" y="-304"/>
      <point x="215" y="-338"/>
      <point x="176" y="-338" type="qcurve"/>
      <point x="121" y="-338" type="line"/>
      <point x="121" y="-260" type="line"/>
      <point x="170" y="-260" type="line"/>
      <point x="187" y="-260"/>
      <point x="204" y="-251"/>
      <point x="206" y="-237" type="qcurve"/>
      <point x="209" y="-218" type="line"/>
      <point x="193" y="-218"/>
      <point x="161" y="-208"/>
      <point x="136" y="-187"/>
      <point x="121" y="-156"/>
    </contour>
    <component base="R" xOffset="-1"/>
  </outline>
</glyph>
<glyph name="scedilla" format="1">
  <advance width="612"/>
  <unicode hex="015F"/>
  <outline>
    <contour>
      <point x="322" y="396" type="qcurve"/>
      <point x="311" y="396"/>
      <point x="288" y="391"/>
      <point x="268" y="381"/>
      <point x="255" y="364"/>
      <point x="255" y="352" type="qcurve"/>
      <point x="255" y="331"/>
      <point x="303" y="311"/>
      <point x="361" y="304" type="qcurve"/>
      <point x="426" y="296"/>
      <point x="506" y="233"/>
      <point x="506" y="174" type="qcurve"/>
      <point x="506" y="89"/>
      <point x="388" y="-11"/>
      <point x="285" y="-14" type="qcurve"/>
      <point x="271" y="-46" type="line"/>
      <point x="283" y="-46" type="line"/>
      <point x="291" y="-37"/>
      <point x="315" y="-24"/>
      <point x="334" y="-24" type="qcurve"/>
      <point x="363" y="-24"/>
      <point x="401" y="-64"/>
      <point x="401" y="-102" type="qcurve"/>
      <point x="401" y="-153"/>
      <point x="338" y="-212"/>
      <point x="280" y="-212" type="qcurve"/>
      <point x="246" y="-212"/>
      <point x="202" y="-201"/>
      <point x="187" y="-192" type="qcurve"/>
      <point x="224" y="-123" type="line"/>
      <point x="234" y="-130"/>
      <point x="259" y="-138"/>
      <point x="275" y="-138" type="qcurve"/>
      <point x="292" y="-138"/>
      <point x="315" y="-123"/>
      <point x="315" y="-109" type="qcurve"/>
      <point x="315" y="-90"/>
      <point x="297" y="-90" type="qcurve"/>
      <point x="283" y="-90"/>
      <point x="276" y="-104" type="qcurve"/>
      <point x="179" y="-104" type="line"/>
      <point x="179" y="-92" type="line"/>
      <point x="209" y="-7" type="line"/>
      <point x="171" y="2"/>
      <point x="117" y="36"/>
      <point x="81" y="80"/>
      <point x="63" y="128"/>
      <point x="62" y="150" type="qcurve"/>
      <point x="186" y="180" type="line"/>
      <point x="189" y="147"/>
      <point x="239" y="100"/>
      <point x="290" y="100" type="qcurve"/>
      <point x="325" y="100"/>
      <point x="377" y="122"/>
      <point x="377" y="150" type="qcurve"/>
      <point x="377" y="171"/>
      <point x="337" y="196"/>
      <point x="283" y="201" type="qcurve"/>
      <point x="211" y="207"/>
      <point x="126" y="277"/>
      <point x="126" y="335" type="qcurve"/>
      <point x="126" y="377"/>
      <point x="161" y="443"/>
      <point x="219" y="487"/>
      <point x="296" y="510"/>
      <point x="338" y="510" type="qcurve"/>
      <point x="390" y="510"/>
      <point x="460" y="482"/>
      <point x="504" y="440"/>
      <point x="525" y="391"/>
      <point x="528" y="370" type="qcurve"/>
      <point x="406" y="338" type="line"/>
      <point x="402" y="365"/>
      <point x="360" y="396"/>
    </contour>
  </outline>
</glyph>
<glyph name="uni0162" format="1">
  <advance width="612"/>
  <unicode hex="0162"/>
  <outline>
    <contour>
      <point x="100" y="700" type="line"/>
      <point x="604" y="700" type="line"/>
      <point x="604" y="574" type="line"/>
      <point x="418" y="574" type="line"/>
      <point x="296" y="0" type="line"/>
      <point x="233" y="0" type="line"/>
      <point x="223" y="-46" type="line"/>
      <point x="235" y="-46" type="line"/>
      <point x="243" y="-37"/>
      <point x="267" y="-24"/>
      <point x="286" y="-24" type="qcurve"/>
      <point x="315" y="-24"/>
      <point x="353" y="-64"/>
      <point x="353" y="-102" type="qcurve"/>
      <point x="353" y="-153"/>
      <point x="290" y="-212"/>
      <point x="232" y="-212" type="qcurve"/>
      <point x="198" y="-212"/>
      <point x="154" y="-201"/>
      <point x="139" y="-192" type="qcurve"/>
      <point x="176" y="-123" type="line"/>
      <point x="186" y="-130"/>
      <point x="211" y="-138"/>
      <point x="227" y="-138" type="qcurve"/>
      <point x="244" y="-138"/>
      <point x="267" y="-123"/>
      <point x="267" y="-109" type="qcurve"/>
      <point x="267" y="-90"/>
      <point x="249" y="-90" type="qcurve"/>
      <point x="235" y="-90"/>
      <point x="228" y="-104" type="qcurve"/>
      <point x="144" y="-104" type="line"/>
      <point x="144" y="-92" type="line"/>
      <point x="286" y="574" type="line"/>
      <point x="100" y="574" type="line"/>
    </contour>
  </outline>
</glyph>
<glyph name="tcaron" format="1">
  <advance width="612"/>
  <unicode hex="0165"/>
  <outline>
    <contour>
      <point x="218" y="376" type="line"/>
      <point x="78" y="376" type="line"/>
      <point x="78" y="496" type="line"/>
      <point x="244" y="496" type="line"/>
      <point x="290" y="714" type="line"/>
      <point x="416" y="714" type="line"/>
      <point x="370" y="496" type="line"/>
      <point x="414" y="496" type="line"/>
      <point x="414" y="376" type="line"/>
      <point x="344" y="376" type="line"/>
      <point x="288" y="119" type="line"/>
      <point x="298" y="112" type="line"/>
      <point x="432" y="204" type="line"/>
      <point x="495" y="110" type="line"/>
      <point x="350" y="12" type="line"/>
      <point x="312" y="-14"/>
      <point x="269" y="-14" type="qcurve"/>
      <point x="247" y="-14"/>
      <point x="207" y="1"/>
      <point x="177" y="29"/>
      <point x="159" y="69"/>
      <point x="159" y="94" type="qcurve"/>
      <point x="159" y="102"/>
      <point x="161" y="115"/>
      <point x="163" y="126" type="qcurve"/>
    </contour>
    <contour>
      <point x="450" y="606" type="qcurve"/>
      <point x="450" y="626"/>
      <point x="465" y="661"/>
      <point x="491" y="686"/>
      <point x="525" y="700"/>
      <point x="545" y="700" type="qcurve"/>
      <point x="564" y="700"/>
      <point x="599" y="685"/>
      <point x="625" y="660"/>
      <point x="640" y="625"/>
      <point x="640" y="605" type="qcurve"/>
      <point x="640" y="600"/>
      <point x="639" y="590"/>
      <point x="638" y="585" type="qcurve"/>
      <point x="609" y="449" type="line"/>
      <point x="601" y="411"/>
      <point x="545" y="376"/>
      <point x="504" y="376" type="qcurve"/>
      <point x="450" y="376" type="line"/>
      <point x="450" y="454" type="line"/>
      <point x="498" y="454" type="line"/>
      <point x="529" y="454"/>
      <point x="535" y="482" type="qcurve"/>
      <point x="542" y="516" type="line"/>
      <point x="525" y="516"/>
      <point x="492" y="527"/>
      <point x="466" y="549"/>
      <point x="450" y="583"/>
    </contour>
  </outline>
</glyph>
<glyph name="Tbar" format="1">
  <advance width="612"/>
  <unicode hex="0166"/>
  <outline>
    <contour>
      <point x="100" y="700" type="line"/>
      <point x="604" y="700" type="line"/>
      <point x="604" y="574" type="line"/>
      <point x="418" y="574" type="line"/>
      <point x="391" y="449" type="line"/>
      <point x="516" y="449" type="line"/>
      <point x="516" y="329" type="line"/>
      <point x="366" y="329" type="line"/>
      <point x="296" y="0" type="line"/>
      <point x="164" y="0" type="line"/>
      <point x="234" y="329" type="line"/>
      <point x="108" y="329" type="line"/>
      <point x="108" y="449" type="line"/>
      <point x="259" y="449" type="line"/>
      <point x="286" y="574" type="line"/>
      <point x="100" y="574" type="line"/>
    </contour>
  </outline>
</glyph>
<glyph name="Uogonek" format="1">
  <advance width="612"/>
  <unicode hex="0172"/>
  <outline>
    <contour>
      <point x="626" y="700" type="line"/>
      <point x="529" y="242" type="line"/>
      <point x="498" y="93"/>
      <point x="417" y="33" type="qcurve"/>
      <point x="295" y="-58" type="line"/>
      <point x="287" y="-64"/>
      <point x="287" y="-72" type="qcurve"/>
      <point x="287" y="-86"/>
      <point x="304" y="-86" type="qcurve"/>
      <point x="367" y="-86" type="line"/>
      <point x="367" y="-170" type="line"/>
      <point x="243" y="-170" type="line"/>
      <point x="208" y="-170"/>
      <point x="168" y="-128"/>
      <point x="168" y="-99" type="qcurve"/>
      <point x="168" y="-79"/>
      <point x="188" y="-40"/>
      <point x="210" y="-23" type="qcurve"/>
      <point x="222" y="-13" type="line"/>
      <point x="181" y="-10"/>
      <point x="111" y="19"/>
      <point x="61" y="70"/>
      <point x="33" y="142"/>
      <point x="33" y="187" type="qcurve"/>
      <point x="33" y="203"/>
      <point x="35" y="234"/>
      <point x="40" y="254" type="qcurve"/>
      <point x="134" y="700" type="line"/>
      <point x="266" y="700" type="line"/>
      <point x="169" y="242" type="line"/>
      <point x="167" y="231"/>
      <point x="164" y="211"/>
      <point x="164" y="201" type="qcurve"/>
      <point x="164" y="158"/>
      <point x="211" y="110"/>
      <point x="258" y="110" type="qcurve"/>
      <point x="318" y="110"/>
      <point x="383" y="174"/>
      <point x="397" y="242" type="qcurve"/>
      <point x="494" y="700" type="line"/>
    </contour>
  </outline>
</glyph>
<glyph name="uogonek" format="1">
  <advance width="612"/>
  <unicode hex="0173"/>
  <outline>
    <contour>
      <point x="223" y="496" type="line"/>
      <point x="161" y="208" type="line"/>
      <point x="157" y="191"/>
      <point x="157" y="175" type="qcurve"/>
      <point x="157" y="137"/>
      <point x="199" y="100"/>
      <point x="234" y="100" type="qcurve"/>
      <point x="287" y="100"/>
      <point x="344" y="169"/>
      <point x="358" y="232" type="qcurve"/>
      <point x="414" y="496" type="line"/>
      <point x="540" y="496" type="line"/>
      <point x="458" y="118" type="line"/>
      <point x="469" y="112" type="line"/>
      <point x="505" y="138" type="line"/>
      <point x="568" y="46" type="line"/>
      <point x="424" y="-58" type="line"/>
      <point x="416" y="-64"/>
      <point x="416" y="-72" type="qcurve"/>
      <point x="416" y="-77"/>
      <point x="425" y="-86"/>
      <point x="433" y="-86" type="qcurve"/>
      <point x="505" y="-86" type="line"/>
      <point x="505" y="-170" type="line"/>
      <point x="372" y="-170" type="line"/>
      <point x="336" y="-170"/>
      <point x="294" y="-125"/>
      <point x="294" y="-96" type="qcurve"/>
      <point x="294" y="-77"/>
      <point x="313" y="-39"/>
      <point x="334" y="-23" type="qcurve"/>
      <point x="373" y="7" type="line"/>
      <point x="357" y="19"/>
      <point x="336" y="55"/>
      <point x="334" y="78" type="qcurve"/>
      <point x="316" y="78" type="line"/>
      <point x="294" y="27"/>
      <point x="219" y="-14"/>
      <point x="172" y="-14" type="qcurve"/>
      <point x="107" y="-14"/>
      <point x="25" y="65"/>
      <point x="25" y="136" type="qcurve"/>
      <point x="25" y="161"/>
      <point x="31" y="190" type="qcurve"/>
      <point x="97" y="496" type="line"/>
    </contour>
  </outline>
</glyph>
<glyph name="uni01A0" format="1">
  <advance width="612"/>
  <unicode hex="01A0"/>
  <outline>
    <contour>
      <point x="464" y="610" type="qcurve"/>
      <point x="464" y="647"/>
      <point x="517" y="700"/>
      <point x="554" y="700" type="qcurve"/>
      <point x="591" y="700"/>
      <point x="635" y="653"/>
      <point x="635" y="617" type="qcurve"/>
      <point x="635" y="605"/>
      <point x="632" y="592" type="qcurve"/>
      <point x="609" y="484" type="line"/>
      <point x="600" y="441"/>
      <point x="546" y="402"/>
      <point x="501" y="402" type="qcurve"/>
      <point x="422" y="402" type="line"/>
      <point x="374" y="171" type="line"/>
      <point x="366" y="131"/>
      <point x="332" y="63"/>
      <point x="279" y="14"/>
      <point x="206" y="-14"/>
      <point x="158" y="-14" type="qcurve"/>
      <point x="116" y="-14"/>
      <point x="52" y="10"/>
      <point x="8" y="52"/>
      <point x="-15" y="109"/>
      <point x="-15" y="142" type="qcurve"/>
      <point x="-15" y="153"/>
      <point x="-12" y="174"/>
      <point x="-10" y="185" type="qcurve"/>
      <point x="62" y="529" type="line"/>
      <point x="70" y="569"/>
      <point x="104" y="637"/>
      <point x="157" y="686"/>
      <point x="230" y="714"/>
      <point x="278" y="714" type="qcurve"/>
      <point x="320" y="714"/>
      <point x="384" y="690"/>
      <point x="428" y="648"/>
      <point x="451" y="591"/>
      <point x="451" y="558" type="qcurve"/>
      <point x="451" y="547"/>
      <point x="448" y="526"/>
      <point x="446" y="515" type="qcurve"/>
      <point x="438" y="480" type="line"/>
      <point x="502" y="480" type="line"/>
      <point x="531" y="480"/>
      <point x="537" y="510" type="qcurve"/>
      <point x="540" y="526" type="line"/>
      <point x="526" y="526"/>
      <point x="499" y="538"/>
      <point x="478" y="560"/>
      <point x="464" y="591"/>
    </contour>
    <contour>
      <point x="174" y="112" type="qcurve"/>
      <point x="208" y="112"/>
      <point x="238" y="152"/>
      <point x="244" y="181" type="qcurve"/>
      <point x="315" y="515" type="line"/>
      <point x="316" y="520"/>
      <point x="317" y="528"/>
      <point x="317" y="534" type="qcurve"/>
      <point x="317" y="559"/>
      <point x="288" y="588"/>
      <point x="262" y="588" type="qcurve"/>
      <point x="228" y="588"/>
      <point x="198" y="548"/>
      <point x="192" y="519" type="qcurve"/>
      <point x="121" y="185" type="line"/>
      <point x="120" y="180"/>
      <point x="119" y="172"/>
      <point x="119" y="166" type="qcurve"/>
      <point x="119" y="141"/>
      <point x="148" y="112"/>
    </contour>
  </outline>
</glyph>
<glyph name="uni01A1" format="1">
  <advance width="612"/>
  <unicode hex="01A1"/>
  <outline>
    <contour>
      <point x="460" y="406" type="qcurve"/>
      <point x="460" y="443"/>
      <point x="513" y="496"/>
      <point x="550" y="496" type="qcurve"/>
      <point x="587" y="496"/>
      <point x="631" y="449"/>
      <point x="631" y="413" type="qcurve"/>
      <point x="631" y="403"/>
      <point x="628" y="388" type="qcurve"/>
      <point x="606" y="286" type="line"/>
      <point x="597" y="243"/>
      <point x="543" y="204"/>
      <point x="498" y="204" type="qcurve"/>
      <point x="411" y="204" type="line"/>
      <point x="388" y="98"/>
      <point x="262" y="-14"/>
      <point x="177" y="-14" type="qcurve"/>
      <point x="103" y="-14"/>
      <point x="10" y="81"/>
      <point x="10" y="169" type="qcurve"/>
      <point x="10" y="186"/>
      <point x="14" y="222"/>
      <point x="18" y="242" type="qcurve"/>
      <point x="21" y="254" type="line"/>
      <point x="47" y="375"/>
      <point x="168" y="510"/>
      <point x="269" y="510" type="qcurve"/>
      <point x="350" y="510"/>
      <point x="433" y="421"/>
      <point x="433" y="340" type="qcurve"/>
      <point x="433" y="326"/>
      <point x="430" y="298"/>
      <point x="428" y="282" type="qcurve"/>
      <point x="499" y="282" type="line"/>
      <point x="528" y="282"/>
      <point x="534" y="312" type="qcurve"/>
      <point x="536" y="322" type="line"/>
      <point x="522" y="322"/>
      <point x="495" y="334"/>
      <point x="474" y="356"/>
      <point x="460" y="387"/>
    </contour>
    <contour>
      <point x="196" y="106" type="qcurve"/>
      <point x="265" y="106"/>
      <point x="288" y="212" type="qcurve"/>
      <point x="299" y="266" type="line"/>
      <point x="303" y="285"/>
      <point x="306" y="310"/>
      <point x="306" y="322" type="qcurve"/>
      <point x="306" y="358"/>
      <point x="273" y="390"/>
      <point x="247" y="390" type="qcurve"/>
      <point x="213" y="390"/>
      <point x="164" y="335"/>
      <point x="152" y="276" type="qcurve"/>
      <point x="142" y="230" type="line"/>
      <point x="136" y="201"/>
      <point x="136" y="180" type="qcurve"/>
      <point x="136" y="141"/>
      <point x="170" y="106"/>
    </contour>
  </outline>
</glyph>
<glyph name="uni01AF" format="1">
  <advance width="612"/>
  <unicode hex="01AF"/>
  <outline>
    <contour>
      <point x="490" y="610" type="qcurve"/>
      <point x="490" y="647"/>
      <point x="543" y="700"/>
      <point x="580" y="700" type="qcurve"/>
      <point x="617" y="700"/>
      <point x="661" y="653"/>
      <point x="661" y="617" type="qcurve"/>
      <point x="661" y="605"/>
      <point x="658" y="592" type="qcurve"/>
      <point x="635" y="484" type="line"/>
      <point x="626" y="441"/>
      <point x="572" y="402"/>
      <point x="527" y="402" type="qcurve"/>
      <point x="414" y="402" type="line"/>
      <point x="368" y="182" type="line"/>
      <point x="357" y="129"/>
      <point x="317" y="54"/>
      <point x="262" y="7"/>
      <point x="194" y="-14"/>
      <point x="155" y="-14" type="qcurve"/>
      <point x="76" y="-14"/>
      <point x="-16" y="70"/>
      <point x="-16" y="150" type="qcurve"/>
      <point x="-16" y="181"/>
      <point x="-9" y="213" type="qcurve"/>
      <point x="93" y="700" type="line"/>
      <point x="225" y="700" type="line"/>
      <point x="117" y="189" type="line"/>
      <point x="114" y="175"/>
      <point x="114" y="165" type="qcurve"/>
      <point x="114" y="140"/>
      <point x="141" y="112"/>
      <point x="168" y="112" type="qcurve"/>
      <point x="192" y="112"/>
      <point x="228" y="145"/>
      <point x="236" y="184" type="qcurve"/>
      <point x="345" y="700" type="line"/>
      <point x="477" y="700" type="line"/>
      <point x="431" y="480" type="line"/>
      <point x="528" y="480" type="line"/>
      <point x="557" y="480"/>
      <point x="563" y="510" type="qcurve"/>
      <point x="566" y="526" type="line"/>
      <point x="552" y="526"/>
      <point x="525" y="538"/>
      <point x="504" y="560"/>
      <point x="490" y="591"/>
    </contour>
  </outline>
</glyph>
<glyph name="uni0237" format="1">
  <advance width="612"/>
  <unicode hex="0237"/>
  <outline>
    <contour>
      <point x="357" y="-98" type="line"/>
      <point x="346" y="-150"/>
      <point x="280" y="-200"/>
      <point x="235" y="-200" type="qcurve"/>
      <point x="0" y="-200" type="line"/>
      <point x="0" y="-80" type="line"/>
      <point x="205" y="-80" type="line"/>
      <point x="234" y="-80"/>
      <point x="242" y="-47" type="qcurve"/>
      <point x="336" y="377" type="line"/>
      <point x="326" y="384" type="line"/>
      <point x="192" y="292" type="line"/>
      <point x="129" y="386" type="line"/>
      <point x="274" y="484" type="line"/>
      <point x="313" y="510"/>
      <point x="356" y="510" type="qcurve"/>
      <point x="378" y="510"/>
      <point x="417" y="495"/>
      <point x="447" y="468"/>
      <point x="464" y="427"/>
      <point x="464" y="402" type="qcurve"/>
      <point x="464" y="385"/>
      <point x="461" y="370" type="qcurve"/>
    </contour>
  </outline>
</glyph>
<glyph name="uni0252" format="1">
  <advance width="612"/>
  <unicode hex="0252"/>
  <outline>
    <contour>
      <point x="115" y="377" type="line"/>
      <point x="105" y="384" type="line"/>
      <point x="57" y="350" type="line"/>
      <point x="-6" y="444" type="line"/>
      <point x="53" y="484" type="line"/>
      <point x="92" y="510"/>
      <point x="135" y="510" type="qcurve"/>
      <point x="173" y="510"/>
      <point x="233" y="468"/>
      <point x="241" y="430" type="qcurve"/>
      <point x="259" y="430" type="line"/>
      <point x="276" y="462"/>
      <point x="344" y="510"/>
      <point x="401" y="510" type="qcurve"/>
      <point x="442" y="510"/>
      <point x="511" y="479"/>
      <point x="560" y="425"/>
      <point x="588" y="350"/>
      <point x="588" y="306" type="qcurve"/>
      <point x="588" y="239"/>
      <point x="552" y="123"/>
      <point x="484" y="36"/>
      <point x="385" y="-14"/>
      <point x="323" y="-14" type="qcurve"/>
      <point x="268" y="-14"/>
      <point x="204" y="30"/>
      <point x="193" y="66" type="qcurve"/>
      <point x="175" y="66" type="line"/>
      <point x="161" y="0" type="line"/>
      <point x="35" y="0" type="line"/>
    </contour>
    <contour>
      <point x="357" y="390" type="qcurve"/>
      <point x="321" y="390"/>
      <point x="265" y="361"/>
      <point x="228" y="313"/>
      <point x="208" y="248"/>
      <point x="208" y="212" type="qcurve"/>
      <point x="208" y="165"/>
      <point x="262" y="106"/>
      <point x="307" y="106" type="qcurve"/>
      <point x="343" y="106"/>
      <point x="399" y="135"/>
      <point x="437" y="183"/>
      <point x="457" y="248"/>
      <point x="457" y="284" type="qcurve"/>
      <point x="457" y="326"/>
      <point x="408" y="390"/>
    </contour>
  </outline>
</glyph>
<glyph name="uni0254" format="1">
  <advance width="612"/>
  <unicode hex="0254"/>
  <outline>
    <contour>
      <point x="54" y="318" type="line"/>
      <point x="82" y="407"/>
      <point x="218" y="510"/>
      <point x="334" y="510" type="qcurve"/>
      <point x="382" y="510"/>
      <point x="464" y="482"/>
      <point x="524" y="428"/>
      <point x="558" y="351"/>
      <point x="558" y="302" type="qcurve"/>
      <point x="558" y="234"/>
      <point x="516" y="118"/>
      <point x="436" y="34"/>
      <point x="318" y="-14"/>
      <point x="243" y="-14" type="qcurve"/>
      <point x="189" y="-14"/>
      <point x="107" y="16"/>
      <point x="53" y="69"/>
      <point x="25" y="143"/>
      <point x="25" y="188" type="qcurve"/>
      <point x="153" y="213" type="line"/>
      <point x="153" y="162"/>
      <point x="204" y="106"/>
      <point x="261" y="106" type="qcurve"/>
      <point x="297" y="106"/>
      <point x="358" y="133"/>
      <point x="403" y="181"/>
      <point x="428" y="246"/>
      <point x="428" y="285" type="qcurve"/>
      <point x="428" y="336"/>
      <point x="367" y="390"/>
      <point x="320" y="390" type="qcurve"/>
      <point x="261" y="390"/>
      <point x="189" y="338"/>
      <point x="171" y="287" type="qcurve"/>
    </contour>
  </outline>
</glyph>
<glyph name="uni0258" format="1">
  <advance width="612"/>
  <unicode hex="0258"/>
  <outline>
    <contour>
      <point x="30" y="207" type="line"/>
      <point x="44" y="274" type="line"/>
      <point x="53" y="319"/>
      <point x="95" y="404"/>
      <point x="163" y="470"/>
      <point x="258" y="510"/>
      <point x="321" y="510" type="qcurve"/>
      <point x="370" y="510"/>
      <point x="452" y="481"/>
      <point x="509" y="422"/>
      <point x="541" y="333"/>
      <point x="541" y="272" type="qcurve"/>
      <point x="541" y="214"/>
      <point x="498" y="110"/>
      <point x="419" y="32"/>
      <point x="306" y="-14"/>
      <point x="237" y="-14" type="qcurve"/>
      <point x="189" y="-14"/>
      <point x="117" y="9"/>
      <point x="67" y="44"/>
      <point x="38" y="86"/>
      <point x="33" y="105" type="qcurve"/>
      <point x="154" y="164" type="line"/>
      <point x="167" y="136"/>
      <point x="210" y="106"/>
      <point x="252" y="106" type="qcurve"/>
      <point x="312" y="106"/>
      <point x="383" y="159"/>
      <point x="394" y="207" type="qcurve"/>
    </contour>
    <contour>
      <point x="311" y="396" type="qcurve"/>
      <point x="257" y="396"/>
      <point x="195" y="350"/>
      <point x="181" y="315" type="qcurve"/>
      <point x="415" y="315" type="line"/>
      <point x="411" y="346"/>
      <point x="359" y="396"/>
    </contour>
  </outline>
</glyph>
<glyph name="uni026F" format="1">
  <advance width="612"/>
  <unicode hex="026F"/>
  <outline>
    <contour>
      <point x="228" y="496" type="line"/>
      <point x="154" y="148" type="line"/>
      <point x="152" y="138"/>
      <point x="152" y="132" type="qcurve"/>
      <point x="152" y="106"/>
      <point x="179" y="106" type="qcurve"/>
      <point x="195" y="106"/>
      <point x="211" y="127"/>
      <point x="214" y="142" type="qcurve"/>
      <point x="290" y="496" type="line"/>
      <point x="416" y="496" type="line"/>
      <point x="342" y="148" type="line"/>
      <point x="340" y="138"/>
      <point x="340" y="133" type="qcurve"/>
      <point x="340" y="106"/>
      <point x="366" y="106" type="qcurve"/>
      <point x="394" y="106"/>
      <point x="402" y="142" type="qcurve"/>
      <point x="478" y="496" type="line"/>
      <point x="603" y="496" type="line"/>
      <point x="523" y="119" type="line"/>
      <point x="533" y="112" type="line"/>
      <point x="567" y="136" type="line"/>
      <point x="630" y="42" type="line"/>
      <point x="585" y="12" type="line"/>
      <point x="545" y="-14"/>
      <point x="504" y="-14" type="qcurve"/>
      <point x="472" y="-14"/>
      <point x="419" y="18"/>
      <point x="406" y="48" type="qcurve"/>
      <point x="388" y="48" type="line"/>
      <point x="372" y="12"/>
      <point x="321" y="-14"/>
      <point x="293" y="-14" type="qcurve"/>
      <point x="260" y="-14"/>
      <point x="217" y="22"/>
      <point x="212" y="48" type="qcurve"/>
      <point x="194" y="48" type="line"/>
      <point x="183" y="21"/>
      <point x="138" y="-14"/>
      <point x="102" y="-14" type="qcurve"/>
      <point x="60" y="-14"/>
      <point x="15" y="40"/>
      <point x="15" y="78" type="qcurve"/>
      <point x="15" y="89"/>
      <point x="18" y="104" type="qcurve"/>
      <point x="102" y="496" type="line"/>
    </contour>
  </outline>
</glyph>
<glyph name="uni0287" format="1">
  <advance width="612"/>
  <unicode hex="0287"/>
  <outline>
    <contour>
      <point x="389" y="120" type="line"/>
      <point x="529" y="120" type="line"/>
      <point x="529" y="0" type="line"/>
      <point x="363" y="0" type="line"/>
      <point x="321" y="-200" type="line"/>
      <point x="195" y="-200" type="line"/>
      <point x="237" y="0" type="line"/>
      <point x="65" y="0" type="line"/>
      <point x="65" y="120" type="line"/>
      <point x="263" y="120" type="line"/>
      <point x="319" y="377" type="line"/>
      <point x="309" y="384" type="line"/>
      <point x="175" y="292" type="line"/>
      <point x="112" y="386" type="line"/>
      <point x="257" y="484" type="line"/>
      <point x="295" y="510"/>
      <point x="338" y="510" type="qcurve"/>
      <point x="360" y="510"/>
      <point x="400" y="495"/>
      <point x="430" y="467"/>
      <point x="448" y="427"/>
      <point x="448" y="402" type="qcurve"/>
      <point x="448" y="394"/>
      <point x="446" y="381"/>
      <point x="444" y="370" type="qcurve"/>
    </contour>
  </outline>
</glyph>
<glyph name="uni028E" format="1">
  <advance width="612"/>
  <unicode hex="028E"/>
  <outline>
    <contour>
      <point x="485" y="125" type="line"/>
      <point x="497" y="121" type="line"/>
      <point x="532" y="167" type="line"/>
      <point x="619" y="96" type="line"/>
      <point x="572" y="36" type="line"/>
      <point x="548" y="5"/>
      <point x="479" y="-18"/>
      <point x="415" y="-3"/>
      <point x="366" y="50"/>
      <point x="361" y="96" type="qcurve"/>
      <point x="328" y="400" type="line"/>
      <point x="310" y="400" type="line"/>
      <point x="127" y="0" type="line"/>
      <point x="-20" y="0" type="line"/>
      <point x="230" y="496" type="line"/>
      <point x="272" y="496" type="line"/>
      <point x="296" y="610" type="line"/>
      <point x="305" y="651"/>
      <point x="364" y="700"/>
      <point x="405" y="700" type="qcurve"/>
      <point x="597" y="700" type="line"/>
      <point x="597" y="580" type="line"/>
      <point x="443" y="580" type="line"/>
      <point x="416" y="580"/>
      <point x="410" y="550" type="qcurve"/>
      <point x="398" y="496" type="line"/>
      <point x="440" y="496" type="line"/>
    </contour>
  </outline>
</glyph>
<glyph name="uni029E" format="1">
  <advance width="612"/>
  <unicode hex="029E"/>
  <outline>
    <contour>
      <point x="564" y="496" type="line"/>
      <point x="416" y="-200" type="line"/>
      <point x="290" y="-200" type="line"/>
      <point x="371" y="182" type="line"/>
      <point x="347" y="182" type="line"/>
      <point x="160" y="0" type="line"/>
      <point x="6" y="0" type="line"/>
      <point x="6" y="12" type="line"/>
      <point x="252" y="242" type="line"/>
      <point x="252" y="260" type="line"/>
      <point x="172" y="392" type="line"/>
      <point x="160" y="392" type="line"/>
      <point x="105" y="354" type="line"/>
      <point x="44" y="442" type="line"/>
      <point x="89" y="476" type="line"/>
      <point x="113" y="494"/>
      <point x="161" y="510"/>
      <point x="183" y="510" type="qcurve"/>
      <point x="218" y="510"/>
      <point x="267" y="479"/>
      <point x="284" y="450" type="qcurve"/>
      <point x="374" y="302" type="line"/>
      <point x="397" y="302" type="line"/>
      <point x="438" y="496" type="line"/>
    </contour>
  </outline>
</glyph>
<glyph name="uni02C9" format="1">
  <advance width="612"/>
  <unicode hex="02C9"/>
  <outline>
    <contour>
      <point x="453" y="570" type="line"/>
      <point x="159" y="570" type="line"/>
      <point x="159" y="672" type="line"/>
      <point x="453" y="672" type="line"/>
    </contour>
  </outline>
</glyph>
<glyph name="ogonek" format="1">
  <advance width="612"/>
  <unicode hex="02DB"/>
  <outline>
    <contour>
      <point x="379" y="30" type="line"/>
      <point x="340" y="-56" type="line"/>
      <point x="338" y="-60"/>
      <point x="337" y="-65"/>
      <point x="337" y="-70" type="qcurve"/>
      <point x="337" y="-86"/>
      <point x="356" y="-86" type="qcurve"/>
      <point x="393" y="-86" type="line"/>
      <point x="393" y="-170" type="line"/>
      <point x="311" y="-170" type="line"/>
      <point x="279" y="-170"/>
      <point x="241" y="-138"/>
      <point x="241" y="-109" type="qcurve"/>
      <point x="241" y="-89"/>
      <point x="251" y="-66" type="qcurve"/>
      <point x="293" y="30" type="line"/>
    </contour>
  </outline>
</glyph>
<glyph name="tilde" format="1">
  <advance width="612"/>
  <unicode hex="02DC"/>
  <outline>
    <contour>
      <point x="380" y="681" type="qcurve"/>
      <point x="386" y="672"/>
      <point x="401" y="657"/>
      <point x="415" y="657" type="qcurve"/>
      <point x="427" y="657"/>
      <point x="446" y="671"/>
      <point x="456" y="683" type="qcurve"/>
      <point x="484" y="717" type="line"/>
      <point x="552" y="660" type="line"/>
      <point x="490" y="590" type="line"/>
      <point x="456" y="550"/>
      <point x="404" y="550" type="qcurve"/>
      <point x="384" y="550"/>
      <point x="348" y="568"/>
      <point x="335" y="588" type="qcurve"/>
      <point x="329" y="597"/>
      <point x="314" y="612"/>
      <point x="300" y="612" type="qcurve"/>
      <point x="288" y="612"/>
      <point x="269" y="598"/>
      <point x="259" y="586" type="qcurve"/>
      <point x="231" y="552" type="line"/>
      <point x="163" y="609" type="line"/>
      <point x="225" y="679" type="line"/>
      <point x="259" y="719"/>
      <point x="311" y="719" type="qcurve"/>
      <point x="331" y="719"/>
      <point x="367" y="701"/>
    </contour>
  </outline>
</glyph>
<glyph name="uni031B" format="1">
  <advance width="612"/>
  <unicode hex="031B"/>
  <outline>
    <contour>
      <point x="232" y="608" type="qcurve"/>
      <point x="232" y="628"/>
      <point x="247" y="662"/>
      <point x="272" y="686"/>
      <point x="306" y="700"/>
      <point x="325" y="700" type="qcurve"/>
      <point x="343" y="700"/>
      <point x="377" y="686"/>
      <point x="402" y="660"/>
      <point x="417" y="626"/>
      <point x="417" y="607" type="qcurve"/>
      <point x="417" y="602"/>
      <point x="416" y="593"/>
      <point x="415" y="588" type="qcurve"/>
      <point x="391" y="472" type="line"/>
      <point x="383" y="435"/>
      <point x="328" y="402"/>
      <point x="288" y="402" type="qcurve"/>
      <point x="180" y="402" type="line"/>
      <point x="180" y="480" type="line"/>
      <point x="285" y="480" type="line"/>
      <point x="316" y="480"/>
      <point x="320" y="505" type="qcurve"/>
      <point x="324" y="526" type="line"/>
      <point x="307" y="526"/>
      <point x="275" y="536"/>
      <point x="248" y="556"/>
      <point x="232" y="587"/>
    </contour>
  </outline>
</glyph>
<glyph name="uni1E9E" format="1">
  <advance width="612"/>
  <unicode hex="1E9E"/>
  <outline>
    <contour>
      <point x="573" y="700" type="line"/>
      <point x="573" y="472" type="line"/>
      <point x="380" y="418" type="line"/>
      <point x="380" y="400" type="line"/>
      <point x="396" y="400" type="line"/>
      <point x="429" y="400"/>
      <point x="486" y="375"/>
      <point x="529" y="330"/>
      <point x="553" y="267"/>
      <point x="553" y="229" type="qcurve"/>
      <point x="553" y="181"/>
      <point x="520" y="98"/>
      <point x="455" y="36"/>
      <point x="358" y="0"/>
      <point x="294" y="0" type="qcurve"/>
      <point x="210" y="0" type="line"/>
      <point x="210" y="126" type="line"/>
      <point x="308" y="126" type="line"/>
      <point x="328" y="126"/>
      <point x="367" y="136"/>
      <point x="398" y="158"/>
      <point x="417" y="192"/>
      <point x="417" y="216" type="qcurve"/>
      <point x="417" y="288"/>
      <point x="342" y="288" type="qcurve"/>
      <point x="280" y="288" type="line"/>
      <point x="280" y="502" type="line"/>
      <point x="472" y="556" type="line"/>
      <point x="472" y="574" type="line"/>
      <point x="357" y="574" type="line"/>
      <point x="315" y="574"/>
      <point x="256" y="538"/>
      <point x="245" y="490" type="qcurve"/>
      <point x="141" y="0" type="line"/>
      <point x="9" y="0" type="line"/>
      <point x="89" y="376" type="line"/>
      <point x="41" y="376" type="line"/>
      <point x="41" y="496" type="line"/>
      <point x="115" y="496" type="line"/>
      <point x="115" y="500" type="line"/>
      <point x="136" y="599"/>
      <point x="269" y="700"/>
      <point x="361" y="700" type="qcurve"/>
    </contour>
  </outline>
</glyph>
<glyph name="quoteleft" format="1">
  <advance width="612"/>
  <unicode hex="2018"/>
  <outline>
    <contour>
      <point x="430" y="502" type="qcurve"/>
      <point x="430" y="482"/>
      <point x="415" y="447"/>
      <point x="389" y="422"/>
      <point x="354" y="408"/>
      <point x="335" y="408" type="qcurve"/>
      <point x="315" y="408"/>
      <point x="281" y="423"/>
      <point x="255" y="448"/>
      <point x="240" y="483"/>
      <point x="240" y="503" type="qcurve"/>
      <point x="240" y="508"/>
      <point x="241" y="518"/>
      <point x="242" y="523" type="qcurve"/>
      <point x="267" y="641" type="line"/>
      <point x="275" y="679"/>
      <point x="331" y="714"/>
      <point x="372" y="714" type="qcurve"/>
      <point x="448" y="714" type="line"/>
      <point x="448" y="636" type="line"/>
      <point x="378" y="636" type="line"/>
      <point x="347" y="636"/>
      <point x="341" y="608" type="qcurve"/>
      <point x="338" y="592" type="line"/>
      <point x="355" y="592"/>
      <point x="388" y="581"/>
      <point x="414" y="559"/>
      <point x="430" y="525"/>
    </contour>
  </outline>
</glyph>
<glyph name="quoteright" format="1">
  <advance width="612"/>
  <unicode hex="2019"/>
  <outline>
    <contour>
      <point x="258" y="620" type="qcurve"/>
      <point x="258" y="640"/>
      <point x="273" y="675"/>
      <point x="299" y="700"/>
      <point x="333" y="714"/>
      <point x="353" y="714" type="qcurve"/>
      <point x="372" y="714"/>
      <point x="407" y="699"/>
      <point x="433" y="674"/>
      <point x="448" y="639"/>
      <point x="448" y="619" type="qcurve"/>
      <point x="448" y="614"/>
      <point x="447" y="604"/>
      <point x="446" y="599" type="qcurve"/>
      <point x="421" y="481" type="line"/>
      <point x="413" y="443"/>
      <point x="357" y="408"/>
      <point x="316" y="408" type="qcurve"/>
      <point x="240" y="408" type="line"/>
      <point x="240" y="486" type="line"/>
      <point x="310" y="486" type="line"/>
      <point x="341" y="486"/>
      <point x="347" y="514" type="qcurve"/>
      <point x="350" y="530" type="line"/>
      <point x="333" y="530"/>
      <point x="300" y="541"/>
      <point x="274" y="563"/>
      <point x="258" y="597"/>
    </contour>
  </outline>
</glyph>
<glyph name="quotedblright" format="1">
  <advance width="612"/>
  <unicode hex="201D"/>
  <outline>
    <contour>
      <point x="148" y="620" type="qcurve"/>
      <point x="148" y="640"/>
      <point x="163" y="675"/>
      <point x="189" y="700"/>
      <point x="223" y="714"/>
      <point x="243" y="714" type="qcurve"/>
      <point x="262" y="714"/>
      <point x="297" y="699"/>
      <point x="323" y="674"/>
      <point x="338" y="639"/>
      <point x="338" y="619" type="qcurve"/>
      <point x="338" y="614"/>
      <point x="337" y="604"/>
      <point x="336" y="599" type="qcurve"/>
      <point x="311" y="481" type="line"/>
      <point x="303" y="443"/>
      <point x="247" y="408"/>
      <point x="206" y="408" type="qcurve"/>
      <point x="130" y="408" type="line"/>
      <point x="130" y="486" type="line"/>
      <point x="200" y="486" type="line"/>
      <point x="231" y="486"/>
      <point x="237" y="514" type="qcurve"/>
      <point x="240" y="530" type="line"/>
      <point x="223" y="530"/>
      <point x="190" y="541"/>
      <point x="164" y="563"/>
      <point x="148" y="597"/>
    </contour>
    <contour>
      <point x="374" y="620" type="qcurve"/>
      <point x="374" y="640"/>
      <point x="389" y="675"/>
      <point x="415" y="700"/>
      <point x="449" y="714"/>
      <point x="469" y="714" type="qcurve"/>
      <point x="488" y="714"/>
      <point x="523" y="699"/>
      <point x="549" y="674"/>
      <point x="564" y="639"/>
      <point x="564" y="619" type="qcurve"/>
      <point x="564" y="614"/>
      <point x="563" y="604"/>
      <point x="562" y="599" type="qcurve"/>
      <point x="537" y="481" type="line"/>
      <point x="529" y="443"/>
      <point x="473" y="408"/>
      <point x="432" y="408" type="qcurve"/>
      <point x="356" y="408" type="line"/>
      <point x="356" y="486" type="line"/>
      <point x="426" y="486" type="line"/>
      <point x="457" y="486"/>
      <point x="463" y="514" type="qcurve"/>
      <point x="466" y="530" type="line"/>
      <point x="449" y="530"/>
      <point x="416" y="541"/>
      <point x="390" y="563"/>
      <point x="374" y="597"/>
    </contour>
  </outline>
</glyph>
<glyph name="quotedblbase" format="1">
  <advance width="612"/>
  <unicode hex="201E"/>
  <outline>
    <contour>
      <point x="54" y="95" type="qcurve"/>
      <point x="54" y="115"/>
      <point x="69" y="150"/>
      <point x="95" y="175"/>
      <point x="129" y="189"/>
      <point x="149" y="189" type="qcurve"/>
      <point x="168" y="189"/>
      <point x="203" y="174"/>
      <point x="229" y="149"/>
      <point x="244" y="114"/>
      <point x="244" y="94" type="qcurve"/>
      <point x="244" y="89"/>
      <point x="243" y="79"/>
      <point x="242" y="74" type="qcurve"/>
      <point x="217" y="-44" type="line"/>
      <point x="209" y="-82"/>
      <point x="153" y="-117"/>
      <point x="112" y="-117" type="qcurve"/>
      <point x="36" y="-117" type="line"/>
      <point x="36" y="-39" type="line"/>
      <point x="106" y="-39" type="line"/>
      <point x="137" y="-39"/>
      <point x="143" y="-11" type="qcurve"/>
      <point x="146" y="5" type="line"/>
      <point x="129" y="5"/>
      <point x="96" y="16"/>
      <point x="70" y="38"/>
      <point x="54" y="72"/>
    </contour>
    <contour>
      <point x="280" y="95" type="qcurve"/>
      <point x="280" y="115"/>
      <point x="295" y="150"/>
      <point x="321" y="175"/>
      <point x="355" y="189"/>
      <point x="375" y="189" type="qcurve"/>
      <point x="394" y="189"/>
      <point x="429" y="174"/>
      <point x="455" y="149"/>
      <point x="470" y="114"/>
      <point x="470" y="94" type="qcurve"/>
      <point x="470" y="89"/>
      <point x="469" y="79"/>
      <point x="468" y="74" type="qcurve"/>
      <point x="443" y="-44" type="line"/>
      <point x="435" y="-82"/>
      <point x="379" y="-117"/>
      <point x="338" y="-117" type="qcurve"/>
      <point x="262" y="-117" type="line"/>
      <point x="262" y="-39" type="line"/>
      <point x="332" y="-39" type="line"/>
      <point x="363" y="-39"/>
      <point x="369" y="-11" type="qcurve"/>
      <point x="372" y="5" type="line"/>
      <point x="355" y="5"/>
      <point x="322" y="16"/>
      <point x="296" y="38"/>
      <point x="280" y="72"/>
    </contour>
  </outline>
</glyph>
<glyph name="dagger" format="1">
  <advance width="612"/>
  <unicode hex="2020"/>
  <outline>
    <contour>
      <point x="173" y="604" type="line"/>
      <point x="293" y="604" type="line"/>
      <point x="316" y="714" type="line"/>
      <point x="424" y="714" type="line"/>
      <point x="401" y="604" type="line"/>
      <point x="497" y="604" type="line"/>
      <point x="497" y="498" type="line"/>
      <point x="378" y="498" type="line"/>
      <point x="319" y="218" type="line"/>
      <point x="211" y="218" type="line"/>
      <point x="270" y="498" type="line"/>
      <point x="173" y="498" type="line"/>
    </contour>
  </outline>
</glyph>
<glyph name="perthousand" format="1">
  <advance width="612"/>
  <unicode hex="2030"/>
  <outline>
    <contour>
      <point x="246" y="180" type="line"/>
      <point x="268" y="288"/>
      <point x="369" y="288" type="qcurve"/>
      <point x="395" y="288"/>
      <point x="425" y="275"/>
      <point x="434" y="264" type="qcurve"/>
      <point x="446" y="264" type="line"/>
      <point x="460" y="275"/>
      <point x="490" y="288"/>
      <point x="513" y="288" type="qcurve"/>
      <point x="557" y="288"/>
      <point x="599" y="237"/>
      <point x="599" y="203" type="qcurve"/>
      <point x="599" y="197"/>
      <point x="599" y="186"/>
      <point x="597" y="180" type="qcurve"/>
      <point x="580" y="96" type="line"/>
      <point x="569" y="42"/>
      <point x="503" y="-12"/>
      <point x="455" y="-12" type="qcurve"/>
      <point x="432" y="-12"/>
      <point x="402" y="2"/>
      <point x="393" y="12" type="qcurve"/>
      <point x="381" y="12" type="line"/>
      <point x="367" y="1"/>
      <point x="334" y="-12"/>
      <point x="314" y="-12" type="qcurve"/>
      <point x="274" y="-12"/>
      <point x="227" y="33"/>
      <point x="227" y="74" type="qcurve"/>
      <point x="227" y="88"/>
      <point x="230" y="105" type="qcurve"/>
    </contour>
    <contour>
      <point x="337" y="583" type="qcurve"/>
      <point x="337" y="545"/>
      <point x="307" y="482"/>
      <point x="258" y="437"/>
      <point x="196" y="412"/>
      <point x="165" y="412" type="qcurve"/>
      <point x="136" y="412"/>
      <point x="84" y="428"/>
      <point x="45" y="459"/>
      <point x="23" y="506"/>
      <point x="23" y="537" type="qcurve"/>
      <point x="23" y="572"/>
      <point x="47" y="635"/>
      <point x="94" y="683"/>
      <point x="162" y="712"/>
      <point x="206" y="712" type="qcurve"/>
      <point x="231" y="712"/>
      <point x="278" y="696"/>
      <point x="315" y="664"/>
      <point x="337" y="616"/>
    </contour>
    <contour>
      <point x="171" y="496" type="qcurve"/>
      <point x="201" y="496"/>
      <point x="245" y="540"/>
      <point x="245" y="574" type="qcurve"/>
      <point x="245" y="601"/>
      <point x="215" y="628"/>
      <point x="189" y="628" type="qcurve"/>
      <point x="157" y="628"/>
      <point x="115" y="579"/>
      <point x="115" y="548" type="qcurve"/>
      <point x="115" y="522"/>
      <point x="146" y="496"/>
    </contour>
    <contour>
      <point x="466" y="69" type="qcurve"/>
      <point x="475" y="69"/>
      <point x="490" y="81"/>
      <point x="493" y="96" type="qcurve"/>
      <point x="510" y="180" type="line"/>
      <point x="511" y="185"/>
      <point x="511" y="187" type="qcurve"/>
      <point x="511" y="207"/>
      <point x="491" y="207" type="qcurve"/>
      <point x="471" y="207"/>
      <point x="465" y="180" type="qcurve"/>
      <point x="448" y="96" type="line"/>
      <point x="447" y="91"/>
      <point x="447" y="89"/>
      <point x="447" y="87" type="qcurve"/>
      <point x="447" y="78"/>
      <point x="458" y="69"/>
    </contour>
    <contour>
      <point x="334" y="69" type="qcurve"/>
      <point x="343" y="69"/>
      <point x="358" y="81"/>
      <point x="361" y="96" type="qcurve"/>
      <point x="378" y="180" type="line"/>
      <point x="379" y="185"/>
      <point x="379" y="187" type="qcurve"/>
      <point x="379" y="207"/>
      <point x="359" y="207" type="qcurve"/>
      <point x="339" y="207"/>
      <point x="333" y="180" type="qcurve"/>
      <point x="316" y="96" type="line"/>
      <point x="315" y="91"/>
      <point x="315" y="89"/>
      <point x="315" y="87" type="qcurve"/>
      <point x="315" y="78"/>
      <point x="326" y="69"/>
    </contour>
    <component base="fraction" xOffset="-29"/>
  </outline>
</glyph>
<glyph name="uni2033" format="1">
  <advance width="612"/>
  <unicode hex="2033"/>
  <outline>
    <contour>
      <point x="194" y="554" type="line"/>
      <point x="182" y="568"/>
      <point x="167" y="601"/>
      <point x="167" y="620" type="qcurve"/>
      <point x="167" y="639"/>
      <point x="182" y="674"/>
      <point x="208" y="699"/>
      <point x="242" y="714"/>
      <point x="262" y="714" type="qcurve"/>
      <point x="281" y="714"/>
      <point x="316" y="699"/>
      <point x="341" y="674"/>
      <point x="356" y="639"/>
      <point x="356" y="620" type="qcurve"/>
      <point x="356" y="582"/>
      <point x="305" y="527"/>
      <point x="264" y="524" type="qcurve"/>
      <point x="216" y="410" type="line"/>
      <point x="144" y="439" type="line"/>
    </contour>
    <contour>
      <point x="425" y="554" type="line"/>
      <point x="413" y="568"/>
      <point x="398" y="601"/>
      <point x="398" y="620" type="qcurve"/>
      <point x="398" y="639"/>
      <point x="413" y="674"/>
      <point x="439" y="699"/>
      <point x="473" y="714"/>
      <point x="493" y="714" type="qcurve"/>
      <point x="532" y="714"/>
      <point x="587" y="659"/>
      <point x="587" y="620" type="qcurve"/>
      <point x="587" y="582"/>
      <point x="536" y="527"/>
      <point x="495" y="524" type="qcurve"/>
      <point x="447" y="410" type="line"/>
      <point x="375" y="439" type="line"/>
    </contour>
  </outline>
</glyph>
<glyph name="guilsinglleft" format="1">
  <advance width="612"/>
  <unicode hex="2039"/>
  <outline>
    <contour>
      <point x="343" y="0" type="line"/>
      <point x="149" y="162" type="line"/>
      <point x="149" y="330" type="line"/>
      <point x="448" y="496" type="line"/>
      <point x="454" y="496" type="line"/>
      <point x="454" y="372" type="line"/>
      <point x="239" y="252" type="line"/>
      <point x="239" y="234" type="line"/>
      <point x="349" y="146" type="line"/>
      <point x="349" y="0" type="line"/>
    </contour>
  </outline>
</glyph>
<glyph name="uni2070" format="1">
  <advance width="612"/>
  <unicode hex="2070"/>
  <outline>
    <contour>
      <point x="405" y="511" type="line"/>
      <point x="394" y="463"/>
      <point x="336" y="406"/>
      <point x="283" y="406" type="qcurve"/>
      <point x="240" y="406"/>
      <point x="184" y="454"/>
      <point x="184" y="498" type="qcurve"/>
      <point x="184" y="506"/>
      <point x="186" y="523"/>
      <point x="188" y="529" type="qcurve"/>
      <point x="204" y="601" type="line"/>
      <point x="214" y="647"/>
      <point x="273" y="706"/>
      <point x="326" y="706" type="qcurve"/>
      <point x="369" y="706"/>
      <point x="425" y="658"/>
      <point x="425" y="614" type="qcurve"/>
      <point x="425" y="606"/>
      <point x="423" y="590"/>
      <point x="421" y="583" type="qcurve"/>
    </contour>
    <contour>
      <point x="319" y="634" type="qcurve"/>
      <point x="303" y="634"/>
      <point x="285" y="613"/>
      <point x="281" y="596" type="qcurve"/>
      <point x="264" y="516" type="line"/>
      <point x="263" y="511"/>
      <point x="263" y="507"/>
      <point x="263" y="505" type="qcurve"/>
      <point x="263" y="494"/>
      <point x="275" y="478"/>
      <point x="290" y="478" type="qcurve"/>
      <point x="306" y="478"/>
      <point x="324" y="499"/>
      <point x="328" y="516" type="qcurve"/>
      <point x="345" y="596" type="line"/>
      <point x="346" y="601"/>
      <point x="346" y="604"/>
      <point x="346" y="607" type="qcurve"/>
      <point x="346" y="619"/>
      <point x="333" y="634"/>
    </contour>
  </outline>
</glyph>
<glyph name="uni2071" format="1">
  <advance width="612"/>
  <unicode hex="2071"/>
  <outline>
    <contour>
      <point x="216" y="484" type="line"/>
      <point x="312" y="484" type="line"/>
      <point x="343" y="628" type="line"/>
      <point x="261" y="628" type="line"/>
      <point x="261" y="700" type="line"/>
      <point x="433" y="700" type="line"/>
      <point x="433" y="688" type="line"/>
      <point x="390" y="484" type="line"/>
      <point x="468" y="484" type="line"/>
      <point x="468" y="412" type="line"/>
      <point x="216" y="412" type="line"/>
    </contour>
    <contour>
      <point x="350" y="790" type="qcurve"/>
      <point x="350" y="816"/>
      <point x="384" y="850"/>
      <point x="410" y="850" type="qcurve"/>
      <point x="436" y="850"/>
      <point x="470" y="816"/>
      <point x="470" y="790" type="qcurve"/>
      <point x="470" y="764"/>
      <point x="436" y="730"/>
      <point x="410" y="730" type="qcurve"/>
      <point x="384" y="730"/>
      <point x="350" y="764"/>
    </contour>
  </outline>
</glyph>
<glyph name="uni2075" format="1">
  <advance width="612"/>
  <unicode hex="2075"/>
  <outline>
    <contour>
      <point x="270" y="500" type="line"/>
      <point x="270" y="475"/>
      <point x="299" y="475" type="qcurve"/>
      <point x="317" y="475"/>
      <point x="335" y="497"/>
      <point x="335" y="512" type="qcurve"/>
      <point x="335" y="537"/>
      <point x="312" y="537" type="qcurve"/>
      <point x="297" y="537"/>
      <point x="290" y="526" type="qcurve"/>
      <point x="198" y="526" type="line"/>
      <point x="235" y="700" type="line"/>
      <point x="426" y="700" type="line"/>
      <point x="426" y="630" type="line"/>
      <point x="298" y="630" type="line"/>
      <point x="288" y="584" type="line"/>
      <point x="297" y="584" type="line"/>
      <point x="313" y="608"/>
      <point x="348" y="608" type="qcurve"/>
      <point x="378" y="608"/>
      <point x="417" y="568"/>
      <point x="417" y="532" type="qcurve"/>
      <point x="417" y="476"/>
      <point x="355" y="406"/>
      <point x="292" y="406" type="qcurve"/>
      <point x="241" y="406"/>
      <point x="191" y="456"/>
      <point x="191" y="489" type="qcurve"/>
      <point x="191" y="491"/>
      <point x="191" y="495"/>
      <point x="192" y="500" type="qcurve"/>
    </contour>
  </outline>
</glyph>
<glyph name="uni2076" format="1">
  <advance width="612"/>
  <unicode hex="2076"/>
  <outline>
    <contour>
      <point x="341" y="614" type="line"/>
      <point x="341" y="636"/>
      <point x="319" y="636" type="qcurve"/>
      <point x="294" y="636"/>
      <point x="288" y="610" type="qcurve"/>
      <point x="279" y="570" type="line"/>
      <point x="288" y="570" type="line"/>
      <point x="296" y="582"/>
      <point x="323" y="594"/>
      <point x="337" y="594" type="qcurve"/>
      <point x="368" y="594"/>
      <point x="403" y="553"/>
      <point x="403" y="521" type="qcurve"/>
      <point x="403" y="467"/>
      <point x="335" y="406"/>
      <point x="281" y="406" type="qcurve"/>
      <point x="239" y="406"/>
      <point x="189" y="453"/>
      <point x="189" y="495" type="qcurve"/>
      <point x="189" y="509"/>
      <point x="192" y="524" type="qcurve"/>
      <point x="209" y="604" type="line"/>
      <point x="220" y="654"/>
      <point x="282" y="706"/>
      <point x="330" y="706" type="qcurve"/>
      <point x="372" y="706"/>
      <point x="416" y="660"/>
      <point x="416" y="628" type="qcurve"/>
      <point x="416" y="626"/>
      <point x="416" y="622"/>
      <point x="415" y="614" type="qcurve"/>
    </contour>
    <contour>
      <point x="297" y="522" type="qcurve"/>
      <point x="282" y="522"/>
      <point x="264" y="508"/>
      <point x="264" y="497" type="qcurve"/>
      <point x="264" y="487"/>
      <point x="279" y="478"/>
      <point x="290" y="478" type="qcurve"/>
      <point x="301" y="478"/>
      <point x="321" y="489"/>
      <point x="321" y="503" type="qcurve"/>
      <point x="321" y="512"/>
      <point x="308" y="522"/>
    </contour>
  </outline>
</glyph>
<glyph name="uni2077" format="1">
  <advance width="612"/>
  <unicode hex="2077"/>
  <outline>
    <contour>
      <point x="241" y="700" type="line"/>
      <point x="437" y="700" type="line"/>
      <point x="437" y="602" type="line"/>
      <point x="317" y="463" type="line"/>
      <point x="308" y="453"/>
      <point x="293" y="433"/>
      <point x="291" y="419" type="qcurve"/>
      <point x="290" y="412" type="line"/>
      <point x="206" y="412" type="line"/>
      <point x="209" y="427" type="line"/>
      <point x="212" y="443"/>
      <point x="227" y="468"/>
      <point x="244" y="487" type="qcurve"/>
      <point x="363" y="620" type="line"/>
      <point x="363" y="628" type="line"/>
      <point x="241" y="628" type="line"/>
    </contour>
  </outline>
</glyph>
<glyph name="uni2078" format="1">
  <advance width="612"/>
  <unicode hex="2078"/>
  <outline>
    <contour>
      <point x="281" y="406" type="qcurve"/>
      <point x="262" y="406"/>
      <point x="226" y="415"/>
      <point x="199" y="434"/>
      <point x="183" y="462"/>
      <point x="183" y="482" type="qcurve"/>
      <point x="183" y="509"/>
      <point x="215" y="549"/>
      <point x="247" y="557" type="qcurve"/>
      <point x="247" y="565" type="line"/>
      <point x="236" y="572"/>
      <point x="217" y="595"/>
      <point x="217" y="616" type="qcurve"/>
      <point x="217" y="654"/>
      <point x="274" y="706"/>
      <point x="325" y="706" type="qcurve"/>
      <point x="370" y="706"/>
      <point x="422" y="665"/>
      <point x="422" y="632" type="qcurve"/>
      <point x="422" y="604"/>
      <point x="389" y="569"/>
      <point x="364" y="565" type="qcurve"/>
      <point x="364" y="557" type="line"/>
      <point x="377" y="551"/>
      <point x="399" y="524"/>
      <point x="399" y="500" type="qcurve"/>
      <point x="399" y="459"/>
      <point x="335" y="406"/>
    </contour>
    <contour>
      <point x="291" y="478" type="qcurve"/>
      <point x="303" y="478"/>
      <point x="322" y="492"/>
      <point x="322" y="504" type="qcurve"/>
      <point x="322" y="515"/>
      <point x="307" y="526"/>
      <point x="296" y="526" type="qcurve"/>
      <point x="283" y="526"/>
      <point x="264" y="512"/>
      <point x="264" y="499" type="qcurve"/>
      <point x="264" y="488"/>
      <point x="280" y="478"/>
    </contour>
    <contour>
      <point x="320" y="636" type="qcurve"/>
      <point x="310" y="636"/>
      <point x="295" y="624"/>
      <point x="295" y="613" type="qcurve"/>
      <point x="295" y="605"/>
      <point x="307" y="596"/>
      <point x="316" y="596" type="qcurve"/>
      <point x="326" y="596"/>
      <point x="340" y="608"/>
      <point x="340" y="618" type="qcurve"/>
      <point x="340" y="636"/>
    </contour>
  </outline>
</glyph>
<glyph name="uni2079" format="1">
  <advance width="612"/>
  <unicode hex="2079"/>
  <outline>
    <contour>
      <point x="264" y="498" type="line"/>
      <point x="264" y="476"/>
      <point x="286" y="476" type="qcurve"/>
      <point x="300" y="476"/>
      <point x="314" y="490"/>
      <point x="317" y="502" type="qcurve"/>
      <point x="326" y="542" type="line"/>
      <point x="317" y="542" type="line"/>
      <point x="309" y="530"/>
      <point x="282" y="518"/>
      <point x="268" y="518" type="qcurve"/>
      <point x="237" y="518"/>
      <point x="202" y="559"/>
      <point x="202" y="591" type="qcurve"/>
      <point x="202" y="645"/>
      <point x="270" y="706"/>
      <point x="324" y="706" type="qcurve"/>
      <point x="366" y="706"/>
      <point x="416" y="659"/>
      <point x="416" y="617" type="qcurve"/>
      <point x="416" y="603"/>
      <point x="413" y="588" type="qcurve"/>
      <point x="396" y="508" type="line"/>
      <point x="385" y="458"/>
      <point x="323" y="406"/>
      <point x="275" y="406" type="qcurve"/>
      <point x="233" y="406"/>
      <point x="189" y="452"/>
      <point x="189" y="484" type="qcurve"/>
      <point x="189" y="486"/>
      <point x="189" y="490"/>
      <point x="190" y="498" type="qcurve"/>
    </contour>
    <contour>
      <point x="308" y="590" type="qcurve"/>
      <point x="323" y="590"/>
      <point x="341" y="604"/>
      <point x="341" y="615" type="qcurve"/>
      <point x="341" y="625"/>
      <point x="326" y="634"/>
      <point x="315" y="634" type="qcurve"/>
      <point x="304" y="634"/>
      <point x="284" y="623"/>
      <point x="284" y="609" type="qcurve"/>
      <point x="284" y="600"/>
      <point x="297" y="590"/>
    </contour>
  </outline>
</glyph>
<glyph name="uni207E" format="1">
  <advance width="612"/>
  <unicode hex="207E"/>
  <outline>
    <contour>
      <point x="284" y="737" type="line"/>
      <point x="284" y="809" type="line"/>
      <point x="332" y="809" type="line"/>
      <point x="363" y="809"/>
      <point x="416" y="791"/>
      <point x="455" y="755"/>
      <point x="478" y="702"/>
      <point x="478" y="666" type="qcurve"/>
      <point x="478" y="653"/>
      <point x="474" y="625"/>
      <point x="471" y="610" type="qcurve"/>
      <point x="444" y="486" type="line"/>
      <point x="424" y="391"/>
      <point x="311" y="303"/>
      <point x="228" y="303" type="qcurve"/>
      <point x="192" y="303" type="line"/>
      <point x="192" y="375" type="line"/>
      <point x="239" y="375" type="line"/>
      <point x="293" y="375"/>
      <point x="362" y="435"/>
      <point x="373" y="488" type="qcurve"/>
      <point x="402" y="624" type="line"/>
      <point x="405" y="639"/>
      <point x="405" y="653" type="qcurve"/>
      <point x="405" y="691"/>
      <point x="359" y="737"/>
      <point x="316" y="737" type="qcurve"/>
    </contour>
  </outline>
</glyph>
<glyph name="uni207F" format="1">
  <advance width="612"/>
  <unicode hex="207F"/>
  <outline>
    <contour>
      <point x="264" y="412" type="line"/>
      <point x="186" y="412" type="line"/>
      <point x="247" y="700" type="line"/>
      <point x="325" y="700" type="line"/>
      <point x="317" y="661" type="line"/>
      <point x="323" y="661" type="line"/>
      <point x="334" y="681"/>
      <point x="376" y="706"/>
      <point x="408" y="706" type="qcurve"/>
      <point x="450" y="706"/>
      <point x="493" y="656"/>
      <point x="493" y="622" type="qcurve"/>
      <point x="493" y="616"/>
      <point x="491" y="602"/>
      <point x="490" y="598" type="qcurve"/>
      <point x="450" y="412" type="line"/>
      <point x="372" y="412" type="line"/>
      <point x="407" y="574" type="line"/>
      <point x="409" y="584"/>
      <point x="409" y="591" type="qcurve"/>
      <point x="409" y="612"/>
      <point x="385" y="634"/>
      <point x="365" y="634" type="qcurve"/>
      <point x="341" y="634"/>
      <point x="305" y="604"/>
      <point x="298" y="572" type="qcurve"/>
    </contour>
  </outline>
</glyph>
<glyph name="uni2080" format="1">
  <advance width="612"/>
  <unicode hex="2080"/>
  <outline>
    <contour>
      <point x="347" y="-101" type="line"/>
      <point x="336" y="-149"/>
      <point x="278" y="-206"/>
      <point x="225" y="-206" type="qcurve"/>
      <point x="182" y="-206"/>
      <point x="126" y="-158"/>
      <point x="126" y="-114" type="qcurve"/>
      <point x="126" y="-106"/>
      <point x="128" y="-89"/>
      <point x="130" y="-83" type="qcurve"/>
      <point x="146" y="-11" type="line"/>
      <point x="156" y="35"/>
      <point x="215" y="94"/>
      <point x="268" y="94" type="qcurve"/>
      <point x="311" y="94"/>
      <point x="367" y="46"/>
      <point x="367" y="2" type="qcurve"/>
      <point x="367" y="-6"/>
      <point x="365" y="-22"/>
      <point x="363" y="-29" type="qcurve"/>
    </contour>
    <contour>
      <point x="261" y="22" type="qcurve"/>
      <point x="245" y="22"/>
      <point x="227" y="1"/>
      <point x="223" y="-16" type="qcurve"/>
      <point x="206" y="-96" type="line"/>
      <point x="205" y="-101"/>
      <point x="205" y="-105"/>
      <point x="205" y="-107" type="qcurve"/>
      <point x="205" y="-118"/>
      <point x="217" y="-134"/>
      <point x="232" y="-134" type="qcurve"/>
      <point x="248" y="-134"/>
      <point x="266" y="-113"/>
      <point x="270" y="-96" type="qcurve"/>
      <point x="287" y="-16" type="line"/>
      <point x="288" y="-11"/>
      <point x="288" y="-8"/>
      <point x="288" y="-5" type="qcurve"/>
      <point x="288" y="7"/>
      <point x="275" y="22"/>
    </contour>
  </outline>
</glyph>
<glyph name="uni2084" format="1">
  <advance width="612"/>
  <unicode hex="2084"/>
  <outline>
    <contour>
      <point x="241" y="88" type="line"/>
      <point x="381" y="88" type="line"/>
      <point x="345" y="-82" type="line"/>
      <point x="379" y="-82" type="line"/>
      <point x="379" y="-152" type="line"/>
      <point x="330" y="-152" type="line"/>
      <point x="320" y="-200" type="line"/>
      <point x="242" y="-200" type="line"/>
      <point x="252" y="-152" type="line"/>
      <point x="132" y="-152" type="line"/>
      <point x="132" y="-65" type="line"/>
    </contour>
    <contour>
      <point x="207" y="-73" type="line"/>
      <point x="207" y="-82" type="line"/>
      <point x="267" y="-82" type="line"/>
      <point x="292" y="36" type="line"/>
      <point x="283" y="36" type="line"/>
    </contour>
  </outline>
</glyph>
<glyph name="uni2085" format="1">
  <advance width="612"/>
  <unicode hex="2085"/>
  <outline>
    <contour>
      <point x="211" y="-112" type="line"/>
      <point x="211" y="-137"/>
      <point x="240" y="-137" type="qcurve"/>
      <point x="258" y="-137"/>
      <point x="276" y="-115"/>
      <point x="276" y="-100" type="qcurve"/>
      <point x="276" y="-75"/>
      <point x="253" y="-75" type="qcurve"/>
      <point x="238" y="-75"/>
      <point x="231" y="-86" type="qcurve"/>
      <point x="139" y="-86" type="line"/>
      <point x="176" y="88" type="line"/>
      <point x="367" y="88" type="line"/>
      <point x="367" y="18" type="line"/>
      <point x="239" y="18" type="line"/>
      <point x="229" y="-28" type="line"/>
      <point x="238" y="-28" type="line"/>
      <point x="254" y="-4"/>
      <point x="289" y="-4" type="qcurve"/>
      <point x="319" y="-4"/>
      <point x="358" y="-44"/>
      <point x="358" y="-80" type="qcurve"/>
      <point x="358" y="-136"/>
      <point x="296" y="-206"/>
      <point x="233" y="-206" type="qcurve"/>
      <point x="182" y="-206"/>
      <point x="132" y="-156"/>
      <point x="132" y="-123" type="qcurve"/>
      <point x="132" y="-121"/>
      <point x="132" y="-117"/>
      <point x="133" y="-112" type="qcurve"/>
    </contour>
  </outline>
</glyph>
<glyph name="uni2088" format="1">
  <advance width="612"/>
  <unicode hex="2088"/>
  <outline>
    <contour>
      <point x="218" y="-206" type="qcurve"/>
      <point x="199" y="-206"/>
      <point x="163" y="-197"/>
      <point x="136" y="-178"/>
      <point x="120" y="-150"/>
      <point x="120" y="-130" type="qcurve"/>
      <point x="120" y="-103"/>
      <point x="152" y="-63"/>
      <point x="184" y="-55" type="qcurve"/>
      <point x="184" y="-47" type="line"/>
      <point x="173" y="-40"/>
      <point x="154" y="-17"/>
      <point x="154" y="4" type="qcurve"/>
      <point x="154" y="42"/>
      <point x="211" y="94"/>
      <point x="262" y="94" type="qcurve"/>
      <point x="307" y="94"/>
      <point x="359" y="53"/>
      <point x="359" y="20" type="qcurve"/>
      <point x="359" y="-8"/>
      <point x="326" y="-43"/>
      <point x="301" y="-47" type="qcurve"/>
      <point x="301" y="-55" type="line"/>
      <point x="314" y="-61"/>
      <point x="336" y="-88"/>
      <point x="336" y="-112" type="qcurve"/>
      <point x="336" y="-153"/>
      <point x="272" y="-206"/>
    </contour>
    <contour>
      <point x="228" y="-134" type="qcurve"/>
      <point x="240" y="-134"/>
      <point x="259" y="-120"/>
      <point x="259" y="-108" type="qcurve"/>
      <point x="259" y="-97"/>
      <point x="244" y="-86"/>
      <point x="233" y="-86" type="qcurve"/>
      <point x="220" y="-86"/>
      <point x="201" y="-100"/>
      <point x="201" y="-113" type="qcurve"/>
      <point x="201" y="-124"/>
      <point x="217" y="-134"/>
    </contour>
    <contour>
      <point x="257" y="24" type="qcurve"/>
      <point x="247" y="24"/>
      <point x="232" y="12"/>
      <point x="232" y="1" type="qcurve"/>
      <point x="232" y="-7"/>
      <point x="244" y="-16"/>
      <point x="253" y="-16" type="qcurve"/>
      <point x="263" y="-16"/>
      <point x="277" y="-4"/>
      <point x="277" y="6" type="qcurve"/>
      <point x="277" y="24"/>
    </contour>
  </outline>
</glyph>
<glyph name="uni208D" format="1">
  <advance width="612"/>
  <unicode hex="208D"/>
  <outline>
    <contour>
      <point x="308" y="-237" type="line"/>
      <point x="308" y="-309" type="line"/>
      <point x="260" y="-309" type="line"/>
      <point x="229" y="-309"/>
      <point x="176" y="-291"/>
      <point x="137" y="-255"/>
      <point x="114" y="-202"/>
      <point x="114" y="-166" type="qcurve"/>
      <point x="114" y="-153"/>
      <point x="118" y="-125"/>
      <point x="121" y="-110" type="qcurve"/>
      <point x="148" y="14" type="line"/>
      <point x="168" y="109"/>
      <point x="281" y="197"/>
      <point x="364" y="197" type="qcurve"/>
      <point x="400" y="197" type="line"/>
      <point x="400" y="125" type="line"/>
      <point x="353" y="125" type="line"/>
      <point x="299" y="125"/>
      <point x="230" y="65"/>
      <point x="219" y="12" type="qcurve"/>
      <point x="190" y="-124" type="line"/>
      <point x="187" y="-139"/>
      <point x="187" y="-153" type="qcurve"/>
      <point x="187" y="-191"/>
      <point x="233" y="-237"/>
      <point x="276" y="-237" type="qcurve"/>
    </contour>
  </outline>
</glyph>
<glyph name="uni208E" format="1">
  <advance width="612"/>
  <unicode hex="208E"/>
  <outline>
    <contour>
      <point x="200" y="125" type="line"/>
      <point x="200" y="197" type="line"/>
      <point x="248" y="197" type="line"/>
      <point x="279" y="197"/>
      <point x="332" y="179"/>
      <point x="371" y="143"/>
      <point x="394" y="90"/>
      <point x="394" y="54" type="qcurve"/>
      <point x="394" y="41"/>
      <point x="390" y="13"/>
      <point x="387" y="-2" type="qcurve"/>
      <point x="360" y="-126" type="line"/>
      <point x="340" y="-221"/>
      <point x="227" y="-309"/>
      <point x="144" y="-309" type="qcurve"/>
      <point x="108" y="-309" type="line"/>
      <point x="108" y="-237" type="line"/>
      <point x="155" y="-237" type="line"/>
      <point x="209" y="-237"/>
      <point x="278" y="-177"/>
      <point x="289" y="-124" type="qcurve"/>
      <point x="318" y="12" type="line"/>
      <point x="321" y="27"/>
      <point x="321" y="41" type="qcurve"/>
      <point x="321" y="79"/>
      <point x="275" y="125"/>
      <point x="232" y="125" type="qcurve"/>
    </contour>
  </outline>
</glyph>
<glyph name="uni20AB" format="1">
  <advance width="612"/>
  <unicode hex="20AB"/>
  <outline>
    <contour>
      <point x="285" y="574" type="line"/>
      <point x="408" y="574" type="line"/>
      <point x="415" y="606" type="line"/>
      <point x="529" y="606" type="line"/>
      <point x="522" y="574" type="line"/>
      <point x="551" y="574" type="line"/>
      <point x="551" y="484" type="line"/>
      <point x="503" y="484" type="line"/>
      <point x="422" y="102" type="line"/>
      <point x="308" y="102" type="line"/>
      <point x="316" y="139" type="line"/>
      <point x="304" y="139" type="line"/>
      <point x="291" y="117"/>
      <point x="238" y="90"/>
      <point x="198" y="90" type="qcurve"/>
      <point x="173" y="90"/>
      <point x="127" y="108"/>
      <point x="93" y="142"/>
      <point x="72" y="192"/>
      <point x="72" y="224" type="qcurve"/>
      <point x="72" y="273"/>
      <point x="99" y="360"/>
      <point x="152" y="426"/>
      <point x="230" y="464"/>
      <point x="281" y="464" type="qcurve"/>
      <point x="317" y="464"/>
      <point x="357" y="435"/>
      <point x="364" y="420" type="qcurve"/>
      <point x="376" y="420" type="line"/>
      <point x="389" y="484" type="line"/>
      <point x="285" y="484" type="line"/>
    </contour>
    <contour>
      <point x="116" y="66" type="line"/>
      <point x="394" y="66" type="line"/>
      <point x="394" y="-30" type="line"/>
      <point x="116" y="-30" type="line"/>
    </contour>
    <contour>
      <point x="255" y="198" type="qcurve"/>
      <point x="296" y="198"/>
      <point x="347" y="254"/>
      <point x="347" y="298" type="qcurve"/>
      <point x="347" y="326"/>
      <point x="312" y="356"/>
      <point x="285" y="356" type="qcurve"/>
      <point x="244" y="356"/>
      <point x="191" y="304"/>
      <point x="191" y="260" type="qcurve"/>
      <point x="191" y="230"/>
      <point x="229" y="198"/>
    </contour>
  </outline>
</glyph>
<glyph name="uni20B1" format="1">
  <advance width="612"/>
  <unicode hex="20B1"/>
  <outline>
    <contour>
      <point x="82" y="455" type="line"/>
      <point x="152" y="455" type="line"/>
      <point x="182" y="598" type="line"/>
      <point x="349" y="598" type="line"/>
      <point x="395" y="598"/>
      <point x="454" y="573"/>
      <point x="489" y="532"/>
      <point x="502" y="481"/>
      <point x="502" y="455" type="qcurve"/>
      <point x="554" y="455" type="line"/>
      <point x="554" y="371" type="line"/>
      <point x="478" y="371" type="line"/>
      <point x="473" y="354"/>
      <point x="453" y="342" type="qcurve"/>
      <point x="453" y="336" type="line"/>
      <point x="529" y="336" type="line"/>
      <point x="529" y="252" type="line"/>
      <point x="223" y="252" type="line"/>
      <point x="191" y="102" type="line"/>
      <point x="77" y="102" type="line"/>
      <point x="109" y="252" type="line"/>
      <point x="57" y="252" type="line"/>
      <point x="57" y="336" type="line"/>
      <point x="127" y="336" type="line"/>
      <point x="134" y="371" type="line"/>
      <point x="82" y="371" type="line"/>
    </contour>
    <contour>
      <point x="293" y="336" type="line"/>
      <point x="319" y="336"/>
      <point x="350" y="355"/>
      <point x="361" y="371" type="qcurve"/>
      <point x="248" y="371" type="line"/>
      <point x="241" y="336" type="line"/>
    </contour>
    <contour>
      <point x="266" y="455" type="line"/>
      <point x="379" y="455" type="line"/>
      <point x="375" y="473"/>
      <point x="347" y="490"/>
      <point x="325" y="490" type="qcurve"/>
      <point x="273" y="490" type="line"/>
    </contour>
  </outline>
</glyph>
<glyph name="uni20B2" format="1">
  <advance width="612"/>
  <unicode hex="20B2"/>
  <outline>
    <contour>
      <point x="401" y="605" type="line"/>
      <point x="453" y="591"/>
      <point x="509" y="514"/>
      <point x="509" y="467" type="qcurve"/>
      <point x="509" y="448"/>
      <point x="505" y="432" type="qcurve"/>
      <point x="502" y="420" type="line"/>
      <point x="388" y="420" type="line"/>
      <point x="390" y="428" type="line"/>
      <point x="392" y="438"/>
      <point x="394" y="448"/>
      <point x="394" y="454" type="qcurve"/>
      <point x="394" y="480"/>
      <point x="377" y="492" type="qcurve"/>
      <point x="349" y="358" type="line"/>
      <point x="489" y="358" type="line"/>
      <point x="434" y="98" type="line"/>
      <point x="332" y="98" type="line"/>
      <point x="340" y="136" type="line"/>
      <point x="328" y="136" type="line"/>
      <point x="317" y="117"/>
      <point x="295" y="105" type="qcurve"/>
      <point x="279" y="28" type="line"/>
      <point x="195" y="28" type="line"/>
      <point x="208" y="88" type="line"/>
      <point x="187" y="90"/>
      <point x="147" y="110"/>
      <point x="116" y="146"/>
      <point x="97" y="197"/>
      <point x="97" y="230" type="qcurve"/>
      <point x="97" y="254"/>
      <point x="103" y="284" type="qcurve"/>
      <point x="130" y="408" type="line"/>
      <point x="150" y="499"/>
      <point x="240" y="602"/>
      <point x="319" y="610" type="qcurve"/>
      <point x="332" y="672" type="line"/>
      <point x="416" y="672" type="line"/>
    </contour>
    <contour>
      <point x="217" y="284" type="line"/>
      <point x="214" y="269"/>
      <point x="214" y="255" type="qcurve"/>
      <point x="214" y="222"/>
      <point x="233" y="208" type="qcurve"/>
      <point x="294" y="494" type="line"/>
      <point x="274" y="484"/>
      <point x="251" y="442"/>
      <point x="244" y="410" type="qcurve"/>
    </contour>
    <contour>
      <point x="328" y="262" type="line"/>
      <point x="316" y="202" type="line"/>
      <point x="332" y="209"/>
      <point x="354" y="236"/>
      <point x="361" y="262" type="qcurve"/>
    </contour>
  </outline>
</glyph>
<glyph name="uni2113" format="1">
  <advance width="612"/>
  <unicode hex="2113"/>
  <outline>
    <contour>
      <point x="273" y="146" type="line"/>
      <point x="270" y="132"/>
      <point x="282" y="120"/>
      <point x="294" y="120" type="qcurve"/>
      <point x="447" y="120" type="line"/>
      <point x="447" y="0" type="line"/>
      <point x="212" y="0" type="line"/>
      <point x="177" y="0"/>
      <point x="133" y="40"/>
      <point x="133" y="72" type="qcurve"/>
      <point x="133" y="82"/>
      <point x="136" y="96" type="qcurve"/>
      <point x="157" y="183" type="line"/>
      <point x="147" y="182"/>
      <point x="129" y="182"/>
      <point x="120" y="182" type="qcurve"/>
      <point x="24" y="182" type="line"/>
      <point x="24" y="302" type="line"/>
      <point x="134" y="302" type="line"/>
      <point x="147" y="302"/>
      <point x="171" y="303"/>
      <point x="182" y="304" type="qcurve"/>
      <point x="237" y="552" type="line"/>
      <point x="254" y="628"/>
      <point x="348" y="714"/>
      <point x="422" y="714" type="qcurve"/>
      <point x="459" y="714"/>
      <point x="513" y="691"/>
      <point x="549" y="652"/>
      <point x="567" y="600"/>
      <point x="567" y="570" type="qcurve"/>
      <point x="567" y="511"/>
      <point x="525" y="399"/>
      <point x="450" y="303"/>
      <point x="348" y="229"/>
      <point x="288" y="208" type="qcurve"/>
    </contour>
    <contour>
      <point x="318" y="349" type="line"/>
      <point x="371" y="381"/>
      <point x="439" y="491"/>
      <point x="439" y="556" type="qcurve"/>
      <point x="439" y="573"/>
      <point x="423" y="594"/>
      <point x="406" y="594" type="qcurve"/>
      <point x="391" y="594"/>
      <point x="366" y="569"/>
      <point x="360" y="540" type="qcurve"/>
    </contour>
  </outline>
</glyph>
<glyph name="uni2120" format="1">
  <advance width="612"/>
  <unicode hex="2120"/>
  <outline>
    <contour>
      <point x="183" y="608" type="line"/>
      <point x="184" y="613"/>
      <point x="184" y="616"/>
      <point x="184" y="617" type="qcurve"/>
      <point x="184" y="625"/>
      <point x="171" y="636"/>
      <point x="160" y="636" type="qcurve"/>
      <point x="147" y="636"/>
      <point x="128" y="626"/>
      <point x="128" y="614" type="qcurve"/>
      <point x="128" y="605"/>
      <point x="148" y="595"/>
      <point x="174" y="589" type="qcurve"/>
      <point x="211" y="580"/>
      <point x="244" y="544"/>
      <point x="244" y="515" type="qcurve"/>
      <point x="244" y="488"/>
      <point x="224" y="447"/>
      <point x="190" y="420"/>
      <point x="144" y="406"/>
      <point x="118" y="406" type="qcurve"/>
      <point x="93" y="406"/>
      <point x="56" y="421"/>
      <point x="31" y="444"/>
      <point x="18" y="472"/>
      <point x="18" y="486" type="qcurve"/>
      <point x="18" y="491"/>
      <point x="19" y="498"/>
      <point x="20" y="502" type="qcurve"/>
      <point x="23" y="514" type="line"/>
      <point x="99" y="514" type="line"/>
      <point x="97" y="507" type="line"/>
      <point x="96" y="502"/>
      <point x="96" y="498" type="qcurve"/>
      <point x="96" y="476"/>
      <point x="127" y="476" type="qcurve"/>
      <point x="141" y="476"/>
      <point x="165" y="488"/>
      <point x="165" y="505" type="qcurve"/>
      <point x="165" y="514"/>
      <point x="145" y="527"/>
      <point x="113" y="535" type="qcurve"/>
      <point x="103" y="537"/>
      <point x="81" y="547"/>
      <point x="62" y="564"/>
      <point x="50" y="589"/>
      <point x="50" y="607" type="qcurve"/>
      <point x="50" y="647"/>
      <point x="113" y="706"/>
      <point x="169" y="706" type="qcurve"/>
      <point x="217" y="706"/>
      <point x="261" y="661"/>
      <point x="261" y="630" type="qcurve"/>
      <point x="261" y="624"/>
      <point x="260" y="613"/>
      <point x="259" y="608" type="qcurve"/>
    </contour>
    <contour>
      <point x="308" y="700" type="line"/>
      <point x="440" y="700" type="line"/>
      <point x="409" y="502" type="line"/>
      <point x="401" y="466" type="line"/>
      <point x="413" y="466" type="line"/>
      <point x="421" y="502" type="line"/>
      <point x="476" y="700" type="line"/>
      <point x="608" y="700" type="line"/>
      <point x="547" y="412" type="line"/>
      <point x="471" y="412" type="line"/>
      <point x="521" y="646" type="line"/>
      <point x="509" y="646" type="line"/>
      <point x="501" y="610" type="line"/>
      <point x="445" y="412" type="line"/>
      <point x="349" y="412" type="line"/>
      <point x="377" y="610" type="line"/>
      <point x="385" y="646" type="line"/>
      <point x="373" y="646" type="line"/>
      <point x="323" y="412" type="line"/>
      <point x="247" y="412" type="line"/>
    </contour>
  </outline>
</glyph>
<glyph name="trademark" format="1">
  <advance width="612"/>
  <unicode hex="2122"/>
  <outline>
    <contour>
      <point x="62" y="700" type="line"/>
      <point x="290" y="700" type="line"/>
      <point x="290" y="628" type="line"/>
      <point x="208" y="628" type="line"/>
      <point x="162" y="412" type="line"/>
      <point x="84" y="412" type="line"/>
      <point x="130" y="628" type="line"/>
      <point x="62" y="628" type="line"/>
    </contour>
    <contour>
      <point x="322" y="700" type="line"/>
      <point x="454" y="700" type="line"/>
      <point x="423" y="502" type="line"/>
      <point x="415" y="466" type="line"/>
      <point x="427" y="466" type="line"/>
      <point x="435" y="502" type="line"/>
      <point x="490" y="700" type="line"/>
      <point x="622" y="700" type="line"/>
      <point x="561" y="412" type="line"/>
      <point x="485" y="412" type="line"/>
      <point x="535" y="646" type="line"/>
      <point x="523" y="646" type="line"/>
      <point x="515" y="610" type="line"/>
      <point x="459" y="412" type="line"/>
      <point x="363" y="412" type="line"/>
      <point x="391" y="610" type="line"/>
      <point x="399" y="646" type="line"/>
      <point x="387" y="646" type="line"/>
      <point x="337" y="412" type="line"/>
      <point x="261" y="412" type="line"/>
    </contour>
  </outline>
</glyph>
<glyph name="partialdiff" format="1">
  <advance width="612"/>
  <unicode hex="2202"/>
  <outline>
    <contour>
      <point x="430" y="464" type="line"/>
      <point x="419" y="533"/>
      <point x="296" y="608"/>
      <point x="200" y="614" type="qcurve"/>
      <point x="244" y="728" type="line"/>
      <point x="316" y="722"/>
      <point x="434" y="674"/>
      <point x="517" y="588"/>
      <point x="563" y="463"/>
      <point x="563" y="380" type="qcurve"/>
      <point x="563" y="336"/>
      <point x="547" y="243"/>
      <point x="512" y="155"/>
      <point x="458" y="78"/>
      <point x="382" y="20"/>
      <point x="283" y="-14"/>
      <point x="221" y="-14" type="qcurve"/>
      <point x="177" y="-14"/>
      <point x="101" y="14"/>
      <point x="46" y="68"/>
      <point x="15" y="148"/>
      <point x="15" y="200" type="qcurve"/>
      <point x="15" y="258"/>
      <point x="55" y="369"/>
      <point x="128" y="456"/>
      <point x="231" y="510"/>
      <point x="295" y="510" type="qcurve"/>
      <point x="344" y="510"/>
      <point x="399" y="485"/>
      <point x="412" y="464" type="qcurve"/>
    </contour>
    <contour>
      <point x="247" y="106" type="qcurve"/>
      <point x="283" y="106"/>
      <point x="343" y="136"/>
      <point x="388" y="187"/>
      <point x="413" y="254"/>
      <point x="413" y="290" type="qcurve"/>
      <point x="413" y="338"/>
      <point x="357" y="390"/>
      <point x="308" y="390" type="qcurve"/>
      <point x="272" y="390"/>
      <point x="211" y="360"/>
      <point x="168" y="310"/>
      <point x="143" y="248"/>
      <point x="143" y="216" type="qcurve"/>
      <point x="143" y="187"/>
      <point x="160" y="146"/>
      <point x="189" y="119"/>
      <point x="226" y="106"/>
    </contour>
  </outline>
</glyph>
<glyph name="summation" format="1">
  <advance width="612"/>
  <unicode hex="2211"/>
  <outline>
    <contour>
      <point x="305" y="366" type="line"/>
      <point x="111" y="496" type="line"/>
      <point x="111" y="700" type="line"/>
      <point x="605" y="700" type="line"/>
      <point x="605" y="574" type="line"/>
      <point x="247" y="574" type="line"/>
      <point x="247" y="556" type="line"/>
      <point x="441" y="424" type="line"/>
      <point x="441" y="283" type="line"/>
      <point x="148" y="144" type="line"/>
      <point x="148" y="126" type="line"/>
      <point x="495" y="126" type="line"/>
      <point x="495" y="0" type="line"/>
      <point x="12" y="0" type="line"/>
      <point x="12" y="210" type="line"/>
      <point x="305" y="348" type="line"/>
    </contour>
  </outline>
</glyph>
<glyph name="notequal" format="1">
  <advance width="612"/>
  <unicode hex="2260"/>
  <outline>
    <contour>
      <point x="121" y="494" type="line"/>
      <point x="321" y="494" type="line"/>
      <point x="379" y="593" type="line"/>
      <point x="482" y="535" type="line"/>
      <point x="458" y="494" type="line"/>
      <point x="539" y="494" type="line"/>
      <point x="539" y="380" type="line"/>
      <point x="392" y="380" type="line"/>
      <point x="357" y="320" type="line"/>
      <point x="491" y="320" type="line"/>
      <point x="491" y="206" type="line"/>
      <point x="290" y="206" type="line"/>
      <point x="233" y="107" type="line"/>
      <point x="130" y="165" type="line"/>
      <point x="154" y="206" type="line"/>
      <point x="73" y="206" type="line"/>
      <point x="73" y="320" type="line"/>
      <point x="220" y="320" type="line"/>
      <point x="255" y="380" type="line"/>
      <point x="121" y="380" type="line"/>
    </contour>
  </outline>
</glyph>
<glyph name="greaterequal" format="1">
  <advance width="612"/>
  <unicode hex="2265"/>
  <outline>
    <contour>
      <point x="526" y="460" type="line"/>
      <point x="526" y="252" type="line"/>
      <point x="60" y="136" type="line"/>
      <point x="60" y="258" type="line"/>
      <point x="442" y="350" type="line"/>
      <point x="442" y="367" type="line"/>
      <point x="153" y="445" type="line"/>
      <point x="153" y="564" type="line"/>
    </contour>
    <contour>
      <point x="430" y="0" type="line"/>
      <point x="12" y="0" type="line"/>
      <point x="12" y="108" type="line"/>
      <point x="430" y="108" type="line"/>
    </contour>
  </outline>
</glyph>
<glyph name="lozenge" format="1">
  <advance width="612"/>
  <unicode hex="25CA"/>
  <outline>
    <contour>
      <point x="360" y="0" type="line"/>
      <point x="120" y="0" type="line"/>
      <point x="46" y="372" type="line"/>
      <point x="251" y="700" type="line"/>
      <point x="491" y="700" type="line"/>
      <point x="565" y="328" type="line"/>
    </contour>
    <contour>
      <point x="254" y="66" type="line"/>
      <point x="432" y="350" type="line"/>
      <point x="375" y="634" type="line"/>
      <point x="357" y="634" type="line"/>
      <point x="180" y="350" type="line"/>
      <point x="236" y="66" type="line"/>
    </contour>
  </outline>
</glyph>
<glyph name="fi" format="1">
  <advance width="612"/>
  <unicode hex="FB01"/>
  <outline>
    <contour>
      <point x="500" y="12" type="line"/>
      <point x="480" y="-2"/>
      <point x="438" y="-14"/>
      <point x="418" y="-14" type="qcurve"/>
      <point x="396" y="-14"/>
      <point x="356" y="1"/>
      <point x="326" y="28"/>
      <point x="309" y="67"/>
      <point x="309" y="91" type="qcurve"/>
      <point x="309" y="107"/>
      <point x="313" y="126" type="qcurve"/>
      <point x="365" y="344" type="line"/>
      <point x="366" y="349"/>
      <point x="366" y="354" type="qcurve"/>
      <point x="366" y="376"/>
      <point x="337" y="376" type="qcurve"/>
      <point x="229" y="376" type="line"/>
      <point x="149" y="0" type="line"/>
      <point x="23" y="0" type="line"/>
      <point x="103" y="376" type="line"/>
      <point x="4" y="376" type="line"/>
      <point x="4" y="496" type="line"/>
      <point x="129" y="496" type="line"/>
      <point x="150" y="598" type="line"/>
      <point x="154" y="619"/>
      <point x="178" y="657"/>
      <point x="211" y="684"/>
      <point x="252" y="700"/>
      <point x="273" y="700" type="qcurve"/>
      <point x="355" y="700" type="line"/>
      <point x="355" y="580" type="line"/>
      <point x="299" y="580" type="line"/>
      <point x="272" y="580"/>
      <point x="266" y="550" type="qcurve"/>
      <point x="255" y="496" type="line"/>
      <point x="383" y="496" type="line"/>
      <point x="439" y="496"/>
      <point x="498" y="436"/>
      <point x="498" y="389" type="qcurve"/>
      <point x="498" y="369"/>
      <point x="494" y="352" type="qcurve"/>
      <point x="438" y="119" type="line"/>
      <point x="448" y="112" type="line"/>
      <point x="534" y="172" type="line"/>
      <point x="597" y="78" type="line"/>
    </contour>
    <contour>
      <point x="587" y="643" type="qcurve"/>
      <point x="587" y="623"/>
      <point x="572" y="588"/>
      <point x="546" y="563"/>
      <point x="511" y="548"/>
      <point x="492" y="548" type="qcurve"/>
      <point x="472" y="548"/>
      <point x="438" y="563"/>
      <point x="412" y="588"/>
      <point x="397" y="623"/>
      <point x="397" y="643" type="qcurve"/>
      <point x="397" y="663"/>
      <point x="412" y="698"/>
      <point x="438" y="723"/>
      <point x="472" y="738"/>
      <point x="492" y="738" type="qcurve"/>
      <point x="511" y="738"/>
      <point x="546" y="723"/>
      <point x="572" y="698"/>
      <point x="587" y="663"/>
    </contour>
  </outline>
</glyph>
<glyph name="B.alt" format="1">
  <advance width="612"/>
  <outline>
    <contour>
      <point x="12" y="0" type="line"/>
      <point x="161" y="700" type="line"/>
      <point x="397" y="700" type="line"/>
      <point x="447" y="700"/>
      <point x="521" y="675"/>
      <point x="569" y="631"/>
      <point x="592" y="571"/>
      <point x="592" y="537" type="qcurve"/>
      <point x="592" y="499"/>
      <point x="567" y="440"/>
      <point x="523" y="396"/>
      <point x="466" y="366"/>
      <point x="433" y="358" type="qcurve"/>
      <point x="433" y="340" type="line"/>
      <point x="473" y="328"/>
      <point x="523" y="266"/>
      <point x="523" y="210" type="qcurve"/>
      <point x="523" y="166"/>
      <point x="486" y="90"/>
      <point x="420" y="33"/>
      <point x="329" y="0"/>
      <point x="275" y="0" type="qcurve"/>
    </contour>
    <contour>
      <point x="169" y="126" type="line"/>
      <point x="285" y="126" type="line"/>
      <point x="334" y="126"/>
      <point x="399" y="174"/>
      <point x="399" y="219" type="qcurve"/>
      <point x="399" y="256"/>
      <point x="356" y="288"/>
      <point x="319" y="288" type="qcurve"/>
      <point x="203" y="288" type="line"/>
    </contour>
    <contour>
      <point x="230" y="414" type="line"/>
      <point x="346" y="414" type="line"/>
      <point x="398" y="414"/>
      <point x="459" y="461"/>
      <point x="459" y="507" type="qcurve"/>
      <point x="459" y="540"/>
      <point x="417" y="574"/>
      <point x="380" y="574" type="qcurve"/>
      <point x="264" y="574" type="line"/>
    </contour>
  </outline>
</glyph>
<glyph name="IJacute" format="1">
  <advance width="612"/>
  <outline>
    <contour>
      <point x="265" y="700" type="line"/>
      <point x="189" y="342" type="line"/>
      <point x="57" y="342" type="line"/>
      <point x="133" y="700" type="line"/>
    </contour>
    <component base="J" xOffset="3"/>
    <component base="acute" xOffset="-100" yOffset="204"/>
    <component base="acute" xOffset="197" yOffset="204"/>
  </outline>
</glyph>
<glyph name="Omega" format="1">
  <advance width="612"/>
  <outline>
    <contour>
      <point x="-9" y="126" type="line"/>
      <point x="98" y="126" type="line"/>
      <point x="98" y="144" type="line"/>
      <point x="71" y="160"/>
      <point x="37" y="216"/>
      <point x="37" y="261" type="qcurve"/>
      <point x="37" y="275"/>
      <point x="41" y="307"/>
      <point x="45" y="326" type="qcurve"/>
      <point x="70" y="442" type="line"/>
      <point x="98" y="575"/>
      <point x="255" y="714"/>
      <point x="380" y="714" type="qcurve"/>
      <point x="430" y="714"/>
      <point x="509" y="683"/>
      <point x="563" y="627"/>
      <point x="592" y="550"/>
      <point x="592" y="504" type="qcurve"/>
      <point x="592" y="488"/>
      <point x="588" y="453"/>
      <point x="585" y="438" type="qcurve"/>
      <point x="561" y="326" type="line"/>
      <point x="544" y="245"/>
      <point x="474" y="162"/>
      <point x="426" y="144" type="qcurve"/>
      <point x="426" y="126" type="line"/>
      <point x="530" y="126" type="line"/>
      <point x="530" y="0" type="line"/>
      <point x="299" y="0" type="line"/>
      <point x="299" y="138" type="line"/>
      <point x="331" y="148"/>
      <point x="373" y="179"/>
      <point x="402" y="228"/>
      <point x="423" y="297"/>
      <point x="433" y="344" type="qcurve"/>
      <point x="450" y="426" type="line"/>
      <point x="457" y="457"/>
      <point x="457" y="485" type="qcurve"/>
      <point x="457" y="538"/>
      <point x="405" y="588"/>
      <point x="358" y="588" type="qcurve"/>
      <point x="300" y="588"/>
      <point x="216" y="509"/>
      <point x="198" y="426" type="qcurve"/>
      <point x="181" y="344" type="line"/>
      <point x="174" y="312"/>
      <point x="164" y="253"/>
      <point x="164" y="228" type="qcurve"/>
      <point x="164" y="193"/>
      <point x="192" y="150"/>
      <point x="227" y="138" type="qcurve"/>
      <point x="227" y="0" type="line"/>
      <point x="-9" y="0" type="line"/>
    </contour>
  </outline>
</glyph>
<glyph name="aogonek.alt" format="1">
  <advance width="612"/>
  <outline>
    <contour>
      <point x="456" y="119" type="line"/>
      <point x="466" y="112" type="line"/>
      <point x="517" y="148" type="line"/>
      <point x="580" y="54" type="line"/>
      <point x="419" y="-58" type="line"/>
      <point x="411" y="-64"/>
      <point x="411" y="-72" type="qcurve"/>
      <point x="411" y="-77"/>
      <point x="420" y="-86"/>
      <point x="428" y="-86" type="qcurve"/>
      <point x="491" y="-86" type="line"/>
      <point x="491" y="-170" type="line"/>
      <point x="367" y="-170" type="line"/>
      <point x="331" y="-170"/>
      <point x="288" y="-125"/>
      <point x="288" y="-95" type="qcurve"/>
      <point x="288" y="-76"/>
      <point x="308" y="-39"/>
      <point x="329" y="-23" type="qcurve"/>
      <point x="369" y="6" type="line"/>
      <point x="337" y="28"/>
      <point x="330" y="66" type="qcurve"/>
      <point x="312" y="66" type="line"/>
      <point x="304" y="49"/>
      <point x="281" y="20"/>
      <point x="248" y="-1"/>
      <point x="204" y="-14"/>
      <point x="174" y="-14" type="qcurve"/>
      <point x="142" y="-14"/>
      <point x="88" y="6"/>
      <point x="49" y="45"/>
      <point x="26" y="101"/>
      <point x="26" y="138" type="qcurve"/>
      <point x="26" y="166"/>
      <point x="47" y="226"/>
      <point x="96" y="275"/>
      <point x="176" y="306"/>
      <point x="235" y="306" type="qcurve"/>
      <point x="369" y="306" type="line"/>
      <point x="371" y="316"/>
      <point x="371" y="323" type="qcurve"/>
      <point x="371" y="352"/>
      <point x="330" y="390"/>
      <point x="290" y="390" type="qcurve"/>
      <point x="254" y="390"/>
      <point x="205" y="357"/>
      <point x="188" y="330" type="qcurve"/>
      <point x="98" y="398" type="line"/>
      <point x="125" y="443"/>
      <point x="228" y="510"/>
      <point x="306" y="510" type="qcurve"/>
      <point x="348" y="510"/>
      <point x="418" y="485"/>
      <point x="469" y="440"/>
      <point x="497" y="376"/>
      <point x="497" y="338" type="qcurve"/>
      <point x="497" y="319"/>
      <point x="492" y="294" type="qcurve"/>
    </contour>
    <contour>
      <point x="220" y="106" type="qcurve"/>
      <point x="270" y="106"/>
      <point x="338" y="159"/>
      <point x="346" y="198" type="qcurve"/>
      <point x="228" y="198" type="line"/>
      <point x="201" y="198"/>
      <point x="164" y="173"/>
      <point x="164" y="151" type="qcurve"/>
      <point x="164" y="129"/>
      <point x="194" y="106"/>
    </contour>
  </outline>
</glyph>
<glyph name="asterisk.cap" format="1">
  <advance width="612"/>
  <outline>
    <contour>
      <point x="401" y="232" type="line"/>
      <point x="345" y="319" type="line"/>
      <point x="328" y="398" type="line"/>
      <point x="311" y="394" type="line"/>
      <point x="323" y="317" type="line"/>
      <point x="301" y="213" type="line"/>
      <point x="207" y="233" type="line"/>
      <point x="230" y="337" type="line"/>
      <point x="272" y="403" type="line"/>
      <point x="258" y="413" type="line"/>
      <point x="210" y="347" type="line"/>
      <point x="124" y="291" type="line"/>
      <point x="72" y="371" type="line"/>
      <point x="159" y="427" type="line"/>
      <point x="238" y="444" type="line"/>
      <point x="234" y="461" type="line"/>
      <point x="157" y="449" type="line"/>
      <point x="53" y="471" type="line"/>
      <point x="73" y="565" type="line"/>
      <point x="177" y="542" type="line"/>
      <point x="243" y="500" type="line"/>
      <point x="253" y="514" type="line"/>
      <point x="187" y="562" type="line"/>
      <point x="131" y="648" type="line"/>
      <point x="211" y="700" type="line"/>
      <point x="267" y="613" type="line"/>
      <point x="284" y="534" type="line"/>
      <point x="301" y="538" type="line"/>
      <point x="289" y="615" type="line"/>
      <point x="311" y="719" type="line"/>
      <point x="405" y="699" type="line"/>
      <point x="382" y="595" type="line"/>
      <point x="340" y="529" type="line"/>
      <point x="354" y="519" type="line"/>
      <point x="402" y="585" type="line"/>
      <point x="488" y="641" type="line"/>
      <point x="540" y="561" type="line"/>
      <point x="453" y="505" type="line"/>
      <point x="374" y="488" type="line"/>
      <point x="378" y="471" type="line"/>
      <point x="455" y="483" type="line"/>
      <point x="559" y="461" type="line"/>
      <point x="539" y="367" type="line"/>
      <point x="435" y="390" type="line"/>
      <point x="369" y="432" type="line"/>
      <point x="359" y="418" type="line"/>
      <point x="425" y="370" type="line"/>
      <point x="481" y="284" type="line"/>
    </contour>
  </outline>
</glyph>
<glyph name="at.cap" format="1">
  <advance width="612"/>
  <outline>
    <contour>
      <point x="512" y="0" type="line"/>
      <point x="393" y="0" type="line"/>
      <point x="405" y="54" type="line"/>
      <point x="387" y="54" type="line"/>
      <point x="376" y="24"/>
      <point x="332" y="-14"/>
      <point x="287" y="-14" type="qcurve"/>
      <point x="237" y="-14"/>
      <point x="183" y="58"/>
      <point x="183" y="128" type="qcurve"/>
      <point x="183" y="151"/>
      <point x="190" y="205"/>
      <point x="196" y="235" type="qcurve"/>
      <point x="203" y="269" type="line"/>
      <point x="216" y="335"/>
      <point x="256" y="426"/>
      <point x="304" y="484"/>
      <point x="360" y="510"/>
      <point x="390" y="510" type="qcurve"/>
      <point x="425" y="510"/>
      <point x="463" y="473"/>
      <point x="463" y="448" type="qcurve"/>
      <point x="481" y="448" type="line"/>
      <point x="498" y="528" type="line"/>
      <point x="500" y="538"/>
      <point x="500" y="546" type="qcurve"/>
      <point x="500" y="594"/>
      <point x="440" y="594" type="qcurve"/>
      <point x="310" y="594" type="line"/>
      <point x="269" y="594"/>
      <point x="223" y="554"/>
      <point x="214" y="510" type="qcurve"/>
      <point x="111" y="24" type="line"/>
      <point x="109" y="16"/>
      <point x="107" y="-1"/>
      <point x="107" y="-9" type="qcurve"/>
      <point x="107" y="-41"/>
      <point x="145" y="-80"/>
      <point x="189" y="-80" type="qcurve"/>
      <point x="512" y="-80" type="line"/>
      <point x="512" y="-200" type="line"/>
      <point x="147" y="-200" type="line"/>
      <point x="66" y="-200"/>
      <point x="-24" y="-124"/>
      <point x="-24" y="-49" type="qcurve"/>
      <point x="-24" y="-19"/>
      <point x="-17" y="12" type="qcurve"/>
      <point x="93" y="530" type="line"/>
      <point x="111" y="618"/>
      <point x="223" y="714"/>
      <point x="312" y="714" type="qcurve"/>
      <point x="474" y="714" type="line"/>
      <point x="551" y="714"/>
      <point x="630" y="640"/>
      <point x="630" y="577" type="qcurve"/>
      <point x="630" y="552"/>
      <point x="625" y="530" type="qcurve"/>
    </contour>
    <contour>
      <point x="415" y="390" type="qcurve"/>
      <point x="383" y="390"/>
      <point x="343" y="329"/>
      <point x="328" y="263" type="qcurve"/>
      <point x="321" y="233" type="line"/>
      <point x="316" y="213"/>
      <point x="311" y="179"/>
      <point x="311" y="165" type="qcurve"/>
      <point x="311" y="106"/>
      <point x="356" y="106" type="qcurve"/>
      <point x="385" y="106"/>
      <point x="419" y="153"/>
      <point x="427" y="194" type="qcurve"/>
      <point x="450" y="302" type="line"/>
      <point x="452" y="313"/>
      <point x="455" y="333"/>
      <point x="455" y="342" type="qcurve"/>
      <point x="455" y="365"/>
      <point x="437" y="390"/>
    </contour>
  </outline>
</glyph>
<glyph name="copyright.cap" format="1">
  <advance width="612"/>
  <outline>
    <contour>
      <point x="254" y="260" type="line"/>
      <point x="252" y="250"/>
      <point x="252" y="245" type="qcurve"/>
      <point x="252" y="220"/>
      <point x="278" y="220" type="qcurve"/>
      <point x="296" y="220"/>
      <point x="314" y="242"/>
      <point x="318" y="260" type="qcurve"/>
      <point x="329" y="310" type="line"/>
      <point x="425" y="310" type="line"/>
      <point x="416" y="266" type="line"/>
      <point x="402" y="198"/>
      <point x="331" y="130"/>
      <point x="259" y="130" type="qcurve"/>
      <point x="210" y="130"/>
      <point x="156" y="178"/>
      <point x="156" y="228" type="qcurve"/>
      <point x="156" y="249"/>
      <point x="162" y="276" type="qcurve"/>
      <point x="193" y="424" type="line"/>
      <point x="209" y="501"/>
      <point x="288" y="570"/>
      <point x="350" y="570" type="qcurve"/>
      <point x="406" y="570"/>
      <point x="455" y="518"/>
      <point x="455" y="474" type="qcurve"/>
      <point x="455" y="453"/>
      <point x="451" y="434" type="qcurve"/>
      <point x="442" y="390" type="line"/>
      <point x="346" y="390" type="line"/>
      <point x="357" y="440" type="line"/>
      <point x="359" y="448"/>
      <point x="359" y="455" type="qcurve"/>
      <point x="359" y="480"/>
      <point x="333" y="480" type="qcurve"/>
      <point x="315" y="480"/>
      <point x="297" y="458"/>
      <point x="293" y="440" type="qcurve"/>
    </contour>
    <contour>
      <point x="70" y="514" type="line"/>
      <point x="91" y="612"/>
      <point x="218" y="714"/>
      <point x="307" y="714" type="qcurve"/>
      <point x="454" y="714" type="line"/>
      <point x="526" y="714"/>
      <point x="614" y="627"/>
      <point x="614" y="555" type="qcurve"/>
      <point x="614" y="543"/>
      <point x="612" y="519"/>
      <point x="609" y="506" type="qcurve"/>
      <point x="541" y="186" type="line"/>
      <point x="518" y="80"/>
      <point x="401" y="-14"/>
      <point x="304" y="-14" type="qcurve"/>
      <point x="158" y="-14" type="line"/>
      <point x="85" y="-14"/>
      <point x="-3" y="66"/>
      <point x="-3" y="141" type="qcurve"/>
      <point x="-3" y="167"/>
      <point x="3" y="197" type="qcurve"/>
    </contour>
    <contour>
      <point x="101" y="206" type="line"/>
      <point x="96" y="181"/>
      <point x="96" y="164" type="qcurve"/>
      <point x="96" y="82"/>
      <point x="189" y="82" type="qcurve"/>
      <point x="309" y="82" type="line"/>
      <point x="368" y="82"/>
      <point x="436" y="146"/>
      <point x="449" y="206" type="qcurve"/>
      <point x="510" y="494" type="line"/>
      <point x="515" y="519"/>
      <point x="515" y="536" type="qcurve"/>
      <point x="515" y="618"/>
      <point x="422" y="618" type="qcurve"/>
      <point x="302" y="618" type="line"/>
      <point x="243" y="618"/>
      <point x="175" y="554"/>
      <point x="162" y="494" type="qcurve"/>
    </contour>
  </outline>
</glyph>
<glyph name="dollar.cap" format="1">
  <advance width="612"/>
  <outline>
    <contour>
      <point x="444" y="703" type="line"/>
      <point x="516" y="683"/>
      <point x="590" y="588"/>
      <point x="590" y="526" type="qcurve"/>
      <point x="590" y="515"/>
      <point x="587" y="492"/>
      <point x="585" y="480" type="qcurve"/>
      <point x="581" y="462" type="line"/>
      <point x="455" y="462" type="line"/>
      <point x="458" y="475" type="line"/>
      <point x="461" y="490"/>
      <point x="461" y="501" type="qcurve"/>
      <point x="461" y="526"/>
      <point x="440" y="566"/>
      <point x="418" y="579" type="qcurve"/>
      <point x="382" y="410" type="line"/>
      <point x="460" y="393"/>
      <point x="547" y="307"/>
      <point x="547" y="231" type="qcurve"/>
      <point x="547" y="124"/>
      <point x="413" y="-5"/>
      <point x="292" y="-13" type="qcurve"/>
      <point x="276" y="-92" type="line"/>
      <point x="162" y="-92" type="line"/>
      <point x="180" y="-5" type="line"/>
      <point x="94" y="14"/>
      <point x="9" y="125"/>
      <point x="9" y="198" type="qcurve"/>
      <point x="9" y="221"/>
      <point x="14" y="249" type="qcurve"/>
      <point x="19" y="272" type="line"/>
      <point x="145" y="272" type="line"/>
      <point x="141" y="255" type="line"/>
      <point x="137" y="236"/>
      <point x="137" y="219" type="qcurve"/>
      <point x="137" y="181"/>
      <point x="173" y="128"/>
      <point x="206" y="115" type="qcurve"/>
      <point x="247" y="311" type="line"/>
      <point x="216" y="318"/>
      <point x="158" y="345"/>
      <point x="114" y="388"/>
      <point x="87" y="451"/>
      <point x="87" y="494" type="qcurve"/>
      <point x="87" y="539"/>
      <point x="119" y="616"/>
      <point x="181" y="675"/>
      <point x="273" y="710"/>
      <point x="332" y="713" type="qcurve"/>
      <point x="349" y="792" type="line"/>
      <point x="463" y="792" type="line"/>
    </contour>
    <contour>
      <point x="413" y="213" type="qcurve"/>
      <point x="413" y="261"/>
      <point x="356" y="286" type="qcurve"/>
      <point x="318" y="109" type="line"/>
      <point x="363" y="119"/>
      <point x="413" y="175"/>
    </contour>
    <contour>
      <point x="219" y="506" type="qcurve"/>
      <point x="219" y="459"/>
      <point x="274" y="437" type="qcurve"/>
      <point x="306" y="591" type="line"/>
      <point x="270" y="584"/>
      <point x="219" y="540"/>
    </contour>
  </outline>
</glyph>
<glyph name="dotlessi.alt" format="1">
  <advance width="612"/>
  <outline>
    <contour>
      <point x="206" y="0" type="line"/>
      <point x="295" y="377" type="line"/>
      <point x="285" y="384" type="line"/>
      <point x="151" y="292" type="line"/>
      <point x="88" y="386" type="line"/>
      <point x="233" y="484" type="line"/>
      <point x="253" y="498"/>
      <point x="295" y="510"/>
      <point x="315" y="510" type="qcurve"/>
      <point x="337" y="510"/>
      <point x="377" y="495"/>
      <point x="407" y="468"/>
      <point x="424" y="429"/>
      <point x="424" y="404" type="qcurve"/>
      <point x="424" y="390"/>
      <point x="420" y="370" type="qcurve"/>
      <point x="333" y="0" type="line"/>
    </contour>
  </outline>
</glyph>
<glyph name="five.tosn" format="1">
  <advance width="612"/>
  <outline>
    <contour>
      <point x="33" y="126" type="line"/>
      <point x="33" y="138" type="line"/>
      <point x="108" y="496" type="line"/>
      <point x="544" y="496" type="line"/>
      <point x="544" y="370" type="line"/>
      <point x="212" y="370" type="line"/>
      <point x="175" y="198" type="line"/>
      <point x="193" y="198" type="line"/>
      <point x="214" y="239"/>
      <point x="301" y="294"/>
      <point x="369" y="294" type="qcurve"/>
      <point x="446" y="294"/>
      <point x="534" y="192"/>
      <point x="534" y="100" type="qcurve"/>
      <point x="534" y="38"/>
      <point x="495" y="-71"/>
      <point x="417" y="-152"/>
      <point x="301" y="-200"/>
      <point x="225" y="-200" type="qcurve"/>
      <point x="169" y="-200"/>
      <point x="83" y="-168"/>
      <point x="24" y="-114"/>
      <point x="-6" y="-42"/>
      <point x="-6" y="-1" type="qcurve"/>
      <point x="-6" y="4"/>
      <point x="-6" y="13"/>
      <point x="-5" y="18" type="qcurve"/>
      <point x="133" y="44" type="line"/>
      <point x="133" y="32" type="line"/>
      <point x="133" y="-12"/>
      <point x="184" y="-74"/>
      <point x="245" y="-74" type="qcurve"/>
      <point x="280" y="-74"/>
      <point x="337" y="-46"/>
      <point x="376" y="-2"/>
      <point x="397" y="53"/>
      <point x="397" y="79" type="qcurve"/>
      <point x="397" y="127"/>
      <point x="359" y="168"/>
      <point x="325" y="168" type="qcurve"/>
      <point x="296" y="168"/>
      <point x="254" y="143"/>
      <point x="246" y="126" type="qcurve"/>
    </contour>
  </outline>
</glyph>
<glyph name="florin.cap" format="1">
  <advance width="612"/>
  <outline>
    <contour>
      <point x="111" y="462" type="line"/>
      <point x="265" y="462" type="line"/>
      <point x="294" y="598" type="line"/>
      <point x="303" y="641"/>
      <point x="367" y="700"/>
      <point x="417" y="700" type="qcurve"/>
      <point x="605" y="700" type="line"/>
      <point x="605" y="580" type="line"/>
      <point x="443" y="580" type="line"/>
      <point x="416" y="580"/>
      <point x="410" y="550" type="qcurve"/>
      <point x="391" y="462" type="line"/>
      <point x="523" y="462" type="line"/>
      <point x="523" y="342" type="line"/>
      <point x="366" y="342" type="line"/>
      <point x="315" y="102" type="line"/>
      <point x="306" y="59"/>
      <point x="245" y="0"/>
      <point x="192" y="0" type="qcurve"/>
      <point x="5" y="0" type="line"/>
      <point x="5" y="120" type="line"/>
      <point x="166" y="120" type="line"/>
      <point x="193" y="120"/>
      <point x="199" y="150" type="qcurve"/>
      <point x="240" y="342" type="line"/>
      <point x="111" y="342" type="line"/>
    </contour>
  </outline>
</glyph>
